%TF.GenerationSoftware,KiCad,Pcbnew,8.0.3*%
%TF.CreationDate,2024-07-13T22:25:02+09:00*%
%TF.ProjectId,nucleo_rolicon,6e75636c-656f-45f7-926f-6c69636f6e2e,rev?*%
%TF.SameCoordinates,Original*%
%TF.FileFunction,Copper,L1,Top*%
%TF.FilePolarity,Positive*%
%FSLAX46Y46*%
G04 Gerber Fmt 4.6, Leading zero omitted, Abs format (unit mm)*
G04 Created by KiCad (PCBNEW 8.0.3) date 2024-07-13 22:25:02*
%MOMM*%
%LPD*%
G01*
G04 APERTURE LIST*
G04 Aperture macros list*
%AMRoundRect*
0 Rectangle with rounded corners*
0 $1 Rounding radius*
0 $2 $3 $4 $5 $6 $7 $8 $9 X,Y pos of 4 corners*
0 Add a 4 corners polygon primitive as box body*
4,1,4,$2,$3,$4,$5,$6,$7,$8,$9,$2,$3,0*
0 Add four circle primitives for the rounded corners*
1,1,$1+$1,$2,$3*
1,1,$1+$1,$4,$5*
1,1,$1+$1,$6,$7*
1,1,$1+$1,$8,$9*
0 Add four rect primitives between the rounded corners*
20,1,$1+$1,$2,$3,$4,$5,0*
20,1,$1+$1,$4,$5,$6,$7,0*
20,1,$1+$1,$6,$7,$8,$9,0*
20,1,$1+$1,$8,$9,$2,$3,0*%
G04 Aperture macros list end*
%ADD10C,0.200000*%
%TA.AperFunction,ComponentPad*%
%ADD11C,1.600000*%
%TD*%
%TA.AperFunction,ComponentPad*%
%ADD12RoundRect,0.250000X-0.750000X0.600000X-0.750000X-0.600000X0.750000X-0.600000X0.750000X0.600000X0*%
%TD*%
%TA.AperFunction,ComponentPad*%
%ADD13O,2.000000X1.700000*%
%TD*%
%TA.AperFunction,SMDPad,CuDef*%
%ADD14C,0.500000*%
%TD*%
%TA.AperFunction,ComponentPad*%
%ADD15O,1.600000X1.600000*%
%TD*%
%TA.AperFunction,ComponentPad*%
%ADD16O,1.700000X1.950000*%
%TD*%
%TA.AperFunction,ComponentPad*%
%ADD17RoundRect,0.250000X-0.600000X-0.725000X0.600000X-0.725000X0.600000X0.725000X-0.600000X0.725000X0*%
%TD*%
%TA.AperFunction,ComponentPad*%
%ADD18R,1.530000X1.530000*%
%TD*%
%TA.AperFunction,ComponentPad*%
%ADD19C,1.530000*%
%TD*%
%TA.AperFunction,ComponentPad*%
%ADD20RoundRect,0.250000X0.600000X0.725000X-0.600000X0.725000X-0.600000X-0.725000X0.600000X-0.725000X0*%
%TD*%
%TA.AperFunction,ComponentPad*%
%ADD21R,1.600000X1.600000*%
%TD*%
%TA.AperFunction,ViaPad*%
%ADD22C,0.600000*%
%TD*%
%TA.AperFunction,Conductor*%
%ADD23C,0.900000*%
%TD*%
%TA.AperFunction,Conductor*%
%ADD24C,1.000000*%
%TD*%
G04 APERTURE END LIST*
D10*
G36*
X169630611Y-83926529D02*
G01*
X169650236Y-83945305D01*
X169681353Y-84005236D01*
X169682487Y-84101083D01*
X169653866Y-84160576D01*
X169629204Y-84186354D01*
X169569564Y-84217320D01*
X169309487Y-84218567D01*
X169308873Y-83892868D01*
X169522077Y-83891708D01*
X169630611Y-83926529D01*
G37*
G36*
X169576840Y-83444453D02*
G01*
X169602617Y-83469115D01*
X169633842Y-83529254D01*
X169634654Y-83577719D01*
X169606246Y-83636769D01*
X169581588Y-83662542D01*
X169521919Y-83693523D01*
X169308499Y-83694685D01*
X169307976Y-83416683D01*
X169516754Y-83415547D01*
X169576840Y-83444453D01*
G37*
G36*
X169992212Y-84528330D02*
G01*
X168998562Y-84528330D01*
X168998562Y-83317219D01*
X169109673Y-83317219D01*
X169111594Y-84336728D01*
X169126526Y-84372776D01*
X169154116Y-84400366D01*
X169190164Y-84415298D01*
X169209673Y-84417219D01*
X169575212Y-84415465D01*
X169578118Y-84416434D01*
X169592942Y-84415380D01*
X169610134Y-84415298D01*
X169613454Y-84413922D01*
X169617038Y-84413668D01*
X169635346Y-84406662D01*
X169730374Y-84357322D01*
X169741421Y-84352747D01*
X169745267Y-84349589D01*
X169747174Y-84348600D01*
X169748904Y-84346605D01*
X169756574Y-84340310D01*
X169804507Y-84290207D01*
X169812482Y-84283292D01*
X169815093Y-84279142D01*
X169816630Y-84277537D01*
X169817641Y-84275095D01*
X169822925Y-84266701D01*
X169862863Y-84183683D01*
X169864248Y-84182299D01*
X169868700Y-84171549D01*
X169877550Y-84153155D01*
X169877804Y-84149571D01*
X169879180Y-84146251D01*
X169881101Y-84126742D01*
X169879584Y-83998585D01*
X169880316Y-83996392D01*
X169879407Y-83983609D01*
X169879180Y-83964376D01*
X169877804Y-83961055D01*
X169877550Y-83957472D01*
X169870544Y-83939163D01*
X169821201Y-83844129D01*
X169816629Y-83833089D01*
X169813473Y-83829243D01*
X169812482Y-83827335D01*
X169810484Y-83825602D01*
X169804192Y-83817936D01*
X169765429Y-83780851D01*
X169764862Y-83779716D01*
X169758236Y-83773969D01*
X169753751Y-83769678D01*
X169756888Y-83766398D01*
X169764863Y-83759483D01*
X169767474Y-83755333D01*
X169769010Y-83753729D01*
X169770020Y-83751288D01*
X169775306Y-83742892D01*
X169815244Y-83659874D01*
X169816629Y-83658490D01*
X169821081Y-83647740D01*
X169829931Y-83629346D01*
X169830185Y-83625762D01*
X169831561Y-83622442D01*
X169833482Y-83602933D01*
X169832125Y-83521915D01*
X169832697Y-83520202D01*
X169831912Y-83509157D01*
X169831561Y-83488186D01*
X169830185Y-83484865D01*
X169829931Y-83481282D01*
X169822925Y-83462973D01*
X169773582Y-83367939D01*
X169769010Y-83356899D01*
X169765854Y-83353053D01*
X169764863Y-83351145D01*
X169762865Y-83349412D01*
X169756573Y-83341746D01*
X169706472Y-83293814D01*
X169699555Y-83285838D01*
X169695405Y-83283225D01*
X169693801Y-83281691D01*
X169691361Y-83280680D01*
X169682965Y-83275395D01*
X169599947Y-83235456D01*
X169598563Y-83234072D01*
X169587813Y-83229619D01*
X169569419Y-83220770D01*
X169565835Y-83220515D01*
X169562515Y-83219140D01*
X169543006Y-83217219D01*
X169190164Y-83219140D01*
X169154116Y-83234072D01*
X169126526Y-83261662D01*
X169111594Y-83297710D01*
X169109673Y-83317219D01*
X168998562Y-83317219D01*
X168998562Y-83106108D01*
X169992212Y-83106108D01*
X169992212Y-84528330D01*
G37*
G36*
X143282212Y-84368330D02*
G01*
X142240943Y-84368330D01*
X142240943Y-83585790D01*
X142352054Y-83585790D01*
X142353681Y-83723363D01*
X142352172Y-83733508D01*
X142353943Y-83745486D01*
X142353975Y-83748156D01*
X142354539Y-83749519D01*
X142355040Y-83752901D01*
X142402544Y-83935980D01*
X142403224Y-83945536D01*
X142408815Y-83960148D01*
X142409254Y-83961837D01*
X142409684Y-83962417D01*
X142410230Y-83963844D01*
X142459566Y-84058866D01*
X142464144Y-84069918D01*
X142467302Y-84073766D01*
X142468292Y-84075672D01*
X142470286Y-84077401D01*
X142476581Y-84085071D01*
X142562526Y-84168902D01*
X142563531Y-84170912D01*
X142573055Y-84179172D01*
X142586972Y-84192747D01*
X142590291Y-84194122D01*
X142593007Y-84196477D01*
X142610907Y-84204468D01*
X142753991Y-84250374D01*
X142765878Y-84255298D01*
X142770870Y-84255789D01*
X142772879Y-84256434D01*
X142775513Y-84256246D01*
X142785387Y-84257219D01*
X142881529Y-84255609D01*
X142893132Y-84256434D01*
X142897968Y-84255334D01*
X142900134Y-84255298D01*
X142902576Y-84254286D01*
X142912248Y-84252087D01*
X143040625Y-84207678D01*
X143042992Y-84207678D01*
X143054984Y-84202710D01*
X143073005Y-84196477D01*
X143075720Y-84194122D01*
X143079040Y-84192747D01*
X143094193Y-84180310D01*
X143154249Y-84117537D01*
X143169180Y-84081488D01*
X143171101Y-84061980D01*
X143169180Y-83709138D01*
X143154248Y-83673090D01*
X143126658Y-83645500D01*
X143090610Y-83630568D01*
X143071101Y-83628647D01*
X142861116Y-83630568D01*
X142825068Y-83645500D01*
X142797478Y-83673090D01*
X142782546Y-83709138D01*
X142782546Y-83748156D01*
X142797478Y-83784204D01*
X142825068Y-83811794D01*
X142861116Y-83826726D01*
X142880625Y-83828647D01*
X142971640Y-83827814D01*
X142972688Y-84020224D01*
X142971059Y-84021927D01*
X142868448Y-84057422D01*
X142804961Y-84058485D01*
X142698221Y-84024240D01*
X142631082Y-83958752D01*
X142595461Y-83890145D01*
X142551982Y-83722580D01*
X142550576Y-83603773D01*
X142590816Y-83436500D01*
X142626738Y-83361830D01*
X142694045Y-83292824D01*
X142797384Y-83257077D01*
X142902585Y-83255832D01*
X142997069Y-83301287D01*
X143035989Y-83304053D01*
X143073005Y-83291714D01*
X143102482Y-83266149D01*
X143119931Y-83231251D01*
X143122696Y-83192331D01*
X143110358Y-83155315D01*
X143084793Y-83125838D01*
X143068203Y-83115395D01*
X142985185Y-83075456D01*
X142983801Y-83074072D01*
X142973051Y-83069619D01*
X142954657Y-83060770D01*
X142951073Y-83060515D01*
X142947753Y-83059140D01*
X142928244Y-83057219D01*
X142785583Y-83058906D01*
X142772879Y-83058004D01*
X142767993Y-83059114D01*
X142765878Y-83059140D01*
X142763436Y-83060151D01*
X142753764Y-83062351D01*
X142625390Y-83106759D01*
X142623021Y-83106759D01*
X142611024Y-83111728D01*
X142593007Y-83117961D01*
X142590291Y-83120316D01*
X142586973Y-83121691D01*
X142571819Y-83134127D01*
X142477802Y-83230516D01*
X142468292Y-83238765D01*
X142465625Y-83243001D01*
X142464145Y-83244519D01*
X142463134Y-83246958D01*
X142457849Y-83255355D01*
X142414420Y-83345626D01*
X142409254Y-83352600D01*
X142404026Y-83367232D01*
X142403224Y-83368901D01*
X142403172Y-83369623D01*
X142402659Y-83371061D01*
X142358079Y-83556371D01*
X142353975Y-83566281D01*
X142352782Y-83578390D01*
X142352172Y-83580929D01*
X142352389Y-83582387D01*
X142352054Y-83585790D01*
X142240943Y-83585790D01*
X142240943Y-82946108D01*
X143282212Y-82946108D01*
X143282212Y-84368330D01*
G37*
G36*
X177242695Y-96567946D02*
G01*
X175211282Y-96567946D01*
X175211282Y-96281770D01*
X175377949Y-96281770D01*
X175377949Y-96320788D01*
X175392881Y-96356836D01*
X175420471Y-96384426D01*
X175456519Y-96399358D01*
X175476028Y-96401279D01*
X176995537Y-96399358D01*
X177031585Y-96384426D01*
X177059175Y-96356836D01*
X177074107Y-96320788D01*
X177076028Y-96301279D01*
X177074107Y-95567484D01*
X177059175Y-95531436D01*
X177031585Y-95503846D01*
X176995537Y-95488914D01*
X176956519Y-95488914D01*
X176920471Y-95503846D01*
X176892881Y-95531436D01*
X176877949Y-95567484D01*
X176876028Y-95586993D01*
X176877636Y-96201403D01*
X175456519Y-96203200D01*
X175420471Y-96218132D01*
X175392881Y-96245722D01*
X175377949Y-96281770D01*
X175211282Y-96281770D01*
X175211282Y-95322247D01*
X177242695Y-95322247D01*
X177242695Y-96567946D01*
G37*
G36*
X151166189Y-84408330D02*
G01*
X149221410Y-84408330D01*
X149221410Y-83683062D01*
X149332521Y-83683062D01*
X149333975Y-83687880D01*
X149333975Y-83692918D01*
X149339571Y-83706427D01*
X149343792Y-83720417D01*
X149346979Y-83724313D01*
X149348907Y-83728966D01*
X149359243Y-83739302D01*
X149368499Y-83750615D01*
X149372936Y-83752995D01*
X149376497Y-83756556D01*
X149390002Y-83762150D01*
X149402883Y-83769060D01*
X149407892Y-83769560D01*
X149412545Y-83771488D01*
X149427166Y-83771488D01*
X149441707Y-83772942D01*
X149446526Y-83771488D01*
X149451563Y-83771488D01*
X149465072Y-83765891D01*
X149479062Y-83761671D01*
X149482958Y-83758483D01*
X149487611Y-83756556D01*
X149502765Y-83744120D01*
X149536331Y-83709035D01*
X149596079Y-83678013D01*
X149786942Y-83676589D01*
X149846840Y-83705405D01*
X149872617Y-83730067D01*
X149903639Y-83789815D01*
X149905063Y-83980678D01*
X149876247Y-84040576D01*
X149851585Y-84066354D01*
X149791836Y-84097376D01*
X149600974Y-84098800D01*
X149541074Y-84069983D01*
X149487612Y-84018833D01*
X149451564Y-84003902D01*
X149412546Y-84003901D01*
X149376497Y-84018832D01*
X149348907Y-84046422D01*
X149333976Y-84082470D01*
X149333975Y-84121488D01*
X149348906Y-84157537D01*
X149361343Y-84172690D01*
X149411443Y-84220623D01*
X149418361Y-84228600D01*
X149422510Y-84231211D01*
X149424115Y-84232747D01*
X149426555Y-84233757D01*
X149434952Y-84239043D01*
X149517969Y-84278981D01*
X149519354Y-84280366D01*
X149530103Y-84284818D01*
X149548498Y-84293668D01*
X149552081Y-84293922D01*
X149555402Y-84295298D01*
X149574911Y-84297219D01*
X149797866Y-84295556D01*
X149800499Y-84296434D01*
X149814604Y-84295431D01*
X149832515Y-84295298D01*
X149835835Y-84293922D01*
X149839419Y-84293668D01*
X149857727Y-84286662D01*
X149952755Y-84237322D01*
X149963802Y-84232747D01*
X149967648Y-84229589D01*
X149969555Y-84228600D01*
X149971285Y-84226605D01*
X149978955Y-84220310D01*
X150026888Y-84170207D01*
X150034863Y-84163292D01*
X150037474Y-84159142D01*
X150039011Y-84157537D01*
X150040022Y-84155095D01*
X150045306Y-84146701D01*
X150085244Y-84063683D01*
X150086629Y-84062299D01*
X150091081Y-84051549D01*
X150099931Y-84033155D01*
X150100185Y-84029571D01*
X150101561Y-84026251D01*
X150103482Y-84006742D01*
X150101819Y-83783786D01*
X150102697Y-83781154D01*
X150101694Y-83767048D01*
X150101561Y-83749138D01*
X150100185Y-83745817D01*
X150099931Y-83742234D01*
X150092925Y-83723925D01*
X150043582Y-83628891D01*
X150039010Y-83617851D01*
X150035854Y-83614005D01*
X150034863Y-83612097D01*
X150032865Y-83610364D01*
X150026573Y-83602698D01*
X149976472Y-83554766D01*
X149969555Y-83546790D01*
X149965405Y-83544177D01*
X149963801Y-83542643D01*
X149961361Y-83541632D01*
X149952965Y-83536347D01*
X149869947Y-83496408D01*
X149868563Y-83495024D01*
X149857813Y-83490571D01*
X149839419Y-83481722D01*
X149835835Y-83481467D01*
X149832515Y-83480092D01*
X149813006Y-83478171D01*
X149590050Y-83479833D01*
X149587418Y-83478956D01*
X149573312Y-83479958D01*
X149555402Y-83480092D01*
X149552081Y-83481467D01*
X149550953Y-83481547D01*
X149568700Y-83296873D01*
X149975372Y-83295298D01*
X150011420Y-83280366D01*
X150039010Y-83252776D01*
X150053942Y-83216728D01*
X150053942Y-83209726D01*
X150189982Y-83209726D01*
X150194329Y-83228842D01*
X150525590Y-84216734D01*
X150526081Y-84223632D01*
X150531614Y-84234699D01*
X150535653Y-84246742D01*
X150540336Y-84252141D01*
X150543531Y-84258531D01*
X150553002Y-84266746D01*
X150561218Y-84276218D01*
X150567606Y-84279412D01*
X150573007Y-84284096D01*
X150584908Y-84288063D01*
X150596117Y-84293667D01*
X150603241Y-84294173D01*
X150610023Y-84296434D01*
X150622532Y-84295544D01*
X150635037Y-84296434D01*
X150641815Y-84294174D01*
X150648943Y-84293668D01*
X150660159Y-84288059D01*
X150672053Y-84284095D01*
X150677450Y-84279414D01*
X150683842Y-84276218D01*
X150692060Y-84266742D01*
X150701529Y-84258530D01*
X150704722Y-84252143D01*
X150709407Y-84246742D01*
X150717398Y-84228842D01*
X151055078Y-83209727D01*
X151052312Y-83170807D01*
X151034862Y-83135908D01*
X151005386Y-83110343D01*
X150968370Y-83098004D01*
X150929450Y-83100771D01*
X150894551Y-83118220D01*
X150868986Y-83147696D01*
X150860995Y-83165597D01*
X150622963Y-83883973D01*
X150376074Y-83147696D01*
X150350509Y-83118220D01*
X150315610Y-83100770D01*
X150276690Y-83098004D01*
X150239674Y-83110342D01*
X150210198Y-83135907D01*
X150192748Y-83170806D01*
X150189982Y-83209726D01*
X150053942Y-83209726D01*
X150053942Y-83177710D01*
X150039010Y-83141662D01*
X150011420Y-83114072D01*
X149975372Y-83099140D01*
X149955863Y-83097219D01*
X149483651Y-83099048D01*
X149470020Y-83097686D01*
X149465266Y-83099120D01*
X149460164Y-83099140D01*
X149446654Y-83104736D01*
X149432665Y-83108957D01*
X149428768Y-83112144D01*
X149424116Y-83114072D01*
X149413779Y-83124408D01*
X149402467Y-83133664D01*
X149400086Y-83138101D01*
X149396526Y-83141662D01*
X149390931Y-83155167D01*
X149384022Y-83168048D01*
X149382545Y-83175412D01*
X149381594Y-83177710D01*
X149381594Y-83180160D01*
X149380169Y-83187269D01*
X149335731Y-83649660D01*
X149333975Y-83653900D01*
X149333975Y-83667932D01*
X149332521Y-83683062D01*
X149221410Y-83683062D01*
X149221410Y-82986108D01*
X151166189Y-82986108D01*
X151166189Y-84408330D01*
G37*
G36*
X167956189Y-84528330D02*
G01*
X166011410Y-84528330D01*
X166011410Y-83803062D01*
X166122521Y-83803062D01*
X166123975Y-83807880D01*
X166123975Y-83812918D01*
X166129571Y-83826427D01*
X166133792Y-83840417D01*
X166136979Y-83844313D01*
X166138907Y-83848966D01*
X166149243Y-83859302D01*
X166158499Y-83870615D01*
X166162936Y-83872995D01*
X166166497Y-83876556D01*
X166180002Y-83882150D01*
X166192883Y-83889060D01*
X166197892Y-83889560D01*
X166202545Y-83891488D01*
X166217166Y-83891488D01*
X166231707Y-83892942D01*
X166236526Y-83891488D01*
X166241563Y-83891488D01*
X166255072Y-83885891D01*
X166269062Y-83881671D01*
X166272958Y-83878483D01*
X166277611Y-83876556D01*
X166292765Y-83864120D01*
X166326331Y-83829035D01*
X166386079Y-83798013D01*
X166576942Y-83796589D01*
X166636840Y-83825405D01*
X166662617Y-83850067D01*
X166693639Y-83909815D01*
X166695063Y-84100678D01*
X166666247Y-84160576D01*
X166641585Y-84186354D01*
X166581836Y-84217376D01*
X166390974Y-84218800D01*
X166331074Y-84189983D01*
X166277612Y-84138833D01*
X166241564Y-84123902D01*
X166202546Y-84123901D01*
X166166497Y-84138832D01*
X166138907Y-84166422D01*
X166123976Y-84202470D01*
X166123975Y-84241488D01*
X166138906Y-84277537D01*
X166151343Y-84292690D01*
X166201443Y-84340623D01*
X166208361Y-84348600D01*
X166212510Y-84351211D01*
X166214115Y-84352747D01*
X166216555Y-84353757D01*
X166224952Y-84359043D01*
X166307969Y-84398981D01*
X166309354Y-84400366D01*
X166320103Y-84404818D01*
X166338498Y-84413668D01*
X166342081Y-84413922D01*
X166345402Y-84415298D01*
X166364911Y-84417219D01*
X166587866Y-84415556D01*
X166590499Y-84416434D01*
X166604604Y-84415431D01*
X166622515Y-84415298D01*
X166625835Y-84413922D01*
X166629419Y-84413668D01*
X166647727Y-84406662D01*
X166742755Y-84357322D01*
X166753802Y-84352747D01*
X166757648Y-84349589D01*
X166759555Y-84348600D01*
X166761285Y-84346605D01*
X166768955Y-84340310D01*
X166816888Y-84290207D01*
X166824863Y-84283292D01*
X166827474Y-84279142D01*
X166829011Y-84277537D01*
X166830022Y-84275095D01*
X166835306Y-84266701D01*
X166875244Y-84183683D01*
X166876629Y-84182299D01*
X166881081Y-84171549D01*
X166889931Y-84153155D01*
X166890185Y-84149571D01*
X166891561Y-84146251D01*
X166893482Y-84126742D01*
X166891819Y-83903786D01*
X166892697Y-83901154D01*
X166891694Y-83887048D01*
X166891561Y-83869138D01*
X166890185Y-83865817D01*
X166889931Y-83862234D01*
X166882925Y-83843925D01*
X166833582Y-83748891D01*
X166829010Y-83737851D01*
X166825854Y-83734005D01*
X166824863Y-83732097D01*
X166822865Y-83730364D01*
X166816573Y-83722698D01*
X166766472Y-83674766D01*
X166759555Y-83666790D01*
X166755405Y-83664177D01*
X166753801Y-83662643D01*
X166751361Y-83661632D01*
X166742965Y-83656347D01*
X166659947Y-83616408D01*
X166658563Y-83615024D01*
X166647813Y-83610571D01*
X166629419Y-83601722D01*
X166625835Y-83601467D01*
X166622515Y-83600092D01*
X166603006Y-83598171D01*
X166380050Y-83599833D01*
X166377418Y-83598956D01*
X166363312Y-83599958D01*
X166345402Y-83600092D01*
X166342081Y-83601467D01*
X166340953Y-83601547D01*
X166358700Y-83416873D01*
X166765372Y-83415298D01*
X166801420Y-83400366D01*
X166829010Y-83372776D01*
X166843942Y-83336728D01*
X166843942Y-83329726D01*
X166979982Y-83329726D01*
X166984329Y-83348842D01*
X167315590Y-84336734D01*
X167316081Y-84343632D01*
X167321614Y-84354699D01*
X167325653Y-84366742D01*
X167330336Y-84372141D01*
X167333531Y-84378531D01*
X167343002Y-84386746D01*
X167351218Y-84396218D01*
X167357606Y-84399412D01*
X167363007Y-84404096D01*
X167374908Y-84408063D01*
X167386117Y-84413667D01*
X167393241Y-84414173D01*
X167400023Y-84416434D01*
X167412532Y-84415544D01*
X167425037Y-84416434D01*
X167431815Y-84414174D01*
X167438943Y-84413668D01*
X167450159Y-84408059D01*
X167462053Y-84404095D01*
X167467450Y-84399414D01*
X167473842Y-84396218D01*
X167482060Y-84386742D01*
X167491529Y-84378530D01*
X167494722Y-84372143D01*
X167499407Y-84366742D01*
X167507398Y-84348842D01*
X167845078Y-83329727D01*
X167842312Y-83290807D01*
X167824862Y-83255908D01*
X167795386Y-83230343D01*
X167758370Y-83218004D01*
X167719450Y-83220771D01*
X167684551Y-83238220D01*
X167658986Y-83267696D01*
X167650995Y-83285597D01*
X167412963Y-84003973D01*
X167166074Y-83267696D01*
X167140509Y-83238220D01*
X167105610Y-83220770D01*
X167066690Y-83218004D01*
X167029674Y-83230342D01*
X167000198Y-83255907D01*
X166982748Y-83290806D01*
X166979982Y-83329726D01*
X166843942Y-83329726D01*
X166843942Y-83297710D01*
X166829010Y-83261662D01*
X166801420Y-83234072D01*
X166765372Y-83219140D01*
X166745863Y-83217219D01*
X166273651Y-83219048D01*
X166260020Y-83217686D01*
X166255266Y-83219120D01*
X166250164Y-83219140D01*
X166236654Y-83224736D01*
X166222665Y-83228957D01*
X166218768Y-83232144D01*
X166214116Y-83234072D01*
X166203779Y-83244408D01*
X166192467Y-83253664D01*
X166190086Y-83258101D01*
X166186526Y-83261662D01*
X166180931Y-83275167D01*
X166174022Y-83288048D01*
X166172545Y-83295412D01*
X166171594Y-83297710D01*
X166171594Y-83300160D01*
X166170169Y-83307269D01*
X166125731Y-83769660D01*
X166123975Y-83773900D01*
X166123975Y-83787932D01*
X166122521Y-83803062D01*
X166011410Y-83803062D01*
X166011410Y-83106108D01*
X167956189Y-83106108D01*
X167956189Y-84528330D01*
G37*
G36*
X145702212Y-84408330D02*
G01*
X144613324Y-84408330D01*
X144613324Y-83197114D01*
X144724435Y-83197114D01*
X144732007Y-83235391D01*
X144741230Y-83252689D01*
X145038719Y-83697406D01*
X144732007Y-84159047D01*
X144724435Y-84197324D01*
X144732087Y-84235584D01*
X144753798Y-84268004D01*
X144786263Y-84289647D01*
X144824540Y-84297219D01*
X144862800Y-84289567D01*
X144895220Y-84267856D01*
X144907640Y-84252689D01*
X145158048Y-83875792D01*
X145420316Y-84267856D01*
X145452736Y-84289567D01*
X145490996Y-84297219D01*
X145529273Y-84289647D01*
X145561738Y-84268004D01*
X145583449Y-84235584D01*
X145591101Y-84197324D01*
X145583529Y-84159047D01*
X145574306Y-84141749D01*
X145276816Y-83697031D01*
X145583529Y-83235391D01*
X145591101Y-83197114D01*
X145583449Y-83158854D01*
X145561738Y-83126434D01*
X145529273Y-83104791D01*
X145490996Y-83097219D01*
X145452736Y-83104871D01*
X145420316Y-83126582D01*
X145407896Y-83141749D01*
X145157487Y-83518645D01*
X144895220Y-83126582D01*
X144862800Y-83104871D01*
X144824540Y-83097219D01*
X144786263Y-83104791D01*
X144753798Y-83126434D01*
X144732087Y-83158854D01*
X144724435Y-83197114D01*
X144613324Y-83197114D01*
X144613324Y-82986108D01*
X145702212Y-82986108D01*
X145702212Y-84408330D01*
G37*
G36*
X147907789Y-107300198D02*
G01*
X147974930Y-107365685D01*
X148010550Y-107434289D01*
X148054029Y-107601856D01*
X148055435Y-107720664D01*
X148015195Y-107887936D01*
X147979273Y-107962606D01*
X147911964Y-108031614D01*
X147808782Y-108067307D01*
X147682343Y-108068250D01*
X147680832Y-107266485D01*
X147799944Y-107265597D01*
X147907789Y-107300198D01*
G37*
G36*
X149317450Y-108378330D02*
G01*
X146228562Y-108378330D01*
X146228562Y-107167219D01*
X146339673Y-107167219D01*
X146341594Y-108186728D01*
X146356526Y-108222776D01*
X146384116Y-108250366D01*
X146420164Y-108265298D01*
X146459182Y-108265298D01*
X146495230Y-108250366D01*
X146522820Y-108222776D01*
X146537752Y-108186728D01*
X146539673Y-108167219D01*
X146538629Y-107613229D01*
X146682521Y-107919667D01*
X146687500Y-107933356D01*
X146690475Y-107936605D01*
X146692379Y-107940659D01*
X146703589Y-107950925D01*
X146713851Y-107962131D01*
X146717876Y-107964009D01*
X146721154Y-107967011D01*
X146735436Y-107972204D01*
X146749209Y-107978632D01*
X146753648Y-107978827D01*
X146757823Y-107980345D01*
X146773006Y-107979677D01*
X146788189Y-107980345D01*
X146792362Y-107978827D01*
X146796804Y-107978632D01*
X146810588Y-107972199D01*
X146824858Y-107967010D01*
X146828131Y-107964012D01*
X146832161Y-107962132D01*
X146842430Y-107950917D01*
X146853633Y-107940659D01*
X146856944Y-107935068D01*
X146858513Y-107933356D01*
X146859393Y-107930934D01*
X146863624Y-107923793D01*
X147007181Y-107614251D01*
X147008260Y-108186728D01*
X147023192Y-108222776D01*
X147050782Y-108250366D01*
X147086830Y-108265298D01*
X147125848Y-108265298D01*
X147161896Y-108250366D01*
X147189486Y-108222776D01*
X147204418Y-108186728D01*
X147206339Y-108167219D01*
X147204457Y-107168484D01*
X147204513Y-107167219D01*
X147482530Y-107167219D01*
X147484451Y-108186728D01*
X147499383Y-108222776D01*
X147526973Y-108250366D01*
X147563021Y-108265298D01*
X147582530Y-108267219D01*
X147819330Y-108265453D01*
X147833132Y-108266434D01*
X147838059Y-108265313D01*
X147840134Y-108265298D01*
X147842576Y-108264286D01*
X147852248Y-108262087D01*
X147980625Y-108217678D01*
X147982992Y-108217678D01*
X147994984Y-108212710D01*
X148013005Y-108206477D01*
X148015720Y-108204122D01*
X148019040Y-108202747D01*
X148034193Y-108190310D01*
X148075744Y-108147710D01*
X148389213Y-108147710D01*
X148389213Y-108186728D01*
X148404145Y-108222776D01*
X148431735Y-108250366D01*
X148467783Y-108265298D01*
X148487292Y-108267219D01*
X149125848Y-108265298D01*
X149161896Y-108250366D01*
X149189486Y-108222776D01*
X149204418Y-108186728D01*
X149204418Y-108147710D01*
X149189486Y-108111662D01*
X149161896Y-108084072D01*
X149125848Y-108069140D01*
X149106339Y-108067219D01*
X148726786Y-108068360D01*
X149117049Y-107676280D01*
X149120032Y-107674789D01*
X149130180Y-107663087D01*
X149141867Y-107651347D01*
X149143241Y-107648028D01*
X149145597Y-107645313D01*
X149153588Y-107627413D01*
X149199494Y-107484328D01*
X149204418Y-107472442D01*
X149204909Y-107467449D01*
X149205554Y-107465441D01*
X149205366Y-107462806D01*
X149206339Y-107452933D01*
X149204982Y-107371915D01*
X149205554Y-107370202D01*
X149204769Y-107359157D01*
X149204418Y-107338186D01*
X149203042Y-107334865D01*
X149202788Y-107331282D01*
X149195782Y-107312973D01*
X149146439Y-107217939D01*
X149141867Y-107206899D01*
X149138711Y-107203053D01*
X149137720Y-107201145D01*
X149135722Y-107199412D01*
X149129430Y-107191746D01*
X149079329Y-107143814D01*
X149072412Y-107135838D01*
X149068262Y-107133225D01*
X149066658Y-107131691D01*
X149064218Y-107130680D01*
X149055822Y-107125395D01*
X148972804Y-107085456D01*
X148971420Y-107084072D01*
X148960670Y-107079619D01*
X148942276Y-107070770D01*
X148938692Y-107070515D01*
X148935372Y-107069140D01*
X148915863Y-107067219D01*
X148692907Y-107068881D01*
X148690275Y-107068004D01*
X148676169Y-107069006D01*
X148658259Y-107069140D01*
X148654938Y-107070515D01*
X148651355Y-107070770D01*
X148633046Y-107077776D01*
X148538012Y-107127118D01*
X148526972Y-107131691D01*
X148523126Y-107134846D01*
X148521218Y-107135838D01*
X148519485Y-107137835D01*
X148511819Y-107144128D01*
X148451764Y-107206900D01*
X148436832Y-107242948D01*
X148436832Y-107281966D01*
X148451764Y-107318014D01*
X148479354Y-107345604D01*
X148515402Y-107360536D01*
X148554420Y-107360536D01*
X148590468Y-107345604D01*
X148605622Y-107333168D01*
X148639188Y-107298083D01*
X148698936Y-107267061D01*
X148889799Y-107265637D01*
X148949697Y-107294453D01*
X148975474Y-107319115D01*
X149006699Y-107379254D01*
X149007605Y-107433358D01*
X148973503Y-107539652D01*
X148404145Y-108111662D01*
X148389213Y-108147710D01*
X148075744Y-108147710D01*
X148128210Y-108093920D01*
X148137720Y-108085673D01*
X148140386Y-108081437D01*
X148141868Y-108079918D01*
X148142879Y-108077476D01*
X148148163Y-108069082D01*
X148191591Y-107978810D01*
X148196758Y-107971837D01*
X148201986Y-107957202D01*
X148202788Y-107955536D01*
X148202839Y-107954815D01*
X148203353Y-107953377D01*
X148247932Y-107768064D01*
X148252037Y-107758156D01*
X148253229Y-107746046D01*
X148253840Y-107743508D01*
X148253622Y-107742049D01*
X148253958Y-107738647D01*
X148252330Y-107601073D01*
X148253840Y-107590929D01*
X148252068Y-107578950D01*
X148252037Y-107576281D01*
X148251472Y-107574917D01*
X148250972Y-107571536D01*
X148203467Y-107388456D01*
X148202788Y-107378901D01*
X148197195Y-107364285D01*
X148196758Y-107362600D01*
X148196328Y-107362020D01*
X148195782Y-107360592D01*
X148146439Y-107265558D01*
X148141867Y-107254519D01*
X148138711Y-107250674D01*
X148137720Y-107248764D01*
X148135722Y-107247031D01*
X148129431Y-107239365D01*
X148043486Y-107155536D01*
X148042481Y-107153526D01*
X148032951Y-107145260D01*
X148019039Y-107131691D01*
X148015720Y-107130316D01*
X148013005Y-107127961D01*
X147995104Y-107119970D01*
X147852024Y-107074065D01*
X147840134Y-107069140D01*
X147835140Y-107068648D01*
X147833132Y-107068004D01*
X147830498Y-107068191D01*
X147820625Y-107067219D01*
X147563021Y-107069140D01*
X147526973Y-107084072D01*
X147499383Y-107111662D01*
X147484451Y-107147710D01*
X147482530Y-107167219D01*
X147204513Y-107167219D01*
X147205180Y-107152036D01*
X147204422Y-107149952D01*
X147204418Y-107147710D01*
X147197777Y-107131679D01*
X147191846Y-107115367D01*
X147190339Y-107113721D01*
X147189486Y-107111662D01*
X147177224Y-107099400D01*
X147165494Y-107086591D01*
X147163470Y-107085646D01*
X147161896Y-107084072D01*
X147145880Y-107077437D01*
X147130137Y-107070091D01*
X147127907Y-107069993D01*
X147125848Y-107069140D01*
X147108496Y-107069140D01*
X147091156Y-107068378D01*
X147089060Y-107069140D01*
X147086830Y-107069140D01*
X147070799Y-107075780D01*
X147054487Y-107081712D01*
X147052841Y-107083218D01*
X147050782Y-107084072D01*
X147038514Y-107096339D01*
X147025712Y-107108064D01*
X147024145Y-107110708D01*
X147023192Y-107111662D01*
X147022288Y-107113843D01*
X147015721Y-107124930D01*
X146773482Y-107647249D01*
X146529036Y-107126669D01*
X146522820Y-107111662D01*
X146521254Y-107110096D01*
X146520300Y-107108064D01*
X146507503Y-107096345D01*
X146495230Y-107084072D01*
X146493168Y-107083218D01*
X146491525Y-107081713D01*
X146475223Y-107075784D01*
X146459182Y-107069140D01*
X146456951Y-107069140D01*
X146454856Y-107068378D01*
X146437516Y-107069140D01*
X146420164Y-107069140D01*
X146418104Y-107069993D01*
X146415876Y-107070091D01*
X146400145Y-107077432D01*
X146384116Y-107084072D01*
X146382539Y-107085648D01*
X146380518Y-107086592D01*
X146368799Y-107099388D01*
X146356526Y-107111662D01*
X146355672Y-107113723D01*
X146354167Y-107115367D01*
X146348238Y-107131668D01*
X146341594Y-107147710D01*
X146341292Y-107150768D01*
X146340832Y-107152036D01*
X146340935Y-107154395D01*
X146339673Y-107167219D01*
X146228562Y-107167219D01*
X146228562Y-106956108D01*
X149317450Y-106956108D01*
X149317450Y-108378330D01*
G37*
G36*
X166892212Y-109338330D02*
G01*
X165850943Y-109338330D01*
X165850943Y-108555790D01*
X165962054Y-108555790D01*
X165963681Y-108693363D01*
X165962172Y-108703508D01*
X165963943Y-108715486D01*
X165963975Y-108718156D01*
X165964539Y-108719519D01*
X165965040Y-108722901D01*
X166012544Y-108905980D01*
X166013224Y-108915536D01*
X166018815Y-108930148D01*
X166019254Y-108931837D01*
X166019684Y-108932417D01*
X166020230Y-108933844D01*
X166069566Y-109028866D01*
X166074144Y-109039918D01*
X166077302Y-109043766D01*
X166078292Y-109045672D01*
X166080286Y-109047401D01*
X166086581Y-109055071D01*
X166172526Y-109138902D01*
X166173531Y-109140912D01*
X166183055Y-109149172D01*
X166196972Y-109162747D01*
X166200291Y-109164122D01*
X166203007Y-109166477D01*
X166220907Y-109174468D01*
X166363991Y-109220374D01*
X166375878Y-109225298D01*
X166380870Y-109225789D01*
X166382879Y-109226434D01*
X166385513Y-109226246D01*
X166395387Y-109227219D01*
X166491529Y-109225609D01*
X166503132Y-109226434D01*
X166507968Y-109225334D01*
X166510134Y-109225298D01*
X166512576Y-109224286D01*
X166522248Y-109222087D01*
X166650625Y-109177678D01*
X166652992Y-109177678D01*
X166664984Y-109172710D01*
X166683005Y-109166477D01*
X166685720Y-109164122D01*
X166689040Y-109162747D01*
X166704193Y-109150310D01*
X166764249Y-109087537D01*
X166779180Y-109051488D01*
X166781101Y-109031980D01*
X166779180Y-108679138D01*
X166764248Y-108643090D01*
X166736658Y-108615500D01*
X166700610Y-108600568D01*
X166681101Y-108598647D01*
X166471116Y-108600568D01*
X166435068Y-108615500D01*
X166407478Y-108643090D01*
X166392546Y-108679138D01*
X166392546Y-108718156D01*
X166407478Y-108754204D01*
X166435068Y-108781794D01*
X166471116Y-108796726D01*
X166490625Y-108798647D01*
X166581640Y-108797814D01*
X166582688Y-108990224D01*
X166581059Y-108991927D01*
X166478448Y-109027422D01*
X166414961Y-109028485D01*
X166308221Y-108994240D01*
X166241082Y-108928752D01*
X166205461Y-108860145D01*
X166161982Y-108692580D01*
X166160576Y-108573773D01*
X166200816Y-108406500D01*
X166236738Y-108331830D01*
X166304045Y-108262824D01*
X166407384Y-108227077D01*
X166512585Y-108225832D01*
X166607069Y-108271287D01*
X166645989Y-108274053D01*
X166683005Y-108261714D01*
X166712482Y-108236149D01*
X166729931Y-108201251D01*
X166732696Y-108162331D01*
X166720358Y-108125315D01*
X166694793Y-108095838D01*
X166678203Y-108085395D01*
X166595185Y-108045456D01*
X166593801Y-108044072D01*
X166583051Y-108039619D01*
X166564657Y-108030770D01*
X166561073Y-108030515D01*
X166557753Y-108029140D01*
X166538244Y-108027219D01*
X166395583Y-108028906D01*
X166382879Y-108028004D01*
X166377993Y-108029114D01*
X166375878Y-108029140D01*
X166373436Y-108030151D01*
X166363764Y-108032351D01*
X166235390Y-108076759D01*
X166233021Y-108076759D01*
X166221024Y-108081728D01*
X166203007Y-108087961D01*
X166200291Y-108090316D01*
X166196973Y-108091691D01*
X166181819Y-108104127D01*
X166087802Y-108200516D01*
X166078292Y-108208765D01*
X166075625Y-108213001D01*
X166074145Y-108214519D01*
X166073134Y-108216958D01*
X166067849Y-108225355D01*
X166024420Y-108315626D01*
X166019254Y-108322600D01*
X166014026Y-108337232D01*
X166013224Y-108338901D01*
X166013172Y-108339623D01*
X166012659Y-108341061D01*
X165968079Y-108526371D01*
X165963975Y-108536281D01*
X165962782Y-108548390D01*
X165962172Y-108550929D01*
X165962389Y-108552387D01*
X165962054Y-108555790D01*
X165850943Y-108555790D01*
X165850943Y-107916108D01*
X166892212Y-107916108D01*
X166892212Y-109338330D01*
G37*
G36*
X160072212Y-84488330D02*
G01*
X159030943Y-84488330D01*
X159030943Y-83705790D01*
X159142054Y-83705790D01*
X159143681Y-83843363D01*
X159142172Y-83853508D01*
X159143943Y-83865486D01*
X159143975Y-83868156D01*
X159144539Y-83869519D01*
X159145040Y-83872901D01*
X159192544Y-84055980D01*
X159193224Y-84065536D01*
X159198815Y-84080148D01*
X159199254Y-84081837D01*
X159199684Y-84082417D01*
X159200230Y-84083844D01*
X159249566Y-84178866D01*
X159254144Y-84189918D01*
X159257302Y-84193766D01*
X159258292Y-84195672D01*
X159260286Y-84197401D01*
X159266581Y-84205071D01*
X159352526Y-84288902D01*
X159353531Y-84290912D01*
X159363055Y-84299172D01*
X159376972Y-84312747D01*
X159380291Y-84314122D01*
X159383007Y-84316477D01*
X159400907Y-84324468D01*
X159543991Y-84370374D01*
X159555878Y-84375298D01*
X159560870Y-84375789D01*
X159562879Y-84376434D01*
X159565513Y-84376246D01*
X159575387Y-84377219D01*
X159671529Y-84375609D01*
X159683132Y-84376434D01*
X159687968Y-84375334D01*
X159690134Y-84375298D01*
X159692576Y-84374286D01*
X159702248Y-84372087D01*
X159830625Y-84327678D01*
X159832992Y-84327678D01*
X159844984Y-84322710D01*
X159863005Y-84316477D01*
X159865720Y-84314122D01*
X159869040Y-84312747D01*
X159884193Y-84300310D01*
X159944249Y-84237537D01*
X159959180Y-84201488D01*
X159961101Y-84181980D01*
X159959180Y-83829138D01*
X159944248Y-83793090D01*
X159916658Y-83765500D01*
X159880610Y-83750568D01*
X159861101Y-83748647D01*
X159651116Y-83750568D01*
X159615068Y-83765500D01*
X159587478Y-83793090D01*
X159572546Y-83829138D01*
X159572546Y-83868156D01*
X159587478Y-83904204D01*
X159615068Y-83931794D01*
X159651116Y-83946726D01*
X159670625Y-83948647D01*
X159761640Y-83947814D01*
X159762688Y-84140224D01*
X159761059Y-84141927D01*
X159658448Y-84177422D01*
X159594961Y-84178485D01*
X159488221Y-84144240D01*
X159421082Y-84078752D01*
X159385461Y-84010145D01*
X159341982Y-83842580D01*
X159340576Y-83723773D01*
X159380816Y-83556500D01*
X159416738Y-83481830D01*
X159484045Y-83412824D01*
X159587384Y-83377077D01*
X159692585Y-83375832D01*
X159787069Y-83421287D01*
X159825989Y-83424053D01*
X159863005Y-83411714D01*
X159892482Y-83386149D01*
X159909931Y-83351251D01*
X159912696Y-83312331D01*
X159900358Y-83275315D01*
X159874793Y-83245838D01*
X159858203Y-83235395D01*
X159775185Y-83195456D01*
X159773801Y-83194072D01*
X159763051Y-83189619D01*
X159744657Y-83180770D01*
X159741073Y-83180515D01*
X159737753Y-83179140D01*
X159718244Y-83177219D01*
X159575583Y-83178906D01*
X159562879Y-83178004D01*
X159557993Y-83179114D01*
X159555878Y-83179140D01*
X159553436Y-83180151D01*
X159543764Y-83182351D01*
X159415390Y-83226759D01*
X159413021Y-83226759D01*
X159401024Y-83231728D01*
X159383007Y-83237961D01*
X159380291Y-83240316D01*
X159376973Y-83241691D01*
X159361819Y-83254127D01*
X159267802Y-83350516D01*
X159258292Y-83358765D01*
X159255625Y-83363001D01*
X159254145Y-83364519D01*
X159253134Y-83366958D01*
X159247849Y-83375355D01*
X159204420Y-83465626D01*
X159199254Y-83472600D01*
X159194026Y-83487232D01*
X159193224Y-83488901D01*
X159193172Y-83489623D01*
X159192659Y-83491061D01*
X159148079Y-83676371D01*
X159143975Y-83686281D01*
X159142782Y-83698390D01*
X159142172Y-83700929D01*
X159142389Y-83702387D01*
X159142054Y-83705790D01*
X159030943Y-83705790D01*
X159030943Y-83066108D01*
X160072212Y-83066108D01*
X160072212Y-84488330D01*
G37*
G36*
X177240774Y-93957946D02*
G01*
X175211282Y-93957946D01*
X175211282Y-92814627D01*
X175377949Y-92814627D01*
X175377949Y-92853645D01*
X175392881Y-92889693D01*
X175420471Y-92917283D01*
X175456519Y-92932215D01*
X175476028Y-92934136D01*
X176090531Y-92933359D01*
X176091975Y-93592396D01*
X175456519Y-93593200D01*
X175420471Y-93608132D01*
X175392881Y-93635722D01*
X175377949Y-93671770D01*
X175377949Y-93710788D01*
X175392881Y-93746836D01*
X175420471Y-93774426D01*
X175456519Y-93789358D01*
X175476028Y-93791279D01*
X176995537Y-93789358D01*
X177031585Y-93774426D01*
X177059175Y-93746836D01*
X177074107Y-93710788D01*
X177074107Y-93671770D01*
X177059175Y-93635722D01*
X177031585Y-93608132D01*
X176995537Y-93593200D01*
X176976028Y-93591279D01*
X176290096Y-93592146D01*
X176288652Y-92933108D01*
X176995537Y-92932215D01*
X177031585Y-92917283D01*
X177059175Y-92889693D01*
X177074107Y-92853645D01*
X177074107Y-92814627D01*
X177059175Y-92778579D01*
X177031585Y-92750989D01*
X176995537Y-92736057D01*
X176976028Y-92734136D01*
X175456519Y-92736057D01*
X175420471Y-92750989D01*
X175392881Y-92778579D01*
X175377949Y-92814627D01*
X175211282Y-92814627D01*
X175211282Y-92567469D01*
X177240774Y-92567469D01*
X177240774Y-93957946D01*
G37*
G36*
X147780838Y-83802036D02*
G01*
X147579532Y-83802816D01*
X147679715Y-83500465D01*
X147780838Y-83802036D01*
G37*
G36*
X148223808Y-84397545D02*
G01*
X147136490Y-84397545D01*
X147136490Y-84174712D01*
X147247601Y-84174712D01*
X147250367Y-84213632D01*
X147267817Y-84248531D01*
X147297293Y-84274096D01*
X147334309Y-84286434D01*
X147373229Y-84283668D01*
X147408128Y-84266218D01*
X147433693Y-84236742D01*
X147441684Y-84218842D01*
X147513790Y-84001225D01*
X147847198Y-83999933D01*
X147926605Y-84236742D01*
X147952170Y-84266218D01*
X147987069Y-84283667D01*
X148025989Y-84286434D01*
X148063005Y-84274095D01*
X148092481Y-84248530D01*
X148109931Y-84213631D01*
X148112697Y-84174711D01*
X148108350Y-84155596D01*
X147777088Y-83167703D01*
X147776598Y-83160807D01*
X147771065Y-83149741D01*
X147767026Y-83137696D01*
X147762341Y-83132294D01*
X147759148Y-83125908D01*
X147749679Y-83117695D01*
X147741461Y-83108220D01*
X147735069Y-83105023D01*
X147729672Y-83100343D01*
X147717778Y-83096378D01*
X147706562Y-83090770D01*
X147699434Y-83090263D01*
X147692656Y-83088004D01*
X147680151Y-83088893D01*
X147667642Y-83088004D01*
X147660860Y-83090264D01*
X147653736Y-83090771D01*
X147642527Y-83096374D01*
X147630626Y-83100342D01*
X147625225Y-83105025D01*
X147618837Y-83108220D01*
X147610621Y-83117691D01*
X147601150Y-83125907D01*
X147597955Y-83132296D01*
X147593272Y-83137696D01*
X147585281Y-83155597D01*
X147347057Y-83874554D01*
X147343975Y-83881995D01*
X147343975Y-83883856D01*
X147247601Y-84174712D01*
X147136490Y-84174712D01*
X147136490Y-82976893D01*
X148223808Y-82976893D01*
X148223808Y-84397545D01*
G37*
G36*
X151912212Y-109458330D02*
G01*
X150870943Y-109458330D01*
X150870943Y-108675790D01*
X150982054Y-108675790D01*
X150983681Y-108813363D01*
X150982172Y-108823508D01*
X150983943Y-108835486D01*
X150983975Y-108838156D01*
X150984539Y-108839519D01*
X150985040Y-108842901D01*
X151032544Y-109025980D01*
X151033224Y-109035536D01*
X151038815Y-109050148D01*
X151039254Y-109051837D01*
X151039684Y-109052417D01*
X151040230Y-109053844D01*
X151089566Y-109148866D01*
X151094144Y-109159918D01*
X151097302Y-109163766D01*
X151098292Y-109165672D01*
X151100286Y-109167401D01*
X151106581Y-109175071D01*
X151192526Y-109258902D01*
X151193531Y-109260912D01*
X151203055Y-109269172D01*
X151216972Y-109282747D01*
X151220291Y-109284122D01*
X151223007Y-109286477D01*
X151240907Y-109294468D01*
X151383991Y-109340374D01*
X151395878Y-109345298D01*
X151400870Y-109345789D01*
X151402879Y-109346434D01*
X151405513Y-109346246D01*
X151415387Y-109347219D01*
X151511529Y-109345609D01*
X151523132Y-109346434D01*
X151527968Y-109345334D01*
X151530134Y-109345298D01*
X151532576Y-109344286D01*
X151542248Y-109342087D01*
X151670625Y-109297678D01*
X151672992Y-109297678D01*
X151684984Y-109292710D01*
X151703005Y-109286477D01*
X151705720Y-109284122D01*
X151709040Y-109282747D01*
X151724193Y-109270310D01*
X151784249Y-109207537D01*
X151799180Y-109171488D01*
X151801101Y-109151980D01*
X151799180Y-108799138D01*
X151784248Y-108763090D01*
X151756658Y-108735500D01*
X151720610Y-108720568D01*
X151701101Y-108718647D01*
X151491116Y-108720568D01*
X151455068Y-108735500D01*
X151427478Y-108763090D01*
X151412546Y-108799138D01*
X151412546Y-108838156D01*
X151427478Y-108874204D01*
X151455068Y-108901794D01*
X151491116Y-108916726D01*
X151510625Y-108918647D01*
X151601640Y-108917814D01*
X151602688Y-109110224D01*
X151601059Y-109111927D01*
X151498448Y-109147422D01*
X151434961Y-109148485D01*
X151328221Y-109114240D01*
X151261082Y-109048752D01*
X151225461Y-108980145D01*
X151181982Y-108812580D01*
X151180576Y-108693773D01*
X151220816Y-108526500D01*
X151256738Y-108451830D01*
X151324045Y-108382824D01*
X151427384Y-108347077D01*
X151532585Y-108345832D01*
X151627069Y-108391287D01*
X151665989Y-108394053D01*
X151703005Y-108381714D01*
X151732482Y-108356149D01*
X151749931Y-108321251D01*
X151752696Y-108282331D01*
X151740358Y-108245315D01*
X151714793Y-108215838D01*
X151698203Y-108205395D01*
X151615185Y-108165456D01*
X151613801Y-108164072D01*
X151603051Y-108159619D01*
X151584657Y-108150770D01*
X151581073Y-108150515D01*
X151577753Y-108149140D01*
X151558244Y-108147219D01*
X151415583Y-108148906D01*
X151402879Y-108148004D01*
X151397993Y-108149114D01*
X151395878Y-108149140D01*
X151393436Y-108150151D01*
X151383764Y-108152351D01*
X151255390Y-108196759D01*
X151253021Y-108196759D01*
X151241024Y-108201728D01*
X151223007Y-108207961D01*
X151220291Y-108210316D01*
X151216973Y-108211691D01*
X151201819Y-108224127D01*
X151107802Y-108320516D01*
X151098292Y-108328765D01*
X151095625Y-108333001D01*
X151094145Y-108334519D01*
X151093134Y-108336958D01*
X151087849Y-108345355D01*
X151044420Y-108435626D01*
X151039254Y-108442600D01*
X151034026Y-108457232D01*
X151033224Y-108458901D01*
X151033172Y-108459623D01*
X151032659Y-108461061D01*
X150988079Y-108646371D01*
X150983975Y-108656281D01*
X150982782Y-108668390D01*
X150982172Y-108670929D01*
X150982389Y-108672387D01*
X150982054Y-108675790D01*
X150870943Y-108675790D01*
X150870943Y-108036108D01*
X151912212Y-108036108D01*
X151912212Y-109458330D01*
G37*
G36*
X152840611Y-83806529D02*
G01*
X152860236Y-83825305D01*
X152891353Y-83885236D01*
X152892487Y-83981083D01*
X152863866Y-84040576D01*
X152839204Y-84066354D01*
X152779564Y-84097320D01*
X152519487Y-84098567D01*
X152518873Y-83772868D01*
X152732077Y-83771708D01*
X152840611Y-83806529D01*
G37*
G36*
X152786840Y-83324453D02*
G01*
X152812617Y-83349115D01*
X152843842Y-83409254D01*
X152844654Y-83457719D01*
X152816246Y-83516769D01*
X152791588Y-83542542D01*
X152731919Y-83573523D01*
X152518499Y-83574685D01*
X152517976Y-83296683D01*
X152726754Y-83295547D01*
X152786840Y-83324453D01*
G37*
G36*
X153202212Y-84408330D02*
G01*
X152208562Y-84408330D01*
X152208562Y-83197219D01*
X152319673Y-83197219D01*
X152321594Y-84216728D01*
X152336526Y-84252776D01*
X152364116Y-84280366D01*
X152400164Y-84295298D01*
X152419673Y-84297219D01*
X152785212Y-84295465D01*
X152788118Y-84296434D01*
X152802942Y-84295380D01*
X152820134Y-84295298D01*
X152823454Y-84293922D01*
X152827038Y-84293668D01*
X152845346Y-84286662D01*
X152940374Y-84237322D01*
X152951421Y-84232747D01*
X152955267Y-84229589D01*
X152957174Y-84228600D01*
X152958904Y-84226605D01*
X152966574Y-84220310D01*
X153014507Y-84170207D01*
X153022482Y-84163292D01*
X153025093Y-84159142D01*
X153026630Y-84157537D01*
X153027641Y-84155095D01*
X153032925Y-84146701D01*
X153072863Y-84063683D01*
X153074248Y-84062299D01*
X153078700Y-84051549D01*
X153087550Y-84033155D01*
X153087804Y-84029571D01*
X153089180Y-84026251D01*
X153091101Y-84006742D01*
X153089584Y-83878585D01*
X153090316Y-83876392D01*
X153089407Y-83863609D01*
X153089180Y-83844376D01*
X153087804Y-83841055D01*
X153087550Y-83837472D01*
X153080544Y-83819163D01*
X153031201Y-83724129D01*
X153026629Y-83713089D01*
X153023473Y-83709243D01*
X153022482Y-83707335D01*
X153020484Y-83705602D01*
X153014192Y-83697936D01*
X152975429Y-83660851D01*
X152974862Y-83659716D01*
X152968236Y-83653969D01*
X152963751Y-83649678D01*
X152966888Y-83646398D01*
X152974863Y-83639483D01*
X152977474Y-83635333D01*
X152979010Y-83633729D01*
X152980020Y-83631288D01*
X152985306Y-83622892D01*
X153025244Y-83539874D01*
X153026629Y-83538490D01*
X153031081Y-83527740D01*
X153039931Y-83509346D01*
X153040185Y-83505762D01*
X153041561Y-83502442D01*
X153043482Y-83482933D01*
X153042125Y-83401915D01*
X153042697Y-83400202D01*
X153041912Y-83389157D01*
X153041561Y-83368186D01*
X153040185Y-83364865D01*
X153039931Y-83361282D01*
X153032925Y-83342973D01*
X152983582Y-83247939D01*
X152979010Y-83236899D01*
X152975854Y-83233053D01*
X152974863Y-83231145D01*
X152972865Y-83229412D01*
X152966573Y-83221746D01*
X152916472Y-83173814D01*
X152909555Y-83165838D01*
X152905405Y-83163225D01*
X152903801Y-83161691D01*
X152901361Y-83160680D01*
X152892965Y-83155395D01*
X152809947Y-83115456D01*
X152808563Y-83114072D01*
X152797813Y-83109619D01*
X152779419Y-83100770D01*
X152775835Y-83100515D01*
X152772515Y-83099140D01*
X152753006Y-83097219D01*
X152400164Y-83099140D01*
X152364116Y-83114072D01*
X152336526Y-83141662D01*
X152321594Y-83177710D01*
X152319673Y-83197219D01*
X152208562Y-83197219D01*
X152208562Y-82986108D01*
X153202212Y-82986108D01*
X153202212Y-84408330D01*
G37*
G36*
X164570838Y-83922036D02*
G01*
X164369532Y-83922816D01*
X164469715Y-83620465D01*
X164570838Y-83922036D01*
G37*
G36*
X165013808Y-84517545D02*
G01*
X163926490Y-84517545D01*
X163926490Y-84294712D01*
X164037601Y-84294712D01*
X164040367Y-84333632D01*
X164057817Y-84368531D01*
X164087293Y-84394096D01*
X164124309Y-84406434D01*
X164163229Y-84403668D01*
X164198128Y-84386218D01*
X164223693Y-84356742D01*
X164231684Y-84338842D01*
X164303790Y-84121225D01*
X164637198Y-84119933D01*
X164716605Y-84356742D01*
X164742170Y-84386218D01*
X164777069Y-84403667D01*
X164815989Y-84406434D01*
X164853005Y-84394095D01*
X164882481Y-84368530D01*
X164899931Y-84333631D01*
X164902697Y-84294711D01*
X164898350Y-84275596D01*
X164567088Y-83287703D01*
X164566598Y-83280807D01*
X164561065Y-83269741D01*
X164557026Y-83257696D01*
X164552341Y-83252294D01*
X164549148Y-83245908D01*
X164539679Y-83237695D01*
X164531461Y-83228220D01*
X164525069Y-83225023D01*
X164519672Y-83220343D01*
X164507778Y-83216378D01*
X164496562Y-83210770D01*
X164489434Y-83210263D01*
X164482656Y-83208004D01*
X164470151Y-83208893D01*
X164457642Y-83208004D01*
X164450860Y-83210264D01*
X164443736Y-83210771D01*
X164432527Y-83216374D01*
X164420626Y-83220342D01*
X164415225Y-83225025D01*
X164408837Y-83228220D01*
X164400621Y-83237691D01*
X164391150Y-83245907D01*
X164387955Y-83252296D01*
X164383272Y-83257696D01*
X164375281Y-83275597D01*
X164137057Y-83994554D01*
X164133975Y-84001995D01*
X164133975Y-84003856D01*
X164037601Y-84294712D01*
X163926490Y-84294712D01*
X163926490Y-83096893D01*
X165013808Y-83096893D01*
X165013808Y-84517545D01*
G37*
G36*
X162492212Y-84528330D02*
G01*
X161403324Y-84528330D01*
X161403324Y-83317114D01*
X161514435Y-83317114D01*
X161522007Y-83355391D01*
X161531230Y-83372689D01*
X161828719Y-83817406D01*
X161522007Y-84279047D01*
X161514435Y-84317324D01*
X161522087Y-84355584D01*
X161543798Y-84388004D01*
X161576263Y-84409647D01*
X161614540Y-84417219D01*
X161652800Y-84409567D01*
X161685220Y-84387856D01*
X161697640Y-84372689D01*
X161948048Y-83995792D01*
X162210316Y-84387856D01*
X162242736Y-84409567D01*
X162280996Y-84417219D01*
X162319273Y-84409647D01*
X162351738Y-84388004D01*
X162373449Y-84355584D01*
X162381101Y-84317324D01*
X162373529Y-84279047D01*
X162364306Y-84261749D01*
X162066816Y-83817031D01*
X162373529Y-83355391D01*
X162381101Y-83317114D01*
X162373449Y-83278854D01*
X162351738Y-83246434D01*
X162319273Y-83224791D01*
X162280996Y-83217219D01*
X162242736Y-83224871D01*
X162210316Y-83246582D01*
X162197896Y-83261749D01*
X161947487Y-83638645D01*
X161685220Y-83246582D01*
X161652800Y-83224871D01*
X161614540Y-83217219D01*
X161576263Y-83224791D01*
X161543798Y-83246434D01*
X161522087Y-83278854D01*
X161514435Y-83317114D01*
X161403324Y-83317114D01*
X161403324Y-83106108D01*
X162492212Y-83106108D01*
X162492212Y-84528330D01*
G37*
G36*
X163067789Y-107160198D02*
G01*
X163134930Y-107225685D01*
X163170550Y-107294289D01*
X163214029Y-107461856D01*
X163215435Y-107580664D01*
X163175195Y-107747936D01*
X163139273Y-107822606D01*
X163071964Y-107891614D01*
X162968782Y-107927307D01*
X162842343Y-107928250D01*
X162840832Y-107126485D01*
X162959944Y-107125597D01*
X163067789Y-107160198D01*
G37*
G36*
X164475529Y-108238330D02*
G01*
X161388562Y-108238330D01*
X161388562Y-107027219D01*
X161499673Y-107027219D01*
X161501594Y-108046728D01*
X161516526Y-108082776D01*
X161544116Y-108110366D01*
X161580164Y-108125298D01*
X161619182Y-108125298D01*
X161655230Y-108110366D01*
X161682820Y-108082776D01*
X161697752Y-108046728D01*
X161699673Y-108027219D01*
X161698629Y-107473229D01*
X161842521Y-107779667D01*
X161847500Y-107793356D01*
X161850475Y-107796605D01*
X161852379Y-107800659D01*
X161863589Y-107810925D01*
X161873851Y-107822131D01*
X161877876Y-107824009D01*
X161881154Y-107827011D01*
X161895436Y-107832204D01*
X161909209Y-107838632D01*
X161913648Y-107838827D01*
X161917823Y-107840345D01*
X161933006Y-107839677D01*
X161948189Y-107840345D01*
X161952362Y-107838827D01*
X161956804Y-107838632D01*
X161970588Y-107832199D01*
X161984858Y-107827010D01*
X161988131Y-107824012D01*
X161992161Y-107822132D01*
X162002430Y-107810917D01*
X162013633Y-107800659D01*
X162016944Y-107795068D01*
X162018513Y-107793356D01*
X162019393Y-107790934D01*
X162023624Y-107783793D01*
X162167181Y-107474251D01*
X162168260Y-108046728D01*
X162183192Y-108082776D01*
X162210782Y-108110366D01*
X162246830Y-108125298D01*
X162285848Y-108125298D01*
X162321896Y-108110366D01*
X162349486Y-108082776D01*
X162364418Y-108046728D01*
X162366339Y-108027219D01*
X162364457Y-107028484D01*
X162364513Y-107027219D01*
X162642530Y-107027219D01*
X162644451Y-108046728D01*
X162659383Y-108082776D01*
X162686973Y-108110366D01*
X162723021Y-108125298D01*
X162742530Y-108127219D01*
X162979330Y-108125453D01*
X162993132Y-108126434D01*
X162998059Y-108125313D01*
X163000134Y-108125298D01*
X163002576Y-108124286D01*
X163012248Y-108122087D01*
X163140625Y-108077678D01*
X163142992Y-108077678D01*
X163154984Y-108072710D01*
X163173005Y-108066477D01*
X163175720Y-108064122D01*
X163179040Y-108062747D01*
X163194193Y-108050310D01*
X163288210Y-107953920D01*
X163297720Y-107945673D01*
X163300386Y-107941437D01*
X163301868Y-107939918D01*
X163302879Y-107937476D01*
X163308163Y-107929082D01*
X163351591Y-107838810D01*
X163356758Y-107831837D01*
X163361986Y-107817202D01*
X163362788Y-107815536D01*
X163362839Y-107814815D01*
X163363353Y-107813377D01*
X163407932Y-107628064D01*
X163412037Y-107618156D01*
X163413229Y-107606046D01*
X163413840Y-107603508D01*
X163413622Y-107602049D01*
X163413958Y-107598647D01*
X163412330Y-107461073D01*
X163413840Y-107450929D01*
X163412068Y-107438950D01*
X163412037Y-107436281D01*
X163411472Y-107434917D01*
X163410972Y-107431536D01*
X163376952Y-107300426D01*
X163595696Y-107300426D01*
X163598462Y-107339346D01*
X163615911Y-107374245D01*
X163645388Y-107399809D01*
X163682404Y-107412148D01*
X163721324Y-107409382D01*
X163739632Y-107402376D01*
X163834661Y-107353035D01*
X163845706Y-107348461D01*
X163849552Y-107345304D01*
X163851460Y-107344314D01*
X163853189Y-107342319D01*
X163860860Y-107336025D01*
X163881167Y-107315204D01*
X163882323Y-107928467D01*
X163675402Y-107929140D01*
X163639354Y-107944072D01*
X163611764Y-107971662D01*
X163596832Y-108007710D01*
X163596832Y-108046728D01*
X163611764Y-108082776D01*
X163639354Y-108110366D01*
X163675402Y-108125298D01*
X163694911Y-108127219D01*
X164285848Y-108125298D01*
X164321896Y-108110366D01*
X164349486Y-108082776D01*
X164364418Y-108046728D01*
X164364418Y-108007710D01*
X164349486Y-107971662D01*
X164321896Y-107944072D01*
X164285848Y-107929140D01*
X164266339Y-107927219D01*
X164080437Y-107927823D01*
X164078758Y-107036550D01*
X164080625Y-107027114D01*
X164078722Y-107017602D01*
X164078704Y-107007710D01*
X164074914Y-106998561D01*
X164072973Y-106988854D01*
X164067521Y-106980713D01*
X164063772Y-106971662D01*
X164056772Y-106964662D01*
X164051262Y-106956434D01*
X164043107Y-106950997D01*
X164036182Y-106944072D01*
X164027038Y-106940284D01*
X164018797Y-106934790D01*
X164009183Y-106932888D01*
X164000134Y-106929140D01*
X163990233Y-106929140D01*
X163980521Y-106927219D01*
X163970916Y-106929140D01*
X163961116Y-106929140D01*
X163951967Y-106932929D01*
X163942260Y-106934871D01*
X163934119Y-106940322D01*
X163925068Y-106944072D01*
X163918068Y-106951071D01*
X163909840Y-106956582D01*
X163897551Y-106971588D01*
X163897478Y-106971662D01*
X163897464Y-106971694D01*
X163897420Y-106971749D01*
X163813186Y-107100892D01*
X163734540Y-107181523D01*
X163633599Y-107233933D01*
X163608035Y-107263410D01*
X163595696Y-107300426D01*
X163376952Y-107300426D01*
X163363467Y-107248456D01*
X163362788Y-107238901D01*
X163357195Y-107224285D01*
X163356758Y-107222600D01*
X163356328Y-107222020D01*
X163355782Y-107220592D01*
X163306439Y-107125558D01*
X163301867Y-107114519D01*
X163298711Y-107110674D01*
X163297720Y-107108764D01*
X163295722Y-107107031D01*
X163289431Y-107099365D01*
X163203486Y-107015536D01*
X163202481Y-107013526D01*
X163192951Y-107005260D01*
X163179039Y-106991691D01*
X163175720Y-106990316D01*
X163173005Y-106987961D01*
X163155104Y-106979970D01*
X163012024Y-106934065D01*
X163000134Y-106929140D01*
X162995140Y-106928648D01*
X162993132Y-106928004D01*
X162990498Y-106928191D01*
X162980625Y-106927219D01*
X162723021Y-106929140D01*
X162686973Y-106944072D01*
X162659383Y-106971662D01*
X162644451Y-107007710D01*
X162642530Y-107027219D01*
X162364513Y-107027219D01*
X162365180Y-107012036D01*
X162364422Y-107009952D01*
X162364418Y-107007710D01*
X162357777Y-106991679D01*
X162351846Y-106975367D01*
X162350339Y-106973721D01*
X162349486Y-106971662D01*
X162337224Y-106959400D01*
X162325494Y-106946591D01*
X162323470Y-106945646D01*
X162321896Y-106944072D01*
X162305880Y-106937437D01*
X162290137Y-106930091D01*
X162287907Y-106929993D01*
X162285848Y-106929140D01*
X162268496Y-106929140D01*
X162251156Y-106928378D01*
X162249060Y-106929140D01*
X162246830Y-106929140D01*
X162230799Y-106935780D01*
X162214487Y-106941712D01*
X162212841Y-106943218D01*
X162210782Y-106944072D01*
X162198514Y-106956339D01*
X162185712Y-106968064D01*
X162184145Y-106970708D01*
X162183192Y-106971662D01*
X162182288Y-106973843D01*
X162175721Y-106984930D01*
X161933482Y-107507249D01*
X161689036Y-106986669D01*
X161682820Y-106971662D01*
X161681254Y-106970096D01*
X161680300Y-106968064D01*
X161667503Y-106956345D01*
X161655230Y-106944072D01*
X161653168Y-106943218D01*
X161651525Y-106941713D01*
X161635223Y-106935784D01*
X161619182Y-106929140D01*
X161616951Y-106929140D01*
X161614856Y-106928378D01*
X161597516Y-106929140D01*
X161580164Y-106929140D01*
X161578104Y-106929993D01*
X161575876Y-106930091D01*
X161560145Y-106937432D01*
X161544116Y-106944072D01*
X161542539Y-106945648D01*
X161540518Y-106946592D01*
X161528799Y-106959388D01*
X161516526Y-106971662D01*
X161515672Y-106973723D01*
X161514167Y-106975367D01*
X161508238Y-106991668D01*
X161501594Y-107007710D01*
X161501292Y-107010768D01*
X161500832Y-107012036D01*
X161500935Y-107014395D01*
X161499673Y-107027219D01*
X161388562Y-107027219D01*
X161388562Y-106816108D01*
X164475529Y-106816108D01*
X164475529Y-108238330D01*
G37*
G36*
X166395053Y-86478330D02*
G01*
X163498562Y-86478330D01*
X163498562Y-85267219D01*
X163609673Y-85267219D01*
X163611594Y-86286728D01*
X163626526Y-86322776D01*
X163654116Y-86350366D01*
X163690164Y-86365298D01*
X163709673Y-86367219D01*
X164205372Y-86365298D01*
X164241420Y-86350366D01*
X164269010Y-86322776D01*
X164283942Y-86286728D01*
X164283942Y-86247710D01*
X164269010Y-86211662D01*
X164241420Y-86184072D01*
X164205372Y-86169140D01*
X164185863Y-86167219D01*
X163809487Y-86168677D01*
X163808873Y-85842868D01*
X164062515Y-85841488D01*
X164098563Y-85826556D01*
X164126153Y-85798966D01*
X164141085Y-85762918D01*
X164141085Y-85723900D01*
X164126153Y-85687852D01*
X164098563Y-85660262D01*
X164062515Y-85645330D01*
X164043006Y-85643409D01*
X163808499Y-85644685D01*
X163807976Y-85366838D01*
X164205372Y-85365298D01*
X164241420Y-85350366D01*
X164269010Y-85322776D01*
X164283942Y-85286728D01*
X164283942Y-85267219D01*
X164514435Y-85267219D01*
X164516356Y-86286728D01*
X164531288Y-86322776D01*
X164558878Y-86350366D01*
X164594926Y-86365298D01*
X164633944Y-86365298D01*
X164669992Y-86350366D01*
X164697582Y-86322776D01*
X164712514Y-86286728D01*
X164714435Y-86267219D01*
X164713254Y-85640475D01*
X165097752Y-86310793D01*
X165102716Y-86322776D01*
X165107195Y-86327255D01*
X165110386Y-86332818D01*
X165120902Y-86340962D01*
X165130306Y-86350366D01*
X165136193Y-86352804D01*
X165141235Y-86356709D01*
X165154067Y-86360208D01*
X165166354Y-86365298D01*
X165172730Y-86365298D01*
X165178879Y-86366975D01*
X165192072Y-86365298D01*
X165205372Y-86365298D01*
X165211260Y-86362858D01*
X165217585Y-86362055D01*
X165229134Y-86355454D01*
X165241420Y-86350366D01*
X165245927Y-86345858D01*
X165251462Y-86342696D01*
X165259606Y-86332179D01*
X165269010Y-86322776D01*
X165271448Y-86316888D01*
X165275353Y-86311847D01*
X165278852Y-86299014D01*
X165283942Y-86286728D01*
X165284924Y-86276750D01*
X165285619Y-86274204D01*
X165285368Y-86272236D01*
X165285863Y-86267219D01*
X165284494Y-85540426D01*
X165515220Y-85540426D01*
X165517986Y-85579346D01*
X165535435Y-85614245D01*
X165564912Y-85639809D01*
X165601928Y-85652148D01*
X165640848Y-85649382D01*
X165659156Y-85642376D01*
X165754185Y-85593035D01*
X165765230Y-85588461D01*
X165769076Y-85585304D01*
X165770984Y-85584314D01*
X165772713Y-85582319D01*
X165780384Y-85576025D01*
X165800691Y-85555204D01*
X165801847Y-86168467D01*
X165594926Y-86169140D01*
X165558878Y-86184072D01*
X165531288Y-86211662D01*
X165516356Y-86247710D01*
X165516356Y-86286728D01*
X165531288Y-86322776D01*
X165558878Y-86350366D01*
X165594926Y-86365298D01*
X165614435Y-86367219D01*
X166205372Y-86365298D01*
X166241420Y-86350366D01*
X166269010Y-86322776D01*
X166283942Y-86286728D01*
X166283942Y-86247710D01*
X166269010Y-86211662D01*
X166241420Y-86184072D01*
X166205372Y-86169140D01*
X166185863Y-86167219D01*
X165999961Y-86167823D01*
X165998282Y-85276550D01*
X166000149Y-85267114D01*
X165998246Y-85257602D01*
X165998228Y-85247710D01*
X165994438Y-85238561D01*
X165992497Y-85228854D01*
X165987045Y-85220713D01*
X165983296Y-85211662D01*
X165976296Y-85204662D01*
X165970786Y-85196434D01*
X165962631Y-85190997D01*
X165955706Y-85184072D01*
X165946562Y-85180284D01*
X165938321Y-85174790D01*
X165928707Y-85172888D01*
X165919658Y-85169140D01*
X165909757Y-85169140D01*
X165900045Y-85167219D01*
X165890440Y-85169140D01*
X165880640Y-85169140D01*
X165871491Y-85172929D01*
X165861784Y-85174871D01*
X165853643Y-85180322D01*
X165844592Y-85184072D01*
X165837592Y-85191071D01*
X165829364Y-85196582D01*
X165817075Y-85211588D01*
X165817002Y-85211662D01*
X165816988Y-85211694D01*
X165816944Y-85211749D01*
X165732710Y-85340892D01*
X165654064Y-85421523D01*
X165553123Y-85473933D01*
X165527559Y-85503410D01*
X165515220Y-85540426D01*
X165284494Y-85540426D01*
X165283942Y-85247710D01*
X165269010Y-85211662D01*
X165241420Y-85184072D01*
X165205372Y-85169140D01*
X165166354Y-85169140D01*
X165130306Y-85184072D01*
X165102716Y-85211662D01*
X165087784Y-85247710D01*
X165085863Y-85267219D01*
X165087043Y-85893962D01*
X164702545Y-85223644D01*
X164697582Y-85211662D01*
X164693102Y-85207182D01*
X164689912Y-85201620D01*
X164679397Y-85193477D01*
X164669992Y-85184072D01*
X164664101Y-85181632D01*
X164659063Y-85177730D01*
X164646234Y-85174231D01*
X164633944Y-85169140D01*
X164627569Y-85169140D01*
X164621420Y-85167463D01*
X164608227Y-85169140D01*
X164594926Y-85169140D01*
X164589037Y-85171579D01*
X164582713Y-85172383D01*
X164571163Y-85178983D01*
X164558878Y-85184072D01*
X164554370Y-85188579D01*
X164548836Y-85191742D01*
X164540693Y-85202256D01*
X164531288Y-85211662D01*
X164528848Y-85217552D01*
X164524946Y-85222591D01*
X164521447Y-85235419D01*
X164516356Y-85247710D01*
X164515373Y-85257687D01*
X164514679Y-85260234D01*
X164514929Y-85262201D01*
X164514435Y-85267219D01*
X164283942Y-85267219D01*
X164283942Y-85247710D01*
X164269010Y-85211662D01*
X164241420Y-85184072D01*
X164205372Y-85169140D01*
X164185863Y-85167219D01*
X163690164Y-85169140D01*
X163654116Y-85184072D01*
X163626526Y-85211662D01*
X163611594Y-85247710D01*
X163609673Y-85267219D01*
X163498562Y-85267219D01*
X163498562Y-85056108D01*
X166395053Y-85056108D01*
X166395053Y-86478330D01*
G37*
G36*
X148763015Y-86473330D02*
G01*
X145864603Y-86473330D01*
X145864603Y-85262219D01*
X145975714Y-85262219D01*
X145977635Y-86281728D01*
X145992567Y-86317776D01*
X146020157Y-86345366D01*
X146056205Y-86360298D01*
X146075714Y-86362219D01*
X146571413Y-86360298D01*
X146607461Y-86345366D01*
X146635051Y-86317776D01*
X146649983Y-86281728D01*
X146649983Y-86242710D01*
X146635051Y-86206662D01*
X146607461Y-86179072D01*
X146571413Y-86164140D01*
X146551904Y-86162219D01*
X146175528Y-86163677D01*
X146174914Y-85837868D01*
X146428556Y-85836488D01*
X146464604Y-85821556D01*
X146492194Y-85793966D01*
X146507126Y-85757918D01*
X146507126Y-85718900D01*
X146492194Y-85682852D01*
X146464604Y-85655262D01*
X146428556Y-85640330D01*
X146409047Y-85638409D01*
X146174540Y-85639685D01*
X146174017Y-85361838D01*
X146571413Y-85360298D01*
X146607461Y-85345366D01*
X146635051Y-85317776D01*
X146649983Y-85281728D01*
X146649983Y-85262219D01*
X146880476Y-85262219D01*
X146882397Y-86281728D01*
X146897329Y-86317776D01*
X146924919Y-86345366D01*
X146960967Y-86360298D01*
X146999985Y-86360298D01*
X147036033Y-86345366D01*
X147063623Y-86317776D01*
X147078555Y-86281728D01*
X147080476Y-86262219D01*
X147079295Y-85635475D01*
X147463793Y-86305793D01*
X147468757Y-86317776D01*
X147473236Y-86322255D01*
X147476427Y-86327818D01*
X147486943Y-86335962D01*
X147496347Y-86345366D01*
X147502234Y-86347804D01*
X147507276Y-86351709D01*
X147520108Y-86355208D01*
X147532395Y-86360298D01*
X147538771Y-86360298D01*
X147544920Y-86361975D01*
X147558113Y-86360298D01*
X147571413Y-86360298D01*
X147577301Y-86357858D01*
X147583626Y-86357055D01*
X147595175Y-86350454D01*
X147607461Y-86345366D01*
X147611968Y-86340858D01*
X147617503Y-86337696D01*
X147625647Y-86327179D01*
X147635051Y-86317776D01*
X147637489Y-86311888D01*
X147641394Y-86306847D01*
X147644893Y-86294014D01*
X147649983Y-86281728D01*
X147650965Y-86271750D01*
X147651660Y-86269204D01*
X147651409Y-86267236D01*
X147651904Y-86262219D01*
X147651867Y-86242710D01*
X147834778Y-86242710D01*
X147834778Y-86281728D01*
X147849710Y-86317776D01*
X147877300Y-86345366D01*
X147913348Y-86360298D01*
X147932857Y-86362219D01*
X148571413Y-86360298D01*
X148607461Y-86345366D01*
X148635051Y-86317776D01*
X148649983Y-86281728D01*
X148649983Y-86242710D01*
X148635051Y-86206662D01*
X148607461Y-86179072D01*
X148571413Y-86164140D01*
X148551904Y-86162219D01*
X148172351Y-86163360D01*
X148562614Y-85771280D01*
X148565597Y-85769789D01*
X148575745Y-85758087D01*
X148587432Y-85746347D01*
X148588806Y-85743028D01*
X148591162Y-85740313D01*
X148599153Y-85722413D01*
X148645059Y-85579328D01*
X148649983Y-85567442D01*
X148650474Y-85562449D01*
X148651119Y-85560441D01*
X148650931Y-85557806D01*
X148651904Y-85547933D01*
X148650547Y-85466915D01*
X148651119Y-85465202D01*
X148650334Y-85454157D01*
X148649983Y-85433186D01*
X148648607Y-85429865D01*
X148648353Y-85426282D01*
X148641347Y-85407973D01*
X148592004Y-85312939D01*
X148587432Y-85301899D01*
X148584276Y-85298053D01*
X148583285Y-85296145D01*
X148581287Y-85294412D01*
X148574995Y-85286746D01*
X148524894Y-85238814D01*
X148517977Y-85230838D01*
X148513827Y-85228225D01*
X148512223Y-85226691D01*
X148509783Y-85225680D01*
X148501387Y-85220395D01*
X148418369Y-85180456D01*
X148416985Y-85179072D01*
X148406235Y-85174619D01*
X148387841Y-85165770D01*
X148384257Y-85165515D01*
X148380937Y-85164140D01*
X148361428Y-85162219D01*
X148138472Y-85163881D01*
X148135840Y-85163004D01*
X148121734Y-85164006D01*
X148103824Y-85164140D01*
X148100503Y-85165515D01*
X148096920Y-85165770D01*
X148078611Y-85172776D01*
X147983577Y-85222118D01*
X147972537Y-85226691D01*
X147968691Y-85229846D01*
X147966783Y-85230838D01*
X147965050Y-85232835D01*
X147957384Y-85239128D01*
X147897329Y-85301900D01*
X147882397Y-85337948D01*
X147882397Y-85376966D01*
X147897329Y-85413014D01*
X147924919Y-85440604D01*
X147960967Y-85455536D01*
X147999985Y-85455536D01*
X148036033Y-85440604D01*
X148051187Y-85428168D01*
X148084753Y-85393083D01*
X148144501Y-85362061D01*
X148335364Y-85360637D01*
X148395262Y-85389453D01*
X148421039Y-85414115D01*
X148452264Y-85474254D01*
X148453170Y-85528358D01*
X148419068Y-85634652D01*
X147849710Y-86206662D01*
X147834778Y-86242710D01*
X147651867Y-86242710D01*
X147649983Y-85242710D01*
X147635051Y-85206662D01*
X147607461Y-85179072D01*
X147571413Y-85164140D01*
X147532395Y-85164140D01*
X147496347Y-85179072D01*
X147468757Y-85206662D01*
X147453825Y-85242710D01*
X147451904Y-85262219D01*
X147453084Y-85888962D01*
X147068586Y-85218644D01*
X147063623Y-85206662D01*
X147059143Y-85202182D01*
X147055953Y-85196620D01*
X147045438Y-85188477D01*
X147036033Y-85179072D01*
X147030142Y-85176632D01*
X147025104Y-85172730D01*
X147012275Y-85169231D01*
X146999985Y-85164140D01*
X146993610Y-85164140D01*
X146987461Y-85162463D01*
X146974268Y-85164140D01*
X146960967Y-85164140D01*
X146955078Y-85166579D01*
X146948754Y-85167383D01*
X146937204Y-85173983D01*
X146924919Y-85179072D01*
X146920411Y-85183579D01*
X146914877Y-85186742D01*
X146906734Y-85197256D01*
X146897329Y-85206662D01*
X146894889Y-85212552D01*
X146890987Y-85217591D01*
X146887488Y-85230419D01*
X146882397Y-85242710D01*
X146881414Y-85252687D01*
X146880720Y-85255234D01*
X146880970Y-85257201D01*
X146880476Y-85262219D01*
X146649983Y-85262219D01*
X146649983Y-85242710D01*
X146635051Y-85206662D01*
X146607461Y-85179072D01*
X146571413Y-85164140D01*
X146551904Y-85162219D01*
X146056205Y-85164140D01*
X146020157Y-85179072D01*
X145992567Y-85206662D01*
X145977635Y-85242710D01*
X145975714Y-85262219D01*
X145864603Y-85262219D01*
X145864603Y-85051108D01*
X148763015Y-85051108D01*
X148763015Y-86473330D01*
G37*
D11*
%TO.P,C1,1*%
%TO.N,GND*%
X160250000Y-98200000D03*
%TO.P,C1,2*%
%TO.N,+5V*%
X160250000Y-95700000D03*
%TD*%
D12*
%TO.P,J3,1,Pin_1*%
%TO.N,/H*%
X171610000Y-93390000D03*
D13*
%TO.P,J3,2,Pin_2*%
%TO.N,/L*%
X171610000Y-95890000D03*
%TD*%
D14*
%TO.P,FID3,*%
%TO.N,*%
X185970000Y-68750000D03*
%TD*%
D11*
%TO.P,R1,1*%
%TO.N,/H*%
X166310000Y-89870000D03*
D15*
%TO.P,R1,2*%
%TO.N,/L*%
X166310000Y-100030000D03*
%TD*%
D11*
%TO.P,C2,1*%
%TO.N,GND*%
X156700000Y-98210000D03*
%TO.P,C2,2*%
%TO.N,+5V*%
X156700000Y-95710000D03*
%TD*%
D16*
%TO.P,MD2,1,Pin_1*%
%TO.N,MD2_dir*%
X161450000Y-111440000D03*
%TO.P,MD2,2,Pin_2*%
%TO.N,MD2_pwm*%
X163950000Y-111440000D03*
D17*
%TO.P,MD2,3,Pin_3*%
%TO.N,GND*%
X166450000Y-111440000D03*
%TD*%
D18*
%TO.P,U1,3_1,PA9*%
%TO.N,B1*%
X121590000Y-78085000D03*
D19*
%TO.P,U1,3_2,PA10*%
%TO.N,unconnected-(U1A-PA10-Pad3_2)*%
X121590000Y-80625000D03*
%TO.P,U1,3_3,NRST_1*%
%TO.N,unconnected-(U1A-NRST_1-Pad3_3)*%
X121590000Y-83165000D03*
%TO.P,U1,3_4,GND_1*%
%TO.N,GND*%
X121590000Y-85705000D03*
%TO.P,U1,3_5,PA12*%
%TO.N,CAN_Tx*%
X121590000Y-88245000D03*
%TO.P,U1,3_6,PB0*%
%TO.N,X1*%
X121590000Y-90785000D03*
%TO.P,U1,3_7,PB7*%
%TO.N,unconnected-(U1A-PB7-Pad3_7)*%
X121590000Y-93325000D03*
%TO.P,U1,3_8,PB6*%
%TO.N,unconnected-(U1A-PB6-Pad3_8)*%
X121590000Y-95865000D03*
%TO.P,U1,3_9,PB1*%
%TO.N,X2*%
X121590000Y-98405000D03*
%TO.P,U1,3_10,PF0*%
%TO.N,unconnected-(U1A-PF0-Pad3_10)*%
X121590000Y-100945000D03*
%TO.P,U1,3_11,PF1*%
%TO.N,unconnected-(U1A-PF1-Pad3_11)*%
X121590000Y-103485000D03*
%TO.P,U1,3_12,PA8*%
%TO.N,A1*%
X121590000Y-106025000D03*
%TO.P,U1,3_13,PA11*%
%TO.N,CAN_Rx*%
X121590000Y-108565000D03*
%TO.P,U1,3_14,PB5*%
%TO.N,unconnected-(U1A-PB5-Pad3_14)*%
X121590000Y-111105000D03*
%TO.P,U1,3_15,PB4*%
%TO.N,unconnected-(U1A-PB4-Pad3_15)*%
X121590000Y-113645000D03*
D18*
%TO.P,U1,4_1,VIN*%
%TO.N,unconnected-(U1B-VIN-Pad4_1)*%
X136830000Y-78085000D03*
D19*
%TO.P,U1,4_2,GND_2*%
%TO.N,GND*%
X136830000Y-80625000D03*
%TO.P,U1,4_3,NRST_2*%
%TO.N,unconnected-(U1B-NRST_2-Pad4_3)*%
X136830000Y-83165000D03*
%TO.P,U1,4_4,+5V*%
%TO.N,+5V*%
X136830000Y-85705000D03*
%TO.P,U1,4_5,PA2*%
%TO.N,unconnected-(U1B-PA2-Pad4_5)*%
X136830000Y-88245000D03*
%TO.P,U1,4_6,PA7*%
%TO.N,unconnected-(U1B-PA7-Pad4_6)*%
X136830000Y-90785000D03*
%TO.P,U1,4_7,PA6*%
%TO.N,MD2_pwm*%
X136830000Y-93325000D03*
%TO.P,U1,4_8,PA5*%
%TO.N,MD2_dir*%
X136830000Y-95865000D03*
%TO.P,U1,4_9,PA4*%
%TO.N,MD1_pwm*%
X136830000Y-98405000D03*
%TO.P,U1,4_10,PA3*%
%TO.N,MD1_dir*%
X136830000Y-100945000D03*
%TO.P,U1,4_11,PA1*%
%TO.N,B2*%
X136830000Y-103485000D03*
%TO.P,U1,4_12,PA0*%
%TO.N,A2*%
X136830000Y-106025000D03*
%TO.P,U1,4_13,AREF*%
%TO.N,unconnected-(U1B-AREF-Pad4_13)*%
X136830000Y-108565000D03*
%TO.P,U1,4_14,+3V3*%
%TO.N,unconnected-(U1B-+3V3-Pad4_14)*%
X136830000Y-111105000D03*
%TO.P,U1,4_15,PB3*%
%TO.N,unconnected-(U1B-PB3-Pad4_15)*%
X136830000Y-113645000D03*
%TD*%
D14*
%TO.P,FID2,*%
%TO.N,*%
X103400000Y-119500000D03*
%TD*%
D20*
%TO.P,EN1,5,Pin_5*%
%TO.N,GND*%
X159580000Y-80340000D03*
D16*
%TO.P,EN1,4,Pin_4*%
%TO.N,X1*%
X162080000Y-80340000D03*
%TO.P,EN1,3,Pin_3*%
%TO.N,A1*%
X164580000Y-80340000D03*
%TO.P,EN1,2,Pin_2*%
%TO.N,+5V*%
X167080000Y-80340000D03*
%TO.P,EN1,1,Pin_1*%
%TO.N,B1*%
X169580000Y-80340000D03*
%TD*%
D14*
%TO.P,FID4,*%
%TO.N,*%
X186000000Y-119400000D03*
%TD*%
D21*
%TO.P,U2,1,TXD*%
%TO.N,CAN_Tx*%
X143760000Y-91450000D03*
D15*
%TO.P,U2,2,VSS*%
%TO.N,GND*%
X143760000Y-93990000D03*
%TO.P,U2,3,VDD*%
%TO.N,+5V*%
X143760000Y-96530000D03*
%TO.P,U2,4,RXD*%
%TO.N,CAN_Rx*%
X143760000Y-99070000D03*
%TO.P,U2,5,Vio*%
%TO.N,+5V*%
X151380000Y-99070000D03*
%TO.P,U2,6,CANL*%
%TO.N,/L*%
X151380000Y-96530000D03*
%TO.P,U2,7,CANH*%
%TO.N,/H*%
X151380000Y-93990000D03*
%TO.P,U2,8,STBY*%
%TO.N,GND*%
X151380000Y-91450000D03*
%TD*%
D14*
%TO.P,FID1,*%
%TO.N,*%
X103310000Y-68430000D03*
%TD*%
D16*
%TO.P,EN2,1,Pin_1*%
%TO.N,B2*%
X152775000Y-80330000D03*
%TO.P,EN2,2,Pin_2*%
%TO.N,+5V*%
X150275000Y-80330000D03*
%TO.P,EN2,3,Pin_3*%
%TO.N,A2*%
X147775000Y-80330000D03*
%TO.P,EN2,4,Pin_4*%
%TO.N,X2*%
X145275000Y-80330000D03*
D20*
%TO.P,EN2,5,Pin_5*%
%TO.N,GND*%
X142775000Y-80330000D03*
%TD*%
D16*
%TO.P,MD1,1,Pin_1*%
%TO.N,MD1_dir*%
X146370000Y-111710000D03*
%TO.P,MD1,2,Pin_2*%
%TO.N,MD1_pwm*%
X148870000Y-111710000D03*
D17*
%TO.P,MD1,3,Pin_3*%
%TO.N,GND*%
X151370000Y-111710000D03*
%TD*%
D22*
%TO.N,MD2_pwm*%
X140219900Y-94440100D03*
X162750000Y-105430000D03*
%TO.N,GND*%
X142780000Y-75570000D03*
X156400000Y-75430000D03*
X117320000Y-90710000D03*
X140580000Y-89240000D03*
%TO.N,X1*%
X124760000Y-89660000D03*
X162100000Y-77020000D03*
%TO.N,A1*%
X129248000Y-87886700D03*
X126090700Y-101890700D03*
%TO.N,B1*%
X124800000Y-74660000D03*
X167390000Y-71170000D03*
%TO.N,CAN_Rx*%
X130165000Y-113285000D03*
X150071700Y-103330000D03*
%TO.N,CAN_Tx*%
X128470000Y-68490000D03*
X147740000Y-88290000D03*
%TD*%
D23*
%TO.N,MD2_pwm*%
X143240000Y-105430000D02*
X162750000Y-105430000D01*
X140219900Y-102409900D02*
X143240000Y-105430000D01*
X140219900Y-94440100D02*
X140219900Y-102409900D01*
%TO.N,X1*%
X124730000Y-89630000D02*
X124760000Y-89660000D01*
X131330000Y-72870000D02*
X124730000Y-79470000D01*
X159280000Y-72870000D02*
X131330000Y-72870000D01*
X162100000Y-75690000D02*
X159280000Y-72870000D01*
X162100000Y-77020000D02*
X162100000Y-75690000D01*
X124730000Y-79470000D02*
X124730000Y-89630000D01*
%TO.N,A1*%
X129248000Y-98733400D02*
X129248000Y-87886700D01*
X126090700Y-101890700D02*
X129248000Y-98733400D01*
%TO.N,B1*%
X167320000Y-71100000D02*
X167390000Y-71170000D01*
X124800000Y-74660000D02*
X124800000Y-72240000D01*
X125940000Y-71100000D02*
X167320000Y-71100000D01*
X124800000Y-72240000D02*
X125940000Y-71100000D01*
%TO.N,CAN_Rx*%
X169880000Y-113920000D02*
X167240000Y-116560000D01*
X169880000Y-106700000D02*
X169880000Y-113920000D01*
X130165000Y-113368400D02*
X130165000Y-113285000D01*
X167240000Y-116560000D02*
X133356600Y-116560000D01*
X133356600Y-116560000D02*
X130165000Y-113368400D01*
X150071700Y-103330000D02*
X166510000Y-103330000D01*
X166510000Y-103330000D02*
X169880000Y-106700000D01*
D24*
%TO.N,CAN_Tx*%
X172640000Y-72850000D02*
X172640000Y-86510000D01*
X128490000Y-68510000D02*
X168300000Y-68510000D01*
X128470000Y-68490000D02*
X128490000Y-68510000D01*
X170860000Y-88290000D02*
X147740000Y-88290000D01*
X172640000Y-86510000D02*
X170860000Y-88290000D01*
X168300000Y-68510000D02*
X172640000Y-72850000D01*
%TD*%
%TA.AperFunction,Conductor*%
%TO.N,GND*%
G36*
X138689915Y-101366819D02*
G01*
X138745419Y-101409258D01*
X138769168Y-101474968D01*
X138769400Y-101482553D01*
X138769400Y-102524062D01*
X138805115Y-102749560D01*
X138875670Y-102966703D01*
X138891149Y-102997081D01*
X138959526Y-103131279D01*
X138979323Y-103170131D01*
X139012531Y-103215839D01*
X139012535Y-103215843D01*
X139113520Y-103354837D01*
X142133621Y-106374937D01*
X142295063Y-106536379D01*
X142479772Y-106670579D01*
X142575884Y-106719550D01*
X142683196Y-106774229D01*
X142683198Y-106774229D01*
X142683201Y-106774231D01*
X142776248Y-106804464D01*
X142900339Y-106844784D01*
X143125838Y-106880500D01*
X143125843Y-106880500D01*
X146113785Y-106880500D01*
X146180824Y-106900185D01*
X146226579Y-106952989D01*
X146237785Y-107004500D01*
X146237785Y-108369488D01*
X149308608Y-108369488D01*
X149308608Y-107004500D01*
X149328293Y-106937461D01*
X149381097Y-106891706D01*
X149432608Y-106880500D01*
X161273785Y-106880500D01*
X161340824Y-106900185D01*
X161386579Y-106952989D01*
X161397785Y-107004500D01*
X161397785Y-108229488D01*
X164467450Y-108229488D01*
X164467450Y-106824149D01*
X163680489Y-106824149D01*
X163613450Y-106804464D01*
X163567695Y-106751660D01*
X163557751Y-106682502D01*
X163586776Y-106618946D01*
X163607601Y-106599832D01*
X163694937Y-106536379D01*
X163856379Y-106374937D01*
X163990579Y-106190228D01*
X164094231Y-105986799D01*
X164164784Y-105769660D01*
X164166135Y-105761128D01*
X164200500Y-105544162D01*
X164200500Y-105315837D01*
X164164784Y-105090339D01*
X164116851Y-104942819D01*
X164114856Y-104872978D01*
X164150936Y-104813145D01*
X164213637Y-104782316D01*
X164234782Y-104780500D01*
X165857821Y-104780500D01*
X165924860Y-104800185D01*
X165945502Y-104816819D01*
X168393181Y-107264498D01*
X168426666Y-107325821D01*
X168429500Y-107352179D01*
X168429500Y-113267821D01*
X168409815Y-113334860D01*
X168393181Y-113355502D01*
X166675502Y-115073181D01*
X166614179Y-115106666D01*
X166587821Y-115109500D01*
X138163256Y-115109500D01*
X138096217Y-115089815D01*
X138050462Y-115037011D01*
X138040518Y-114967853D01*
X138069543Y-114904297D01*
X138078915Y-114894602D01*
X138127823Y-114849221D01*
X138127832Y-114849213D01*
X138292815Y-114642331D01*
X138425121Y-114413170D01*
X138521795Y-114166850D01*
X138580677Y-113908872D01*
X138589151Y-113795784D01*
X138600451Y-113645004D01*
X138600451Y-113644995D01*
X138580677Y-113381130D01*
X138574828Y-113355502D01*
X138521795Y-113123150D01*
X138425121Y-112876830D01*
X138292815Y-112647669D01*
X138137022Y-112452311D01*
X138110615Y-112387626D01*
X138123370Y-112318931D01*
X138137020Y-112297691D01*
X138292815Y-112102331D01*
X138425121Y-111873170D01*
X138521795Y-111626850D01*
X138559031Y-111463711D01*
X144519500Y-111463711D01*
X144519500Y-111956288D01*
X144551161Y-112196785D01*
X144613947Y-112431104D01*
X144706773Y-112655205D01*
X144706776Y-112655212D01*
X144828064Y-112865289D01*
X144828066Y-112865292D01*
X144828067Y-112865293D01*
X144975733Y-113057736D01*
X144975739Y-113057743D01*
X145147256Y-113229260D01*
X145147263Y-113229266D01*
X145195485Y-113266268D01*
X145339711Y-113376936D01*
X145549788Y-113498224D01*
X145773900Y-113591054D01*
X146008211Y-113653838D01*
X146188586Y-113677584D01*
X146248711Y-113685500D01*
X146248712Y-113685500D01*
X146491289Y-113685500D01*
X146539388Y-113679167D01*
X146731789Y-113653838D01*
X146966100Y-113591054D01*
X147190212Y-113498224D01*
X147400289Y-113376936D01*
X147544516Y-113266266D01*
X147609683Y-113241074D01*
X147678127Y-113255112D01*
X147695476Y-113266261D01*
X147839711Y-113376936D01*
X148049788Y-113498224D01*
X148273900Y-113591054D01*
X148508211Y-113653838D01*
X148688586Y-113677584D01*
X148748711Y-113685500D01*
X148748712Y-113685500D01*
X148991289Y-113685500D01*
X149039388Y-113679167D01*
X149231789Y-113653838D01*
X149466100Y-113591054D01*
X149690212Y-113498224D01*
X149900289Y-113376936D01*
X150092738Y-113229265D01*
X150264265Y-113057738D01*
X150411936Y-112865289D01*
X150533224Y-112655212D01*
X150626054Y-112431100D01*
X150688838Y-112196789D01*
X150720500Y-111956288D01*
X150720500Y-111463712D01*
X150688838Y-111223211D01*
X150680933Y-111193711D01*
X159599500Y-111193711D01*
X159599500Y-111686288D01*
X159631161Y-111926785D01*
X159693947Y-112161104D01*
X159768074Y-112340061D01*
X159786776Y-112385212D01*
X159908064Y-112595289D01*
X159908066Y-112595292D01*
X159908067Y-112595293D01*
X160055733Y-112787736D01*
X160055739Y-112787743D01*
X160227256Y-112959260D01*
X160227263Y-112959266D01*
X160275485Y-112996268D01*
X160419711Y-113106936D01*
X160629788Y-113228224D01*
X160853900Y-113321054D01*
X161088211Y-113383838D01*
X161268586Y-113407584D01*
X161328711Y-113415500D01*
X161328712Y-113415500D01*
X161571289Y-113415500D01*
X161619388Y-113409167D01*
X161811789Y-113383838D01*
X162046100Y-113321054D01*
X162270212Y-113228224D01*
X162480289Y-113106936D01*
X162624516Y-112996266D01*
X162689683Y-112971074D01*
X162758127Y-112985112D01*
X162775476Y-112996261D01*
X162919711Y-113106936D01*
X163129788Y-113228224D01*
X163353900Y-113321054D01*
X163588211Y-113383838D01*
X163768586Y-113407584D01*
X163828711Y-113415500D01*
X163828712Y-113415500D01*
X164071289Y-113415500D01*
X164119388Y-113409167D01*
X164311789Y-113383838D01*
X164546100Y-113321054D01*
X164770212Y-113228224D01*
X164980289Y-113106936D01*
X165172738Y-112959265D01*
X165344265Y-112787738D01*
X165491936Y-112595289D01*
X165613224Y-112385212D01*
X165706054Y-112161100D01*
X165768838Y-111926789D01*
X165800500Y-111686288D01*
X165800500Y-111193712D01*
X165768838Y-110953211D01*
X165706054Y-110718900D01*
X165613224Y-110494788D01*
X165491936Y-110284711D01*
X165344265Y-110092262D01*
X165344260Y-110092256D01*
X165172743Y-109920739D01*
X165172736Y-109920733D01*
X164980293Y-109773067D01*
X164980292Y-109773066D01*
X164980289Y-109773064D01*
X164770212Y-109651776D01*
X164770205Y-109651773D01*
X164546104Y-109558947D01*
X164311785Y-109496161D01*
X164071289Y-109464500D01*
X164071288Y-109464500D01*
X163828712Y-109464500D01*
X163828711Y-109464500D01*
X163588214Y-109496161D01*
X163353895Y-109558947D01*
X163129794Y-109651773D01*
X163129785Y-109651777D01*
X162919706Y-109773067D01*
X162775486Y-109883731D01*
X162710317Y-109908925D01*
X162641872Y-109894887D01*
X162624514Y-109883731D01*
X162480293Y-109773067D01*
X162480292Y-109773066D01*
X162480289Y-109773064D01*
X162270212Y-109651776D01*
X162270205Y-109651773D01*
X162046104Y-109558947D01*
X161811785Y-109496161D01*
X161571289Y-109464500D01*
X161571288Y-109464500D01*
X161328712Y-109464500D01*
X161328711Y-109464500D01*
X161088214Y-109496161D01*
X160853895Y-109558947D01*
X160629794Y-109651773D01*
X160629785Y-109651777D01*
X160419706Y-109773067D01*
X160227263Y-109920733D01*
X160227256Y-109920739D01*
X160055739Y-110092256D01*
X160055733Y-110092263D01*
X159908067Y-110284706D01*
X159786777Y-110494785D01*
X159786773Y-110494794D01*
X159693947Y-110718895D01*
X159631161Y-110953214D01*
X159599500Y-111193711D01*
X150680933Y-111193711D01*
X150626054Y-110988900D01*
X150533224Y-110764788D01*
X150411936Y-110554711D01*
X150264265Y-110362262D01*
X150264260Y-110362256D01*
X150092743Y-110190739D01*
X150092736Y-110190733D01*
X149900293Y-110043067D01*
X149900292Y-110043066D01*
X149900289Y-110043064D01*
X149690212Y-109921776D01*
X149690205Y-109921773D01*
X149466104Y-109828947D01*
X149279443Y-109778931D01*
X149231789Y-109766162D01*
X149231788Y-109766161D01*
X149231785Y-109766161D01*
X148991289Y-109734500D01*
X148991288Y-109734500D01*
X148748712Y-109734500D01*
X148748711Y-109734500D01*
X148508214Y-109766161D01*
X148273895Y-109828947D01*
X148049794Y-109921773D01*
X148049785Y-109921777D01*
X147839706Y-110043067D01*
X147695486Y-110153731D01*
X147630317Y-110178925D01*
X147561872Y-110164887D01*
X147544514Y-110153731D01*
X147400293Y-110043067D01*
X147400292Y-110043066D01*
X147400289Y-110043064D01*
X147190212Y-109921776D01*
X147190205Y-109921773D01*
X146966104Y-109828947D01*
X146779443Y-109778931D01*
X146731789Y-109766162D01*
X146731788Y-109766161D01*
X146731785Y-109766161D01*
X146491289Y-109734500D01*
X146491288Y-109734500D01*
X146248712Y-109734500D01*
X146248711Y-109734500D01*
X146008214Y-109766161D01*
X145773895Y-109828947D01*
X145549794Y-109921773D01*
X145549785Y-109921777D01*
X145339706Y-110043067D01*
X145147263Y-110190733D01*
X145147256Y-110190739D01*
X144975739Y-110362256D01*
X144975733Y-110362263D01*
X144828067Y-110554706D01*
X144706777Y-110764785D01*
X144706773Y-110764794D01*
X144613947Y-110988895D01*
X144551161Y-111223214D01*
X144519500Y-111463711D01*
X138559031Y-111463711D01*
X138580677Y-111368872D01*
X138600451Y-111105000D01*
X138589076Y-110953214D01*
X138580677Y-110841130D01*
X138563254Y-110764794D01*
X138521795Y-110583150D01*
X138425121Y-110336830D01*
X138292815Y-110107669D01*
X138137022Y-109912311D01*
X138110615Y-109847626D01*
X138123370Y-109778931D01*
X138137020Y-109757691D01*
X138292815Y-109562331D01*
X138357965Y-109449488D01*
X150879104Y-109449488D01*
X151902212Y-109449488D01*
X151902212Y-109329488D01*
X165859104Y-109329488D01*
X166882212Y-109329488D01*
X166882212Y-107924950D01*
X165859104Y-107924950D01*
X165859104Y-109329488D01*
X151902212Y-109329488D01*
X151902212Y-108044950D01*
X150879104Y-108044950D01*
X150879104Y-109449488D01*
X138357965Y-109449488D01*
X138425121Y-109333170D01*
X138521795Y-109086850D01*
X138580677Y-108828872D01*
X138600451Y-108565000D01*
X138580677Y-108301128D01*
X138521795Y-108043150D01*
X138425121Y-107796830D01*
X138292815Y-107567669D01*
X138137022Y-107372311D01*
X138110615Y-107307626D01*
X138123370Y-107238931D01*
X138137020Y-107217691D01*
X138292815Y-107022331D01*
X138425121Y-106793170D01*
X138521795Y-106546850D01*
X138580677Y-106288872D01*
X138600451Y-106025000D01*
X138597588Y-105986799D01*
X138580677Y-105761130D01*
X138579293Y-105755066D01*
X138521795Y-105503150D01*
X138425121Y-105256830D01*
X138292815Y-105027669D01*
X138137022Y-104832311D01*
X138110615Y-104767626D01*
X138123370Y-104698931D01*
X138137020Y-104677691D01*
X138292815Y-104482331D01*
X138425121Y-104253170D01*
X138521795Y-104006850D01*
X138580677Y-103748872D01*
X138600451Y-103485000D01*
X138597390Y-103444157D01*
X138580677Y-103221130D01*
X138580677Y-103221128D01*
X138521795Y-102963150D01*
X138425121Y-102716830D01*
X138292815Y-102487669D01*
X138137022Y-102292311D01*
X138110615Y-102227626D01*
X138123370Y-102158931D01*
X138137020Y-102137691D01*
X138292815Y-101942331D01*
X138425121Y-101713170D01*
X138521795Y-101466850D01*
X138521799Y-101466833D01*
X138524509Y-101454962D01*
X138558617Y-101393983D01*
X138620278Y-101361124D01*
X138689915Y-101366819D01*
G37*
%TD.AperFunction*%
%TA.AperFunction,Conductor*%
G36*
X180352539Y-64120185D02*
G01*
X180398294Y-64172989D01*
X180409500Y-64224500D01*
X180409500Y-123875500D01*
X180389815Y-123942539D01*
X180337011Y-123988294D01*
X180285500Y-123999500D01*
X112734500Y-123999500D01*
X112667461Y-123979815D01*
X112621706Y-123927011D01*
X112610500Y-123875500D01*
X112610500Y-119187648D01*
X114809500Y-119187648D01*
X114809500Y-119392351D01*
X114841522Y-119594534D01*
X114904781Y-119789223D01*
X114997715Y-119971613D01*
X115118028Y-120137213D01*
X115262786Y-120281971D01*
X115417749Y-120394556D01*
X115428390Y-120402287D01*
X115544607Y-120461503D01*
X115610776Y-120495218D01*
X115610778Y-120495218D01*
X115610781Y-120495220D01*
X115715137Y-120529127D01*
X115805465Y-120558477D01*
X115868602Y-120568477D01*
X116007648Y-120590500D01*
X116007649Y-120590500D01*
X116212351Y-120590500D01*
X116212352Y-120590500D01*
X116414534Y-120558477D01*
X116609219Y-120495220D01*
X116791610Y-120402287D01*
X116884590Y-120334732D01*
X116957213Y-120281971D01*
X116957215Y-120281968D01*
X116957219Y-120281966D01*
X117101966Y-120137219D01*
X117101968Y-120137215D01*
X117101971Y-120137213D01*
X117215019Y-119981613D01*
X117222287Y-119971610D01*
X117315220Y-119789219D01*
X117378477Y-119594534D01*
X117410500Y-119392352D01*
X117410500Y-119197648D01*
X174149500Y-119197648D01*
X174149500Y-119402351D01*
X174181522Y-119604534D01*
X174244781Y-119799223D01*
X174308691Y-119924653D01*
X174332619Y-119971613D01*
X174337715Y-119981613D01*
X174458028Y-120147213D01*
X174602786Y-120291971D01*
X174754622Y-120402284D01*
X174768390Y-120412287D01*
X174884607Y-120471503D01*
X174950776Y-120505218D01*
X174950778Y-120505218D01*
X174950781Y-120505220D01*
X175055137Y-120539127D01*
X175145465Y-120568477D01*
X175246557Y-120584488D01*
X175347648Y-120600500D01*
X175347649Y-120600500D01*
X175552351Y-120600500D01*
X175552352Y-120600500D01*
X175754534Y-120568477D01*
X175949219Y-120505220D01*
X176131610Y-120412287D01*
X176224590Y-120344732D01*
X176297213Y-120291971D01*
X176297215Y-120291968D01*
X176297219Y-120291966D01*
X176441966Y-120147219D01*
X176441968Y-120147215D01*
X176441971Y-120147213D01*
X176494732Y-120074590D01*
X176562287Y-119981610D01*
X176655220Y-119799219D01*
X176718477Y-119604534D01*
X176750500Y-119402352D01*
X176750500Y-119197648D01*
X176718477Y-118995466D01*
X176715227Y-118985465D01*
X176655218Y-118800776D01*
X176621503Y-118734607D01*
X176562287Y-118618390D01*
X176554556Y-118607749D01*
X176441971Y-118452786D01*
X176297213Y-118308028D01*
X176131613Y-118187715D01*
X176131612Y-118187714D01*
X176131610Y-118187713D01*
X176074653Y-118158691D01*
X175949223Y-118094781D01*
X175754534Y-118031522D01*
X175579995Y-118003878D01*
X175552352Y-117999500D01*
X175347648Y-117999500D01*
X175323329Y-118003351D01*
X175145465Y-118031522D01*
X174950776Y-118094781D01*
X174768386Y-118187715D01*
X174602786Y-118308028D01*
X174458028Y-118452786D01*
X174337715Y-118618386D01*
X174244781Y-118800776D01*
X174181522Y-118995465D01*
X174149500Y-119197648D01*
X117410500Y-119197648D01*
X117410500Y-119187648D01*
X117378477Y-118985466D01*
X117315220Y-118790781D01*
X117315218Y-118790778D01*
X117315218Y-118790776D01*
X117281503Y-118724607D01*
X117222287Y-118608390D01*
X117214556Y-118597749D01*
X117101971Y-118442786D01*
X116957213Y-118298028D01*
X116791613Y-118177715D01*
X116791612Y-118177714D01*
X116791610Y-118177713D01*
X116734653Y-118148691D01*
X116609223Y-118084781D01*
X116414534Y-118021522D01*
X116239995Y-117993878D01*
X116212352Y-117989500D01*
X116007648Y-117989500D01*
X115983329Y-117993351D01*
X115805465Y-118021522D01*
X115610776Y-118084781D01*
X115428386Y-118177715D01*
X115262786Y-118298028D01*
X115118028Y-118442786D01*
X114997715Y-118608386D01*
X114904781Y-118790776D01*
X114841522Y-118985465D01*
X114809500Y-119187648D01*
X112610500Y-119187648D01*
X112610500Y-80624995D01*
X119819549Y-80624995D01*
X119819549Y-80625004D01*
X119839322Y-80888869D01*
X119878633Y-81061100D01*
X119898205Y-81146850D01*
X119994879Y-81393170D01*
X120127185Y-81622331D01*
X120193657Y-81705684D01*
X120282976Y-81817687D01*
X120309385Y-81882374D01*
X120296628Y-81951069D01*
X120282976Y-81972313D01*
X120127185Y-82167669D01*
X119994879Y-82396829D01*
X119898207Y-82643144D01*
X119898202Y-82643161D01*
X119839322Y-82901130D01*
X119819549Y-83164995D01*
X119819549Y-83165004D01*
X119839322Y-83428869D01*
X119839323Y-83428872D01*
X119898205Y-83686850D01*
X119994879Y-83933170D01*
X120127185Y-84162331D01*
X120292168Y-84369213D01*
X120486142Y-84549194D01*
X120704775Y-84698256D01*
X120704780Y-84698258D01*
X120704781Y-84698259D01*
X120704782Y-84698260D01*
X120831399Y-84759234D01*
X120943178Y-84813064D01*
X120943179Y-84813064D01*
X120943182Y-84813066D01*
X121196038Y-84891062D01*
X121196039Y-84891062D01*
X121196042Y-84891063D01*
X121457686Y-84930499D01*
X121457691Y-84930499D01*
X121457694Y-84930500D01*
X121457695Y-84930500D01*
X121722305Y-84930500D01*
X121722306Y-84930500D01*
X121722313Y-84930499D01*
X121983957Y-84891063D01*
X121983958Y-84891062D01*
X121983962Y-84891062D01*
X122236818Y-84813066D01*
X122425198Y-84722347D01*
X122475218Y-84698260D01*
X122475218Y-84698259D01*
X122475226Y-84698256D01*
X122693858Y-84549194D01*
X122887832Y-84369213D01*
X123052815Y-84162331D01*
X123052828Y-84162307D01*
X123053037Y-84162003D01*
X123053150Y-84161909D01*
X123055708Y-84158703D01*
X123056393Y-84159249D01*
X123107061Y-84117695D01*
X123176463Y-84109627D01*
X123239210Y-84140361D01*
X123275379Y-84200140D01*
X123279500Y-84231842D01*
X123279500Y-87178157D01*
X123259815Y-87245196D01*
X123207011Y-87290951D01*
X123137853Y-87300895D01*
X123074297Y-87271870D01*
X123055864Y-87251172D01*
X123055708Y-87251297D01*
X123053420Y-87248429D01*
X123053045Y-87248007D01*
X123052818Y-87247675D01*
X123052815Y-87247669D01*
X122887832Y-87040787D01*
X122693858Y-86860806D01*
X122585115Y-86786666D01*
X122475229Y-86711746D01*
X122475218Y-86711739D01*
X122236820Y-86596935D01*
X122236822Y-86596935D01*
X121983963Y-86518938D01*
X121983957Y-86518936D01*
X121722313Y-86479500D01*
X121722306Y-86479500D01*
X121457694Y-86479500D01*
X121457686Y-86479500D01*
X121196042Y-86518936D01*
X121196036Y-86518938D01*
X120943178Y-86596935D01*
X120704782Y-86711739D01*
X120704781Y-86711740D01*
X120486141Y-86860806D01*
X120292170Y-87040785D01*
X120292168Y-87040787D01*
X120127185Y-87247669D01*
X119994879Y-87476829D01*
X119898207Y-87723144D01*
X119898202Y-87723161D01*
X119839322Y-87981130D01*
X119819549Y-88244995D01*
X119819549Y-88245004D01*
X119839322Y-88508869D01*
X119839323Y-88508872D01*
X119898205Y-88766850D01*
X119994879Y-89013170D01*
X120127185Y-89242331D01*
X120210396Y-89346674D01*
X120282976Y-89437687D01*
X120309385Y-89502374D01*
X120296628Y-89571069D01*
X120282976Y-89592313D01*
X120127185Y-89787669D01*
X119994879Y-90016829D01*
X119898207Y-90263144D01*
X119898202Y-90263161D01*
X119839322Y-90521130D01*
X119819549Y-90784995D01*
X119819549Y-90785004D01*
X119839322Y-91048869D01*
X119892450Y-91281635D01*
X119898205Y-91306850D01*
X119994879Y-91553170D01*
X120127185Y-91782331D01*
X120162157Y-91826184D01*
X120282976Y-91977687D01*
X120309385Y-92042374D01*
X120296628Y-92111069D01*
X120282976Y-92132313D01*
X120127185Y-92327669D01*
X119994879Y-92556829D01*
X119898207Y-92803144D01*
X119898202Y-92803161D01*
X119839322Y-93061130D01*
X119819549Y-93324995D01*
X119819549Y-93325004D01*
X119839322Y-93588869D01*
X119839323Y-93588872D01*
X119898205Y-93846850D01*
X119994879Y-94093170D01*
X120127185Y-94322331D01*
X120192855Y-94404678D01*
X120282976Y-94517687D01*
X120309385Y-94582374D01*
X120296628Y-94651069D01*
X120282976Y-94672313D01*
X120127185Y-94867669D01*
X119994879Y-95096829D01*
X119898207Y-95343144D01*
X119898202Y-95343161D01*
X119839322Y-95601130D01*
X119819549Y-95864995D01*
X119819549Y-95865004D01*
X119839322Y-96128869D01*
X119898201Y-96386833D01*
X119898205Y-96386850D01*
X119994879Y-96633170D01*
X120127185Y-96862331D01*
X120187597Y-96938085D01*
X120282976Y-97057687D01*
X120309385Y-97122374D01*
X120296628Y-97191069D01*
X120282976Y-97212313D01*
X120127185Y-97407669D01*
X119994879Y-97636829D01*
X119898207Y-97883144D01*
X119898202Y-97883161D01*
X119839322Y-98141130D01*
X119819549Y-98404995D01*
X119819549Y-98405004D01*
X119839322Y-98668869D01*
X119898201Y-98926833D01*
X119898205Y-98926850D01*
X119994879Y-99173170D01*
X120127185Y-99402331D01*
X120199992Y-99493628D01*
X120282976Y-99597687D01*
X120309385Y-99662374D01*
X120296628Y-99731069D01*
X120282976Y-99752313D01*
X120127185Y-99947669D01*
X119994879Y-100176829D01*
X119898207Y-100423144D01*
X119898202Y-100423161D01*
X119839322Y-100681130D01*
X119819549Y-100944995D01*
X119819549Y-100945004D01*
X119839322Y-101208869D01*
X119898201Y-101466833D01*
X119898205Y-101466850D01*
X119994879Y-101713170D01*
X120127185Y-101942331D01*
X120177048Y-102004857D01*
X120282976Y-102137687D01*
X120309385Y-102202374D01*
X120296628Y-102271069D01*
X120282976Y-102292313D01*
X120127185Y-102487669D01*
X119994879Y-102716829D01*
X119898207Y-102963144D01*
X119898202Y-102963161D01*
X119839322Y-103221130D01*
X119819549Y-103484995D01*
X119819549Y-103485004D01*
X119839322Y-103748869D01*
X119898202Y-104006838D01*
X119898205Y-104006850D01*
X119994879Y-104253170D01*
X120127185Y-104482331D01*
X120238806Y-104622299D01*
X120282976Y-104677687D01*
X120309385Y-104742374D01*
X120296628Y-104811069D01*
X120282976Y-104832313D01*
X120127185Y-105027669D01*
X119994879Y-105256829D01*
X119898207Y-105503144D01*
X119898202Y-105503161D01*
X119839322Y-105761130D01*
X119819549Y-106024995D01*
X119819549Y-106025004D01*
X119839322Y-106288869D01*
X119895815Y-106536379D01*
X119898205Y-106546850D01*
X119994879Y-106793170D01*
X120127185Y-107022331D01*
X120238806Y-107162299D01*
X120282976Y-107217687D01*
X120309385Y-107282374D01*
X120296628Y-107351069D01*
X120282976Y-107372313D01*
X120127185Y-107567669D01*
X119994879Y-107796829D01*
X119898207Y-108043144D01*
X119898202Y-108043161D01*
X119839322Y-108301130D01*
X119819549Y-108564995D01*
X119819549Y-108565004D01*
X119839322Y-108828869D01*
X119839323Y-108828872D01*
X119898205Y-109086850D01*
X119994879Y-109333170D01*
X120127185Y-109562331D01*
X120198513Y-109651773D01*
X120282976Y-109757687D01*
X120309385Y-109822374D01*
X120296628Y-109891069D01*
X120282976Y-109912313D01*
X120127185Y-110107669D01*
X119994879Y-110336829D01*
X119898207Y-110583144D01*
X119898202Y-110583161D01*
X119839322Y-110841130D01*
X119819549Y-111104995D01*
X119819549Y-111105004D01*
X119839322Y-111368869D01*
X119898202Y-111626838D01*
X119898205Y-111626850D01*
X119994879Y-111873170D01*
X120127185Y-112102331D01*
X120188025Y-112178622D01*
X120282976Y-112297687D01*
X120309385Y-112362374D01*
X120296628Y-112431069D01*
X120282976Y-112452313D01*
X120127185Y-112647669D01*
X119994879Y-112876829D01*
X119898207Y-113123144D01*
X119898202Y-113123161D01*
X119839322Y-113381130D01*
X119819549Y-113644995D01*
X119819549Y-113645004D01*
X119839322Y-113908869D01*
X119898202Y-114166838D01*
X119898205Y-114166850D01*
X119994879Y-114413170D01*
X120127185Y-114642331D01*
X120292168Y-114849213D01*
X120486142Y-115029194D01*
X120704775Y-115178256D01*
X120704780Y-115178258D01*
X120704781Y-115178259D01*
X120704782Y-115178260D01*
X120831399Y-115239234D01*
X120943178Y-115293064D01*
X120943179Y-115293064D01*
X120943182Y-115293066D01*
X121196038Y-115371062D01*
X121196039Y-115371062D01*
X121196042Y-115371063D01*
X121457686Y-115410499D01*
X121457691Y-115410499D01*
X121457694Y-115410500D01*
X121457695Y-115410500D01*
X121722305Y-115410500D01*
X121722306Y-115410500D01*
X121722313Y-115410499D01*
X121983957Y-115371063D01*
X121983958Y-115371062D01*
X121983962Y-115371062D01*
X122236818Y-115293066D01*
X122475226Y-115178256D01*
X122693858Y-115029194D01*
X122887832Y-114849213D01*
X123052815Y-114642331D01*
X123185121Y-114413170D01*
X123281795Y-114166850D01*
X123340677Y-113908872D01*
X123349151Y-113795784D01*
X123360451Y-113645004D01*
X123360451Y-113644995D01*
X123340677Y-113381130D01*
X123334828Y-113355502D01*
X123292679Y-113170837D01*
X128714500Y-113170837D01*
X128714500Y-113482562D01*
X128750215Y-113708060D01*
X128820770Y-113925203D01*
X128924423Y-114128631D01*
X128952187Y-114166846D01*
X128952191Y-114166850D01*
X129058617Y-114313333D01*
X129058622Y-114313339D01*
X132411666Y-117666383D01*
X132518642Y-117744105D01*
X132518645Y-117744106D01*
X132596372Y-117800579D01*
X132692484Y-117849550D01*
X132799796Y-117904229D01*
X132799798Y-117904229D01*
X132799801Y-117904231D01*
X132916192Y-117942049D01*
X133016939Y-117974784D01*
X133242438Y-118010500D01*
X133242443Y-118010500D01*
X167354162Y-118010500D01*
X167579660Y-117974784D01*
X167796799Y-117904231D01*
X168000228Y-117800579D01*
X168077954Y-117744106D01*
X168184937Y-117666380D01*
X170986380Y-114864937D01*
X171064106Y-114757954D01*
X171120579Y-114680228D01*
X171224231Y-114476799D01*
X171294784Y-114259660D01*
X171309484Y-114166850D01*
X171330500Y-114034162D01*
X171330500Y-106585837D01*
X171294784Y-106360339D01*
X171224229Y-106143196D01*
X171120578Y-105939771D01*
X171053458Y-105847389D01*
X171053458Y-105847388D01*
X170986383Y-105755066D01*
X167454937Y-102223620D01*
X167308726Y-102117392D01*
X167270228Y-102089421D01*
X167066803Y-101985770D01*
X166957662Y-101950308D01*
X166899987Y-101910870D01*
X166872789Y-101846511D01*
X166884704Y-101777665D01*
X166931948Y-101726189D01*
X166959426Y-101713888D01*
X166969641Y-101710738D01*
X167212775Y-101593651D01*
X167435741Y-101441635D01*
X167633561Y-101258085D01*
X167801815Y-101047102D01*
X167936743Y-100813398D01*
X168035334Y-100562195D01*
X168095383Y-100299103D01*
X168115549Y-100030000D01*
X168109379Y-99947669D01*
X168095383Y-99760898D01*
X168076540Y-99678340D01*
X168035334Y-99497805D01*
X167936743Y-99246602D01*
X167801815Y-99012898D01*
X167633561Y-98801915D01*
X167633560Y-98801914D01*
X167633557Y-98801910D01*
X167435741Y-98618365D01*
X167317581Y-98537805D01*
X167212775Y-98466349D01*
X167212769Y-98466346D01*
X167212768Y-98466345D01*
X167212767Y-98466344D01*
X166969643Y-98349263D01*
X166969645Y-98349263D01*
X166711773Y-98269720D01*
X166711767Y-98269718D01*
X166444936Y-98229500D01*
X166444929Y-98229500D01*
X166175071Y-98229500D01*
X166175063Y-98229500D01*
X165908232Y-98269718D01*
X165908226Y-98269720D01*
X165650358Y-98349262D01*
X165407230Y-98466346D01*
X165184258Y-98618365D01*
X164986442Y-98801910D01*
X164818185Y-99012898D01*
X164683258Y-99246599D01*
X164683256Y-99246603D01*
X164584666Y-99497804D01*
X164584664Y-99497811D01*
X164524616Y-99760898D01*
X164504451Y-100029995D01*
X164504451Y-100030004D01*
X164524616Y-100299101D01*
X164584664Y-100562188D01*
X164584666Y-100562195D01*
X164612711Y-100633653D01*
X164683257Y-100813398D01*
X164818185Y-101047102D01*
X164947190Y-101208869D01*
X164986442Y-101258089D01*
X165103626Y-101366819D01*
X165184259Y-101441635D01*
X165407226Y-101593651D01*
X165407229Y-101593652D01*
X165407230Y-101593653D01*
X165511320Y-101643780D01*
X165563179Y-101690602D01*
X165581492Y-101758029D01*
X165560444Y-101824653D01*
X165506718Y-101869322D01*
X165457518Y-101879500D01*
X149957538Y-101879500D01*
X149732039Y-101915215D01*
X149514896Y-101985770D01*
X149311471Y-102089421D01*
X149126761Y-102223622D01*
X148965322Y-102385061D01*
X148831121Y-102569771D01*
X148727470Y-102773196D01*
X148656915Y-102990339D01*
X148621200Y-103215837D01*
X148621200Y-103444162D01*
X148656915Y-103669660D01*
X148704849Y-103817181D01*
X148706844Y-103887022D01*
X148670764Y-103946855D01*
X148608063Y-103977684D01*
X148586918Y-103979500D01*
X143892178Y-103979500D01*
X143825139Y-103959815D01*
X143804497Y-103943181D01*
X141706719Y-101845402D01*
X141673234Y-101784079D01*
X141670400Y-101757721D01*
X141670400Y-96529995D01*
X141954451Y-96529995D01*
X141954451Y-96530004D01*
X141974616Y-96799101D01*
X142034664Y-97062188D01*
X142034666Y-97062195D01*
X142113732Y-97263651D01*
X142133257Y-97313398D01*
X142268185Y-97547102D01*
X142347097Y-97646054D01*
X142408210Y-97722687D01*
X142434618Y-97787374D01*
X142421862Y-97856069D01*
X142408210Y-97877313D01*
X142268185Y-98052898D01*
X142133258Y-98286599D01*
X142133256Y-98286603D01*
X142034666Y-98537804D01*
X142034664Y-98537811D01*
X141974616Y-98800898D01*
X141954451Y-99069995D01*
X141954451Y-99069998D01*
X141974616Y-99339101D01*
X142034664Y-99602188D01*
X142034666Y-99602195D01*
X142096952Y-99760897D01*
X142133257Y-99853398D01*
X142268185Y-100087102D01*
X142339741Y-100176830D01*
X142436442Y-100298089D01*
X142571227Y-100423150D01*
X142634259Y-100481635D01*
X142857226Y-100633651D01*
X143100359Y-100750738D01*
X143358228Y-100830280D01*
X143358229Y-100830280D01*
X143358232Y-100830281D01*
X143625063Y-100870499D01*
X143625068Y-100870499D01*
X143625071Y-100870500D01*
X143625072Y-100870500D01*
X143894928Y-100870500D01*
X143894929Y-100870500D01*
X143894936Y-100870499D01*
X144161767Y-100830281D01*
X144161768Y-100830280D01*
X144161772Y-100830280D01*
X144419641Y-100750738D01*
X144662775Y-100633651D01*
X144885741Y-100481635D01*
X145083561Y-100298085D01*
X145251815Y-100087102D01*
X145386743Y-99853398D01*
X145485334Y-99602195D01*
X145545383Y-99339103D01*
X145565549Y-99070000D01*
X145555998Y-98942553D01*
X145545383Y-98800898D01*
X145485335Y-98537811D01*
X145485334Y-98537805D01*
X145386743Y-98286602D01*
X145251815Y-98052898D01*
X145111787Y-97877310D01*
X145085381Y-97812627D01*
X145098136Y-97743931D01*
X145111784Y-97722693D01*
X145251815Y-97547102D01*
X145386743Y-97313398D01*
X145485334Y-97062195D01*
X145545383Y-96799103D01*
X145565549Y-96530000D01*
X145562806Y-96493400D01*
X145545383Y-96260898D01*
X145485335Y-95997811D01*
X145485334Y-95997805D01*
X145386743Y-95746602D01*
X145251815Y-95512898D01*
X145083561Y-95301915D01*
X145083560Y-95301914D01*
X145083557Y-95301910D01*
X144885741Y-95118365D01*
X144854155Y-95096830D01*
X144662775Y-94966349D01*
X144662769Y-94966346D01*
X144662768Y-94966345D01*
X144662767Y-94966344D01*
X144419643Y-94849263D01*
X144419645Y-94849263D01*
X144161773Y-94769720D01*
X144161767Y-94769718D01*
X143894936Y-94729500D01*
X143894929Y-94729500D01*
X143625071Y-94729500D01*
X143625063Y-94729500D01*
X143358232Y-94769718D01*
X143358226Y-94769720D01*
X143100358Y-94849262D01*
X142857230Y-94966346D01*
X142634258Y-95118365D01*
X142436442Y-95301910D01*
X142268185Y-95512898D01*
X142133258Y-95746599D01*
X142133256Y-95746603D01*
X142034666Y-95997804D01*
X142034664Y-95997811D01*
X141974616Y-96260898D01*
X141954451Y-96529995D01*
X141670400Y-96529995D01*
X141670400Y-94325937D01*
X141634684Y-94100439D01*
X141598798Y-93989995D01*
X149574451Y-93989995D01*
X149574451Y-93990004D01*
X149594616Y-94259101D01*
X149654664Y-94522188D01*
X149654666Y-94522195D01*
X149751812Y-94769718D01*
X149753257Y-94773398D01*
X149888185Y-95007102D01*
X150028210Y-95182687D01*
X150054618Y-95247374D01*
X150041862Y-95316069D01*
X150028210Y-95337313D01*
X149888185Y-95512898D01*
X149753258Y-95746599D01*
X149753256Y-95746603D01*
X149654666Y-95997804D01*
X149654664Y-95997811D01*
X149594616Y-96260898D01*
X149574451Y-96529995D01*
X149574451Y-96530004D01*
X149594616Y-96799101D01*
X149654664Y-97062188D01*
X149654666Y-97062195D01*
X149733732Y-97263651D01*
X149753257Y-97313398D01*
X149888185Y-97547102D01*
X149967097Y-97646054D01*
X150028210Y-97722687D01*
X150054618Y-97787374D01*
X150041862Y-97856069D01*
X150028210Y-97877313D01*
X149888185Y-98052898D01*
X149753258Y-98286599D01*
X149753256Y-98286603D01*
X149654666Y-98537804D01*
X149654664Y-98537811D01*
X149594616Y-98800898D01*
X149574451Y-99069995D01*
X149574451Y-99069998D01*
X149594616Y-99339101D01*
X149654664Y-99602188D01*
X149654666Y-99602195D01*
X149716952Y-99760897D01*
X149753257Y-99853398D01*
X149888185Y-100087102D01*
X149959741Y-100176830D01*
X150056442Y-100298089D01*
X150191227Y-100423150D01*
X150254259Y-100481635D01*
X150477226Y-100633651D01*
X150720359Y-100750738D01*
X150978228Y-100830280D01*
X150978229Y-100830280D01*
X150978232Y-100830281D01*
X151245063Y-100870499D01*
X151245068Y-100870499D01*
X151245071Y-100870500D01*
X151245072Y-100870500D01*
X151514928Y-100870500D01*
X151514929Y-100870500D01*
X151514936Y-100870499D01*
X151781767Y-100830281D01*
X151781768Y-100830280D01*
X151781772Y-100830280D01*
X152039641Y-100750738D01*
X152282775Y-100633651D01*
X152505741Y-100481635D01*
X152703561Y-100298085D01*
X152871815Y-100087102D01*
X153006743Y-99853398D01*
X153105334Y-99602195D01*
X153165383Y-99339103D01*
X153185549Y-99070000D01*
X153175998Y-98942553D01*
X153165383Y-98800898D01*
X153105335Y-98537811D01*
X153105334Y-98537805D01*
X153006743Y-98286602D01*
X152871815Y-98052898D01*
X152731787Y-97877310D01*
X152705381Y-97812627D01*
X152718136Y-97743931D01*
X152731784Y-97722693D01*
X152871815Y-97547102D01*
X153006743Y-97313398D01*
X153105334Y-97062195D01*
X153165383Y-96799103D01*
X153185549Y-96530000D01*
X153182806Y-96493400D01*
X153165383Y-96260898D01*
X153105335Y-95997811D01*
X153105334Y-95997805D01*
X153006743Y-95746602D01*
X152985608Y-95709995D01*
X154894451Y-95709995D01*
X154894451Y-95710004D01*
X154914616Y-95979101D01*
X154974664Y-96242188D01*
X154974666Y-96242195D01*
X155073254Y-96493392D01*
X155073257Y-96493398D01*
X155208185Y-96727102D01*
X155316026Y-96862330D01*
X155376442Y-96938089D01*
X155517761Y-97069213D01*
X155574259Y-97121635D01*
X155797226Y-97273651D01*
X156040359Y-97390738D01*
X156298228Y-97470280D01*
X156298229Y-97470280D01*
X156298232Y-97470281D01*
X156565063Y-97510499D01*
X156565068Y-97510499D01*
X156565071Y-97510500D01*
X156565072Y-97510500D01*
X156834928Y-97510500D01*
X156834929Y-97510500D01*
X156834936Y-97510499D01*
X157101767Y-97470281D01*
X157101768Y-97470280D01*
X157101772Y-97470280D01*
X157359641Y-97390738D01*
X157602775Y-97273651D01*
X157825741Y-97121635D01*
X158023561Y-96938085D01*
X158191815Y-96727102D01*
X158326743Y-96493398D01*
X158361534Y-96404753D01*
X158404350Y-96349539D01*
X158470220Y-96326238D01*
X158538230Y-96342249D01*
X158586789Y-96392487D01*
X158592390Y-96404752D01*
X158623256Y-96483396D01*
X158623258Y-96483400D01*
X158650160Y-96529995D01*
X158758185Y-96717102D01*
X158823579Y-96799103D01*
X158926442Y-96928089D01*
X159070975Y-97062195D01*
X159124259Y-97111635D01*
X159347226Y-97263651D01*
X159590359Y-97380738D01*
X159848228Y-97460280D01*
X159848229Y-97460280D01*
X159848232Y-97460281D01*
X160115063Y-97500499D01*
X160115068Y-97500499D01*
X160115071Y-97500500D01*
X160115072Y-97500500D01*
X160384928Y-97500500D01*
X160384929Y-97500500D01*
X160384936Y-97500499D01*
X160651767Y-97460281D01*
X160651768Y-97460280D01*
X160651772Y-97460280D01*
X160909641Y-97380738D01*
X161101765Y-97288216D01*
X161152767Y-97263655D01*
X161152767Y-97263654D01*
X161152775Y-97263651D01*
X161375741Y-97111635D01*
X161573561Y-96928085D01*
X161741815Y-96717102D01*
X161876743Y-96483398D01*
X161975334Y-96232195D01*
X162035383Y-95969103D01*
X162052057Y-95746599D01*
X162055549Y-95700004D01*
X162055549Y-95699995D01*
X162035383Y-95430898D01*
X162026141Y-95390406D01*
X161975334Y-95167805D01*
X161876743Y-94916602D01*
X161741815Y-94682898D01*
X161573561Y-94471915D01*
X161573560Y-94471914D01*
X161573557Y-94471910D01*
X161375741Y-94288365D01*
X161152775Y-94136349D01*
X161152769Y-94136346D01*
X161152768Y-94136345D01*
X161152767Y-94136344D01*
X160909643Y-94019263D01*
X160909645Y-94019263D01*
X160651773Y-93939720D01*
X160651767Y-93939718D01*
X160384936Y-93899500D01*
X160384929Y-93899500D01*
X160115071Y-93899500D01*
X160115063Y-93899500D01*
X159848232Y-93939718D01*
X159848226Y-93939720D01*
X159590358Y-94019262D01*
X159347230Y-94136346D01*
X159124258Y-94288365D01*
X158926442Y-94471910D01*
X158758185Y-94682898D01*
X158623258Y-94916599D01*
X158623256Y-94916603D01*
X158588465Y-95005248D01*
X158545648Y-95060462D01*
X158479778Y-95083762D01*
X158411768Y-95067751D01*
X158363210Y-95017512D01*
X158357616Y-95005266D01*
X158326743Y-94926602D01*
X158191815Y-94692898D01*
X158023561Y-94481915D01*
X158023560Y-94481914D01*
X158023557Y-94481910D01*
X157825741Y-94298365D01*
X157768151Y-94259101D01*
X157602775Y-94146349D01*
X157602769Y-94146346D01*
X157602768Y-94146345D01*
X157602767Y-94146344D01*
X157359643Y-94029263D01*
X157359645Y-94029263D01*
X157101773Y-93949720D01*
X157101767Y-93949718D01*
X156834936Y-93909500D01*
X156834929Y-93909500D01*
X156565071Y-93909500D01*
X156565063Y-93909500D01*
X156298232Y-93949718D01*
X156298226Y-93949720D01*
X156040358Y-94029262D01*
X155797230Y-94146346D01*
X155574258Y-94298365D01*
X155376442Y-94481910D01*
X155208185Y-94692898D01*
X155073258Y-94926599D01*
X155073256Y-94926603D01*
X154974666Y-95177804D01*
X154974664Y-95177811D01*
X154914616Y-95440898D01*
X154894451Y-95709995D01*
X152985608Y-95709995D01*
X152871815Y-95512898D01*
X152731787Y-95337310D01*
X152705381Y-95272627D01*
X152718136Y-95203931D01*
X152731784Y-95182693D01*
X152871815Y-95007102D01*
X153006743Y-94773398D01*
X153105334Y-94522195D01*
X153165383Y-94259103D01*
X153180736Y-94054223D01*
X153185549Y-93990004D01*
X153185549Y-93989995D01*
X153165383Y-93720898D01*
X153135248Y-93588869D01*
X153105334Y-93457805D01*
X153006743Y-93206602D01*
X152871815Y-92972898D01*
X152703561Y-92761915D01*
X152703560Y-92761914D01*
X152703557Y-92761910D01*
X152664615Y-92725777D01*
X169609500Y-92725777D01*
X169609500Y-94054208D01*
X169609501Y-94054223D01*
X169619904Y-94186413D01*
X169619905Y-94186420D01*
X169674902Y-94404678D01*
X169674903Y-94404681D01*
X169767991Y-94609622D01*
X169767997Y-94609632D01*
X169883863Y-94776876D01*
X169905860Y-94843193D01*
X169889322Y-94909492D01*
X169796777Y-95069784D01*
X169796773Y-95069794D01*
X169703947Y-95293895D01*
X169641161Y-95528214D01*
X169609500Y-95768711D01*
X169609500Y-96011288D01*
X169641161Y-96251785D01*
X169703947Y-96486104D01*
X169764864Y-96633170D01*
X169796776Y-96710212D01*
X169918064Y-96920289D01*
X169918066Y-96920292D01*
X169918067Y-96920293D01*
X170065733Y-97112736D01*
X170065739Y-97112743D01*
X170237256Y-97284260D01*
X170237263Y-97284266D01*
X170350321Y-97371018D01*
X170429711Y-97431936D01*
X170639788Y-97553224D01*
X170863900Y-97646054D01*
X171098211Y-97708838D01*
X171278586Y-97732584D01*
X171338711Y-97740500D01*
X171338712Y-97740500D01*
X171881289Y-97740500D01*
X171929388Y-97734167D01*
X172121789Y-97708838D01*
X172356100Y-97646054D01*
X172580212Y-97553224D01*
X172790289Y-97431936D01*
X172982738Y-97284265D01*
X173154265Y-97112738D01*
X173301936Y-96920289D01*
X173423224Y-96710212D01*
X173486294Y-96557946D01*
X175219361Y-96557946D01*
X177232695Y-96557946D01*
X177232695Y-95330326D01*
X175219361Y-95330326D01*
X175219361Y-96557946D01*
X173486294Y-96557946D01*
X173516054Y-96486100D01*
X173578838Y-96251789D01*
X173610500Y-96011288D01*
X173610500Y-95768712D01*
X173578838Y-95528211D01*
X173516054Y-95293900D01*
X173423224Y-95069788D01*
X173417840Y-95060462D01*
X173330677Y-94909491D01*
X173314204Y-94841591D01*
X173336136Y-94776875D01*
X173338547Y-94773396D01*
X173452007Y-94609626D01*
X173545096Y-94404683D01*
X173600096Y-94186412D01*
X173610500Y-94054217D01*
X173610500Y-93947946D01*
X175219361Y-93947946D01*
X177232695Y-93947946D01*
X177232695Y-92577469D01*
X175219361Y-92577469D01*
X175219361Y-93947946D01*
X173610500Y-93947946D01*
X173610499Y-92725784D01*
X173600096Y-92593588D01*
X173596034Y-92577469D01*
X173545097Y-92375321D01*
X173545096Y-92375318D01*
X173515092Y-92309262D01*
X173452007Y-92170374D01*
X173333231Y-91998931D01*
X173323825Y-91985354D01*
X173323822Y-91985350D01*
X173323819Y-91985346D01*
X173164654Y-91826181D01*
X173164650Y-91826178D01*
X173164645Y-91826174D01*
X172979632Y-91697997D01*
X172979630Y-91697995D01*
X172979626Y-91697993D01*
X172830550Y-91630280D01*
X172774681Y-91604903D01*
X172774678Y-91604902D01*
X172556420Y-91549905D01*
X172556413Y-91549904D01*
X172512347Y-91546436D01*
X172424217Y-91539500D01*
X172424215Y-91539500D01*
X170795791Y-91539500D01*
X170795776Y-91539501D01*
X170663586Y-91549904D01*
X170663579Y-91549905D01*
X170445321Y-91604902D01*
X170445318Y-91604903D01*
X170240377Y-91697991D01*
X170240367Y-91697997D01*
X170055354Y-91826174D01*
X170055342Y-91826184D01*
X169896184Y-91985342D01*
X169896174Y-91985354D01*
X169767997Y-92170367D01*
X169767991Y-92170377D01*
X169674903Y-92375318D01*
X169674902Y-92375321D01*
X169619905Y-92593579D01*
X169619904Y-92593586D01*
X169609500Y-92725777D01*
X152664615Y-92725777D01*
X152505741Y-92578365D01*
X152474155Y-92556830D01*
X152282775Y-92426349D01*
X152282769Y-92426346D01*
X152282768Y-92426345D01*
X152282767Y-92426344D01*
X152039643Y-92309263D01*
X152039645Y-92309263D01*
X151781773Y-92229720D01*
X151781767Y-92229718D01*
X151514936Y-92189500D01*
X151514929Y-92189500D01*
X151245071Y-92189500D01*
X151245063Y-92189500D01*
X150978232Y-92229718D01*
X150978226Y-92229720D01*
X150720358Y-92309262D01*
X150477230Y-92426346D01*
X150254258Y-92578365D01*
X150056442Y-92761910D01*
X149888185Y-92972898D01*
X149753258Y-93206599D01*
X149753256Y-93206603D01*
X149654666Y-93457804D01*
X149654664Y-93457811D01*
X149594616Y-93720898D01*
X149574451Y-93989995D01*
X141598798Y-93989995D01*
X141585711Y-93949718D01*
X141564131Y-93883301D01*
X141564129Y-93883298D01*
X141564129Y-93883296D01*
X141509450Y-93775984D01*
X141460479Y-93679872D01*
X141326279Y-93495163D01*
X141164837Y-93333721D01*
X140980128Y-93199521D01*
X140949488Y-93183909D01*
X140776703Y-93095870D01*
X140559560Y-93025315D01*
X140334062Y-92989600D01*
X140334057Y-92989600D01*
X140105743Y-92989600D01*
X140105738Y-92989600D01*
X139880239Y-93025315D01*
X139663096Y-93095870D01*
X139459671Y-93199521D01*
X139274961Y-93333722D01*
X139113522Y-93495161D01*
X138979321Y-93679871D01*
X138875670Y-93883296D01*
X138805115Y-94100439D01*
X138769400Y-94325937D01*
X138769400Y-95327446D01*
X138749715Y-95394485D01*
X138696911Y-95440240D01*
X138627753Y-95450184D01*
X138564197Y-95421159D01*
X138526423Y-95362381D01*
X138524509Y-95355039D01*
X138523311Y-95349793D01*
X138521795Y-95343150D01*
X138425121Y-95096830D01*
X138292815Y-94867669D01*
X138137022Y-94672311D01*
X138110615Y-94607626D01*
X138123370Y-94538931D01*
X138137020Y-94517691D01*
X138292815Y-94322331D01*
X138425121Y-94093170D01*
X138521795Y-93846850D01*
X138580677Y-93588872D01*
X138590499Y-93457804D01*
X138600451Y-93325004D01*
X138600451Y-93324995D01*
X138580677Y-93061130D01*
X138572503Y-93025316D01*
X138521795Y-92803150D01*
X138425121Y-92556830D01*
X138292815Y-92327669D01*
X138137022Y-92132311D01*
X138110615Y-92067626D01*
X138123370Y-91998931D01*
X138137020Y-91977691D01*
X138292815Y-91782331D01*
X138425121Y-91553170D01*
X138521795Y-91306850D01*
X138580677Y-91048872D01*
X138600451Y-90785000D01*
X138599055Y-90766377D01*
X138585985Y-90591966D01*
X141959500Y-90591966D01*
X141959500Y-92308028D01*
X141959501Y-92308034D01*
X141970113Y-92427415D01*
X142026089Y-92623045D01*
X142026090Y-92623048D01*
X142026091Y-92623049D01*
X142120302Y-92803407D01*
X142120304Y-92803409D01*
X142248890Y-92961109D01*
X142283832Y-92989600D01*
X142406593Y-93089698D01*
X142586951Y-93183909D01*
X142782582Y-93239886D01*
X142901963Y-93250500D01*
X144618036Y-93250499D01*
X144737418Y-93239886D01*
X144933049Y-93183909D01*
X145113407Y-93089698D01*
X145271109Y-92961109D01*
X145399698Y-92803407D01*
X145493909Y-92623049D01*
X145549886Y-92427418D01*
X145560500Y-92308037D01*
X145560499Y-90591964D01*
X145549886Y-90472582D01*
X145493909Y-90276951D01*
X145399698Y-90096593D01*
X145296198Y-89969660D01*
X145271109Y-89938890D01*
X145113409Y-89810304D01*
X145113410Y-89810304D01*
X145113407Y-89810302D01*
X144933049Y-89716091D01*
X144933048Y-89716090D01*
X144933045Y-89716089D01*
X144815829Y-89682550D01*
X144737418Y-89660114D01*
X144737415Y-89660113D01*
X144737413Y-89660113D01*
X144671102Y-89654217D01*
X144618037Y-89649500D01*
X144618032Y-89649500D01*
X142901971Y-89649500D01*
X142901965Y-89649500D01*
X142901964Y-89649501D01*
X142890316Y-89650536D01*
X142782584Y-89660113D01*
X142586954Y-89716089D01*
X142496772Y-89763196D01*
X142406593Y-89810302D01*
X142406591Y-89810303D01*
X142406590Y-89810304D01*
X142248890Y-89938890D01*
X142120304Y-90096590D01*
X142026089Y-90276954D01*
X141970114Y-90472583D01*
X141970113Y-90472586D01*
X141962607Y-90557016D01*
X141961015Y-90574930D01*
X141959500Y-90591966D01*
X138585985Y-90591966D01*
X138580677Y-90521130D01*
X138579027Y-90513900D01*
X138521795Y-90263150D01*
X138425121Y-90016830D01*
X138292815Y-89787669D01*
X138137022Y-89592311D01*
X138110615Y-89527626D01*
X138123370Y-89458931D01*
X138137020Y-89437691D01*
X138292815Y-89242331D01*
X138425121Y-89013170D01*
X138521795Y-88766850D01*
X138580677Y-88508872D01*
X138600451Y-88245000D01*
X138580677Y-87981128D01*
X138521795Y-87723150D01*
X138425121Y-87476830D01*
X138292815Y-87247669D01*
X138137022Y-87052311D01*
X138110615Y-86987626D01*
X138123370Y-86918931D01*
X138137020Y-86897691D01*
X138292815Y-86702331D01*
X138425121Y-86473170D01*
X138426350Y-86470040D01*
X163508562Y-86470040D01*
X166386974Y-86470040D01*
X166386974Y-85064149D01*
X163508562Y-85064149D01*
X163508562Y-86470040D01*
X138426350Y-86470040D01*
X138428312Y-86465040D01*
X145874603Y-86465040D01*
X148754173Y-86465040D01*
X148754173Y-85059398D01*
X145874603Y-85059398D01*
X145874603Y-86465040D01*
X138428312Y-86465040D01*
X138521795Y-86226850D01*
X138580677Y-85968872D01*
X138600451Y-85705000D01*
X138580677Y-85441128D01*
X138521795Y-85183150D01*
X138425121Y-84936830D01*
X138292815Y-84707669D01*
X138143384Y-84520289D01*
X161411365Y-84520289D01*
X162484171Y-84520289D01*
X162484171Y-84519488D01*
X166019460Y-84519488D01*
X167948132Y-84519488D01*
X169008562Y-84519488D01*
X169983370Y-84519488D01*
X169983370Y-83114950D01*
X169008562Y-83114950D01*
X169008562Y-84519488D01*
X167948132Y-84519488D01*
X167948132Y-83114625D01*
X166019460Y-83114625D01*
X166019460Y-84519488D01*
X162484171Y-84519488D01*
X162484171Y-84509488D01*
X163934547Y-84509488D01*
X165005751Y-84509488D01*
X165005751Y-83104950D01*
X163934547Y-83104950D01*
X163934547Y-84509488D01*
X162484171Y-84509488D01*
X162484171Y-83114149D01*
X161411365Y-83114149D01*
X161411365Y-84520289D01*
X138143384Y-84520289D01*
X138137022Y-84512311D01*
X138123622Y-84479488D01*
X159039104Y-84479488D01*
X160062212Y-84479488D01*
X160062212Y-83074950D01*
X159039104Y-83074950D01*
X159039104Y-84479488D01*
X138123622Y-84479488D01*
X138110615Y-84447626D01*
X138119404Y-84400289D01*
X144621365Y-84400289D01*
X145694171Y-84400289D01*
X145694171Y-84399488D01*
X149229460Y-84399488D01*
X151158132Y-84399488D01*
X152218562Y-84399488D01*
X153193370Y-84399488D01*
X153193370Y-82994950D01*
X152218562Y-82994950D01*
X152218562Y-84399488D01*
X151158132Y-84399488D01*
X151158132Y-82994625D01*
X149229460Y-82994625D01*
X149229460Y-84399488D01*
X145694171Y-84399488D01*
X145694171Y-84389488D01*
X147144547Y-84389488D01*
X148215751Y-84389488D01*
X148215751Y-82984950D01*
X147144547Y-82984950D01*
X147144547Y-84389488D01*
X145694171Y-84389488D01*
X145694171Y-82994149D01*
X144621365Y-82994149D01*
X144621365Y-84400289D01*
X138119404Y-84400289D01*
X138123370Y-84378931D01*
X138135865Y-84359488D01*
X142249104Y-84359488D01*
X143272212Y-84359488D01*
X143272212Y-82954950D01*
X142249104Y-82954950D01*
X142249104Y-84359488D01*
X138135865Y-84359488D01*
X138137020Y-84357691D01*
X138292815Y-84162331D01*
X138425121Y-83933170D01*
X138521795Y-83686850D01*
X138580677Y-83428872D01*
X138600451Y-83165000D01*
X138596700Y-83114950D01*
X138580677Y-82901130D01*
X138580677Y-82901128D01*
X138521795Y-82643150D01*
X138425121Y-82396830D01*
X138292815Y-82167669D01*
X138127832Y-81960787D01*
X137933858Y-81780806D01*
X137797353Y-81687738D01*
X137715229Y-81631746D01*
X137715218Y-81631739D01*
X137476820Y-81516935D01*
X137476822Y-81516935D01*
X137223963Y-81438938D01*
X137223957Y-81438936D01*
X136962313Y-81399500D01*
X136962306Y-81399500D01*
X136697694Y-81399500D01*
X136697686Y-81399500D01*
X136436042Y-81438936D01*
X136436036Y-81438938D01*
X136183178Y-81516935D01*
X135944782Y-81631739D01*
X135944781Y-81631740D01*
X135726141Y-81780806D01*
X135532170Y-81960785D01*
X135532168Y-81960787D01*
X135367185Y-82167669D01*
X135234879Y-82396829D01*
X135138207Y-82643144D01*
X135138202Y-82643161D01*
X135079322Y-82901130D01*
X135059549Y-83164995D01*
X135059549Y-83165004D01*
X135079322Y-83428869D01*
X135079323Y-83428872D01*
X135138205Y-83686850D01*
X135234879Y-83933170D01*
X135367185Y-84162331D01*
X135478806Y-84302299D01*
X135522976Y-84357687D01*
X135549385Y-84422374D01*
X135536628Y-84491069D01*
X135522976Y-84512313D01*
X135367185Y-84707669D01*
X135234879Y-84936829D01*
X135138207Y-85183144D01*
X135138202Y-85183161D01*
X135079322Y-85441130D01*
X135059549Y-85704995D01*
X135059549Y-85705004D01*
X135079322Y-85968869D01*
X135079323Y-85968872D01*
X135138205Y-86226850D01*
X135234879Y-86473170D01*
X135367185Y-86702331D01*
X135466164Y-86826447D01*
X135522976Y-86897687D01*
X135549385Y-86962374D01*
X135536628Y-87031069D01*
X135522976Y-87052313D01*
X135367185Y-87247669D01*
X135234879Y-87476829D01*
X135138207Y-87723144D01*
X135138202Y-87723161D01*
X135079322Y-87981130D01*
X135059549Y-88244995D01*
X135059549Y-88245004D01*
X135079322Y-88508869D01*
X135079323Y-88508872D01*
X135138205Y-88766850D01*
X135234879Y-89013170D01*
X135367185Y-89242331D01*
X135450396Y-89346674D01*
X135522976Y-89437687D01*
X135549385Y-89502374D01*
X135536628Y-89571069D01*
X135522976Y-89592313D01*
X135367185Y-89787669D01*
X135234879Y-90016829D01*
X135138207Y-90263144D01*
X135138202Y-90263161D01*
X135079322Y-90521130D01*
X135059549Y-90784995D01*
X135059549Y-90785004D01*
X135079322Y-91048869D01*
X135132450Y-91281635D01*
X135138205Y-91306850D01*
X135234879Y-91553170D01*
X135367185Y-91782331D01*
X135402157Y-91826184D01*
X135522976Y-91977687D01*
X135549385Y-92042374D01*
X135536628Y-92111069D01*
X135522976Y-92132313D01*
X135367185Y-92327669D01*
X135234879Y-92556829D01*
X135138207Y-92803144D01*
X135138202Y-92803161D01*
X135079322Y-93061130D01*
X135059549Y-93324995D01*
X135059549Y-93325004D01*
X135079322Y-93588869D01*
X135079323Y-93588872D01*
X135138205Y-93846850D01*
X135234879Y-94093170D01*
X135367185Y-94322331D01*
X135432855Y-94404678D01*
X135522976Y-94517687D01*
X135549385Y-94582374D01*
X135536628Y-94651069D01*
X135522976Y-94672313D01*
X135367185Y-94867669D01*
X135234879Y-95096829D01*
X135138207Y-95343144D01*
X135138202Y-95343161D01*
X135079322Y-95601130D01*
X135059549Y-95864995D01*
X135059549Y-95865004D01*
X135079322Y-96128869D01*
X135138201Y-96386833D01*
X135138205Y-96386850D01*
X135234879Y-96633170D01*
X135367185Y-96862331D01*
X135427597Y-96938085D01*
X135522976Y-97057687D01*
X135549385Y-97122374D01*
X135536628Y-97191069D01*
X135522976Y-97212313D01*
X135367185Y-97407669D01*
X135234879Y-97636829D01*
X135138207Y-97883144D01*
X135138202Y-97883161D01*
X135079322Y-98141130D01*
X135059549Y-98404995D01*
X135059549Y-98405004D01*
X135079322Y-98668869D01*
X135138201Y-98926833D01*
X135138205Y-98926850D01*
X135234879Y-99173170D01*
X135367185Y-99402331D01*
X135439992Y-99493628D01*
X135522976Y-99597687D01*
X135549385Y-99662374D01*
X135536628Y-99731069D01*
X135522976Y-99752313D01*
X135367185Y-99947669D01*
X135234879Y-100176829D01*
X135138207Y-100423144D01*
X135138202Y-100423161D01*
X135079322Y-100681130D01*
X135059549Y-100944995D01*
X135059549Y-100945004D01*
X135079322Y-101208869D01*
X135138201Y-101466833D01*
X135138205Y-101466850D01*
X135234879Y-101713170D01*
X135367185Y-101942331D01*
X135417048Y-102004857D01*
X135522976Y-102137687D01*
X135549385Y-102202374D01*
X135536628Y-102271069D01*
X135522976Y-102292313D01*
X135367185Y-102487669D01*
X135234879Y-102716829D01*
X135138207Y-102963144D01*
X135138202Y-102963161D01*
X135079322Y-103221130D01*
X135059549Y-103484995D01*
X135059549Y-103485004D01*
X135079322Y-103748869D01*
X135138202Y-104006838D01*
X135138205Y-104006850D01*
X135234879Y-104253170D01*
X135367185Y-104482331D01*
X135478806Y-104622299D01*
X135522976Y-104677687D01*
X135549385Y-104742374D01*
X135536628Y-104811069D01*
X135522976Y-104832313D01*
X135367185Y-105027669D01*
X135234879Y-105256829D01*
X135138207Y-105503144D01*
X135138202Y-105503161D01*
X135079322Y-105761130D01*
X135059549Y-106024995D01*
X135059549Y-106025004D01*
X135079322Y-106288869D01*
X135135815Y-106536379D01*
X135138205Y-106546850D01*
X135234879Y-106793170D01*
X135367185Y-107022331D01*
X135478806Y-107162299D01*
X135522976Y-107217687D01*
X135549385Y-107282374D01*
X135536628Y-107351069D01*
X135522976Y-107372313D01*
X135367185Y-107567669D01*
X135234879Y-107796829D01*
X135138207Y-108043144D01*
X135138202Y-108043161D01*
X135079322Y-108301130D01*
X135059549Y-108564995D01*
X135059549Y-108565004D01*
X135079322Y-108828869D01*
X135079323Y-108828872D01*
X135138205Y-109086850D01*
X135234879Y-109333170D01*
X135367185Y-109562331D01*
X135438513Y-109651773D01*
X135522976Y-109757687D01*
X135549385Y-109822374D01*
X135536628Y-109891069D01*
X135522976Y-109912313D01*
X135367185Y-110107669D01*
X135234879Y-110336829D01*
X135138207Y-110583144D01*
X135138202Y-110583161D01*
X135079322Y-110841130D01*
X135059549Y-111104995D01*
X135059549Y-111105004D01*
X135079322Y-111368869D01*
X135138202Y-111626838D01*
X135138205Y-111626850D01*
X135234879Y-111873170D01*
X135367185Y-112102331D01*
X135428025Y-112178622D01*
X135522976Y-112297687D01*
X135549385Y-112362374D01*
X135536628Y-112431069D01*
X135522976Y-112452313D01*
X135367185Y-112647669D01*
X135234879Y-112876829D01*
X135138207Y-113123144D01*
X135138202Y-113123161D01*
X135079322Y-113381130D01*
X135059549Y-113644995D01*
X135059549Y-113645004D01*
X135079322Y-113908869D01*
X135138202Y-114166838D01*
X135138205Y-114166850D01*
X135234879Y-114413170D01*
X135367185Y-114642331D01*
X135532168Y-114849213D01*
X135532173Y-114849217D01*
X135532176Y-114849221D01*
X135581085Y-114894602D01*
X135616840Y-114954630D01*
X135614465Y-115024459D01*
X135574714Y-115081919D01*
X135510209Y-115108767D01*
X135496744Y-115109500D01*
X134008779Y-115109500D01*
X133941740Y-115089815D01*
X133921098Y-115073181D01*
X131453633Y-112605716D01*
X131430830Y-112574331D01*
X131405579Y-112524772D01*
X131271379Y-112340063D01*
X131109937Y-112178621D01*
X130925228Y-112044421D01*
X130721803Y-111940770D01*
X130504660Y-111870215D01*
X130279162Y-111834500D01*
X130279157Y-111834500D01*
X130050843Y-111834500D01*
X130050838Y-111834500D01*
X129825339Y-111870215D01*
X129608196Y-111940770D01*
X129404771Y-112044421D01*
X129220061Y-112178622D01*
X129058622Y-112340061D01*
X128924421Y-112524771D01*
X128820770Y-112728196D01*
X128750215Y-112945339D01*
X128714500Y-113170837D01*
X123292679Y-113170837D01*
X123281795Y-113123150D01*
X123185121Y-112876830D01*
X123052815Y-112647669D01*
X122897022Y-112452311D01*
X122870615Y-112387626D01*
X122883370Y-112318931D01*
X122897020Y-112297691D01*
X123052815Y-112102331D01*
X123185121Y-111873170D01*
X123281795Y-111626850D01*
X123340677Y-111368872D01*
X123360451Y-111105000D01*
X123349076Y-110953214D01*
X123340677Y-110841130D01*
X123323254Y-110764794D01*
X123281795Y-110583150D01*
X123185121Y-110336830D01*
X123052815Y-110107669D01*
X122897022Y-109912311D01*
X122870615Y-109847626D01*
X122883370Y-109778931D01*
X122897020Y-109757691D01*
X123052815Y-109562331D01*
X123185121Y-109333170D01*
X123281795Y-109086850D01*
X123340677Y-108828872D01*
X123360451Y-108565000D01*
X123340677Y-108301128D01*
X123281795Y-108043150D01*
X123185121Y-107796830D01*
X123052815Y-107567669D01*
X122897022Y-107372311D01*
X122870615Y-107307626D01*
X122883370Y-107238931D01*
X122897020Y-107217691D01*
X123052815Y-107022331D01*
X123185121Y-106793170D01*
X123281795Y-106546850D01*
X123340677Y-106288872D01*
X123360451Y-106025000D01*
X123357588Y-105986799D01*
X123340677Y-105761130D01*
X123339293Y-105755066D01*
X123281795Y-105503150D01*
X123185121Y-105256830D01*
X123052815Y-105027669D01*
X122897022Y-104832311D01*
X122870615Y-104767626D01*
X122883370Y-104698931D01*
X122897020Y-104677691D01*
X123052815Y-104482331D01*
X123185121Y-104253170D01*
X123281795Y-104006850D01*
X123340677Y-103748872D01*
X123360451Y-103485000D01*
X123357390Y-103444157D01*
X123340677Y-103221130D01*
X123340677Y-103221128D01*
X123281795Y-102963150D01*
X123185121Y-102716830D01*
X123052815Y-102487669D01*
X122897022Y-102292311D01*
X122870615Y-102227626D01*
X122883370Y-102158931D01*
X122897020Y-102137691D01*
X123052815Y-101942331D01*
X123148536Y-101776538D01*
X124640201Y-101776538D01*
X124640201Y-102004861D01*
X124675916Y-102230359D01*
X124675916Y-102230362D01*
X124726182Y-102385061D01*
X124746469Y-102447499D01*
X124808770Y-102569772D01*
X124850123Y-102650930D01*
X124984314Y-102835630D01*
X124984318Y-102835635D01*
X125145764Y-102997081D01*
X125145769Y-102997085D01*
X125306874Y-103114133D01*
X125330473Y-103131279D01*
X125533901Y-103234931D01*
X125751041Y-103305484D01*
X125868046Y-103324015D01*
X125976539Y-103341199D01*
X125976543Y-103341199D01*
X126204861Y-103341199D01*
X126292314Y-103327347D01*
X126430359Y-103305484D01*
X126647499Y-103234931D01*
X126850927Y-103131279D01*
X127035637Y-102997080D01*
X130354379Y-99678338D01*
X130488579Y-99493628D01*
X130592231Y-99290199D01*
X130662784Y-99073060D01*
X130663269Y-99070000D01*
X130673335Y-99006444D01*
X130698500Y-98847562D01*
X130698500Y-87772537D01*
X130662784Y-87547039D01*
X130592229Y-87329896D01*
X130514914Y-87178157D01*
X130488579Y-87126472D01*
X130354379Y-86941763D01*
X130192937Y-86780321D01*
X130008228Y-86646121D01*
X129972844Y-86628092D01*
X129804803Y-86542470D01*
X129587660Y-86471915D01*
X129362162Y-86436200D01*
X129362157Y-86436200D01*
X129133843Y-86436200D01*
X129133838Y-86436200D01*
X128908339Y-86471915D01*
X128691196Y-86542470D01*
X128487771Y-86646121D01*
X128303061Y-86780322D01*
X128141622Y-86941761D01*
X128007421Y-87126471D01*
X127903770Y-87329896D01*
X127833215Y-87547039D01*
X127797500Y-87772537D01*
X127797500Y-98081221D01*
X127777815Y-98148260D01*
X127761181Y-98168902D01*
X124984318Y-100945764D01*
X124984314Y-100945769D01*
X124850123Y-101130469D01*
X124746470Y-101333898D01*
X124675916Y-101551037D01*
X124675916Y-101551040D01*
X124640201Y-101776538D01*
X123148536Y-101776538D01*
X123185121Y-101713170D01*
X123281795Y-101466850D01*
X123340677Y-101208872D01*
X123352800Y-101047101D01*
X123360451Y-100945004D01*
X123360451Y-100944995D01*
X123340677Y-100681130D01*
X123340677Y-100681128D01*
X123281795Y-100423150D01*
X123185121Y-100176830D01*
X123052815Y-99947669D01*
X122897022Y-99752311D01*
X122870615Y-99687626D01*
X122883370Y-99618931D01*
X122897020Y-99597691D01*
X123052815Y-99402331D01*
X123185121Y-99173170D01*
X123281795Y-98926850D01*
X123340677Y-98668872D01*
X123360451Y-98405000D01*
X123350313Y-98269720D01*
X123340677Y-98141130D01*
X123340677Y-98141128D01*
X123281795Y-97883150D01*
X123185121Y-97636830D01*
X123052815Y-97407669D01*
X122897022Y-97212311D01*
X122870615Y-97147626D01*
X122883370Y-97078931D01*
X122897020Y-97057691D01*
X123052815Y-96862331D01*
X123185121Y-96633170D01*
X123281795Y-96386850D01*
X123340677Y-96128872D01*
X123349151Y-96015784D01*
X123360451Y-95865004D01*
X123360451Y-95864995D01*
X123340677Y-95601130D01*
X123340677Y-95601128D01*
X123281795Y-95343150D01*
X123185121Y-95096830D01*
X123052815Y-94867669D01*
X122897022Y-94672311D01*
X122870615Y-94607626D01*
X122883370Y-94538931D01*
X122897020Y-94517691D01*
X123052815Y-94322331D01*
X123185121Y-94093170D01*
X123281795Y-93846850D01*
X123340677Y-93588872D01*
X123350499Y-93457804D01*
X123360451Y-93325004D01*
X123360451Y-93324995D01*
X123340677Y-93061130D01*
X123332503Y-93025316D01*
X123281795Y-92803150D01*
X123185121Y-92556830D01*
X123052815Y-92327669D01*
X122897022Y-92132311D01*
X122870615Y-92067626D01*
X122883370Y-91998931D01*
X122897020Y-91977691D01*
X123052815Y-91782331D01*
X123185121Y-91553170D01*
X123281795Y-91306850D01*
X123340677Y-91048872D01*
X123360451Y-90785000D01*
X123359055Y-90766377D01*
X123350589Y-90653396D01*
X123345255Y-90582221D01*
X123359874Y-90513900D01*
X123409111Y-90464327D01*
X123477333Y-90449243D01*
X123542880Y-90473437D01*
X123569226Y-90500071D01*
X123623614Y-90574930D01*
X123623618Y-90574935D01*
X123623619Y-90574936D01*
X123623620Y-90574937D01*
X123815063Y-90766379D01*
X123999772Y-90900579D01*
X124095884Y-90949550D01*
X124203196Y-91004229D01*
X124203198Y-91004229D01*
X124203201Y-91004231D01*
X124420340Y-91074784D01*
X124465440Y-91081927D01*
X124645839Y-91110499D01*
X124645843Y-91110499D01*
X124874160Y-91110499D01*
X125024491Y-91086689D01*
X125099659Y-91074784D01*
X125316798Y-91004231D01*
X125520227Y-90900579D01*
X125704937Y-90766379D01*
X125866379Y-90604937D01*
X126000579Y-90420227D01*
X126104231Y-90216798D01*
X126174784Y-89999659D01*
X126189739Y-89905234D01*
X126210499Y-89774160D01*
X126210499Y-89545838D01*
X126182027Y-89366072D01*
X126180500Y-89346674D01*
X126180500Y-80122179D01*
X126191796Y-80083711D01*
X143424500Y-80083711D01*
X143424500Y-80576288D01*
X143425816Y-80586288D01*
X143456162Y-80816789D01*
X143458842Y-80826789D01*
X143518947Y-81051104D01*
X143611773Y-81275205D01*
X143611777Y-81275214D01*
X143617551Y-81285214D01*
X143733064Y-81485289D01*
X143733066Y-81485292D01*
X143733067Y-81485293D01*
X143880733Y-81677736D01*
X143880739Y-81677743D01*
X144052256Y-81849260D01*
X144052263Y-81849266D01*
X144128320Y-81907626D01*
X144244711Y-81996936D01*
X144454788Y-82118224D01*
X144678900Y-82211054D01*
X144913211Y-82273838D01*
X145093586Y-82297584D01*
X145153711Y-82305500D01*
X145153712Y-82305500D01*
X145396289Y-82305500D01*
X145444388Y-82299167D01*
X145636789Y-82273838D01*
X145871100Y-82211054D01*
X146095212Y-82118224D01*
X146305289Y-81996936D01*
X146449516Y-81886266D01*
X146514683Y-81861074D01*
X146583127Y-81875112D01*
X146600476Y-81886261D01*
X146744711Y-81996936D01*
X146954788Y-82118224D01*
X147178900Y-82211054D01*
X147413211Y-82273838D01*
X147593586Y-82297584D01*
X147653711Y-82305500D01*
X147653712Y-82305500D01*
X147896289Y-82305500D01*
X147944388Y-82299167D01*
X148136789Y-82273838D01*
X148371100Y-82211054D01*
X148595212Y-82118224D01*
X148805289Y-81996936D01*
X148949516Y-81886266D01*
X149014683Y-81861074D01*
X149083127Y-81875112D01*
X149100476Y-81886261D01*
X149244711Y-81996936D01*
X149454788Y-82118224D01*
X149678900Y-82211054D01*
X149913211Y-82273838D01*
X150093586Y-82297584D01*
X150153711Y-82305500D01*
X150153712Y-82305500D01*
X150396289Y-82305500D01*
X150444388Y-82299167D01*
X150636789Y-82273838D01*
X150871100Y-82211054D01*
X151095212Y-82118224D01*
X151305289Y-81996936D01*
X151449516Y-81886266D01*
X151514683Y-81861074D01*
X151583127Y-81875112D01*
X151600476Y-81886261D01*
X151744711Y-81996936D01*
X151954788Y-82118224D01*
X152178900Y-82211054D01*
X152413211Y-82273838D01*
X152593586Y-82297584D01*
X152653711Y-82305500D01*
X152653712Y-82305500D01*
X152896289Y-82305500D01*
X152944388Y-82299167D01*
X153136789Y-82273838D01*
X153371100Y-82211054D01*
X153595212Y-82118224D01*
X153805289Y-81996936D01*
X153997738Y-81849265D01*
X154169265Y-81677738D01*
X154316936Y-81485289D01*
X154438224Y-81275212D01*
X154531054Y-81051100D01*
X154593838Y-80816789D01*
X154625500Y-80576288D01*
X154625500Y-80083712D01*
X154621738Y-80055140D01*
X154595631Y-79856830D01*
X154593838Y-79843211D01*
X154531054Y-79608900D01*
X154524842Y-79593904D01*
X154445936Y-79403407D01*
X154438224Y-79384788D01*
X154316936Y-79174711D01*
X154169265Y-78982262D01*
X154169260Y-78982256D01*
X153997743Y-78810739D01*
X153997736Y-78810733D01*
X153805293Y-78663067D01*
X153805292Y-78663066D01*
X153805289Y-78663064D01*
X153595212Y-78541776D01*
X153592252Y-78540550D01*
X153371104Y-78448947D01*
X153253944Y-78417554D01*
X153136789Y-78386162D01*
X153136788Y-78386161D01*
X153136785Y-78386161D01*
X152896289Y-78354500D01*
X152896288Y-78354500D01*
X152653712Y-78354500D01*
X152653711Y-78354500D01*
X152413214Y-78386161D01*
X152178895Y-78448947D01*
X151954794Y-78541773D01*
X151954785Y-78541777D01*
X151744706Y-78663067D01*
X151600486Y-78773731D01*
X151535317Y-78798925D01*
X151466872Y-78784887D01*
X151449514Y-78773731D01*
X151305293Y-78663067D01*
X151305292Y-78663066D01*
X151305289Y-78663064D01*
X151095212Y-78541776D01*
X151092252Y-78540550D01*
X150871104Y-78448947D01*
X150753944Y-78417554D01*
X150636789Y-78386162D01*
X150636788Y-78386161D01*
X150636785Y-78386161D01*
X150396289Y-78354500D01*
X150396288Y-78354500D01*
X150153712Y-78354500D01*
X150153711Y-78354500D01*
X149913214Y-78386161D01*
X149678895Y-78448947D01*
X149454794Y-78541773D01*
X149454785Y-78541777D01*
X149244706Y-78663067D01*
X149100486Y-78773731D01*
X149035317Y-78798925D01*
X148966872Y-78784887D01*
X148949514Y-78773731D01*
X148805293Y-78663067D01*
X148805292Y-78663066D01*
X148805289Y-78663064D01*
X148595212Y-78541776D01*
X148592252Y-78540550D01*
X148371104Y-78448947D01*
X148253944Y-78417554D01*
X148136789Y-78386162D01*
X148136788Y-78386161D01*
X148136785Y-78386161D01*
X147896289Y-78354500D01*
X147896288Y-78354500D01*
X147653712Y-78354500D01*
X147653711Y-78354500D01*
X147413214Y-78386161D01*
X147178895Y-78448947D01*
X146954794Y-78541773D01*
X146954785Y-78541777D01*
X146744706Y-78663067D01*
X146600486Y-78773731D01*
X146535317Y-78798925D01*
X146466872Y-78784887D01*
X146449514Y-78773731D01*
X146305293Y-78663067D01*
X146305292Y-78663066D01*
X146305289Y-78663064D01*
X146095212Y-78541776D01*
X146092252Y-78540550D01*
X145871104Y-78448947D01*
X145753944Y-78417554D01*
X145636789Y-78386162D01*
X145636788Y-78386161D01*
X145636785Y-78386161D01*
X145396289Y-78354500D01*
X145396288Y-78354500D01*
X145153712Y-78354500D01*
X145153711Y-78354500D01*
X144913214Y-78386161D01*
X144678895Y-78448947D01*
X144454794Y-78541773D01*
X144454785Y-78541777D01*
X144244706Y-78663067D01*
X144052263Y-78810733D01*
X144052256Y-78810739D01*
X143880739Y-78982256D01*
X143880733Y-78982263D01*
X143733067Y-79174706D01*
X143733064Y-79174710D01*
X143733064Y-79174711D01*
X143716817Y-79202851D01*
X143611777Y-79384785D01*
X143611773Y-79384794D01*
X143518947Y-79608895D01*
X143456161Y-79843214D01*
X143424500Y-80083711D01*
X126191796Y-80083711D01*
X126200185Y-80055140D01*
X126216819Y-80034498D01*
X128989351Y-77261966D01*
X135064500Y-77261966D01*
X135064500Y-78908028D01*
X135064501Y-78908034D01*
X135075113Y-79027415D01*
X135131089Y-79223045D01*
X135131090Y-79223048D01*
X135131091Y-79223049D01*
X135225302Y-79403407D01*
X135225304Y-79403409D01*
X135353890Y-79561109D01*
X135412496Y-79608895D01*
X135511593Y-79689698D01*
X135691951Y-79783909D01*
X135887582Y-79839886D01*
X136006963Y-79850500D01*
X137653036Y-79850499D01*
X137772418Y-79839886D01*
X137968049Y-79783909D01*
X138148407Y-79689698D01*
X138306109Y-79561109D01*
X138434698Y-79403407D01*
X138528909Y-79223049D01*
X138584886Y-79027418D01*
X138595500Y-78908037D01*
X138595499Y-77261964D01*
X138584886Y-77142582D01*
X138528909Y-76946951D01*
X138434698Y-76766593D01*
X138382684Y-76702803D01*
X138306109Y-76608890D01*
X138148409Y-76480304D01*
X138148410Y-76480304D01*
X138148407Y-76480302D01*
X137968049Y-76386091D01*
X137968048Y-76386090D01*
X137968045Y-76386089D01*
X137850829Y-76352550D01*
X137772418Y-76330114D01*
X137772415Y-76330113D01*
X137772413Y-76330113D01*
X137706102Y-76324217D01*
X137653037Y-76319500D01*
X137653032Y-76319500D01*
X136006971Y-76319500D01*
X136006965Y-76319500D01*
X136006964Y-76319501D01*
X135995316Y-76320536D01*
X135887584Y-76330113D01*
X135691954Y-76386089D01*
X135601772Y-76433196D01*
X135511593Y-76480302D01*
X135511591Y-76480303D01*
X135511590Y-76480304D01*
X135353890Y-76608890D01*
X135225304Y-76766590D01*
X135131089Y-76946954D01*
X135075114Y-77142583D01*
X135075113Y-77142586D01*
X135064500Y-77261966D01*
X128989351Y-77261966D01*
X131894498Y-74356819D01*
X131955821Y-74323334D01*
X131982179Y-74320500D01*
X158627821Y-74320500D01*
X158694860Y-74340185D01*
X158715502Y-74356819D01*
X160613181Y-76254497D01*
X160646666Y-76315820D01*
X160649500Y-76342178D01*
X160649500Y-77134162D01*
X160685215Y-77359660D01*
X160755770Y-77576803D01*
X160859421Y-77780228D01*
X160993621Y-77964937D01*
X161155063Y-78126379D01*
X161278202Y-78215845D01*
X161339773Y-78260580D01*
X161379482Y-78280812D01*
X161430278Y-78328785D01*
X161447074Y-78396606D01*
X161424537Y-78462741D01*
X161370641Y-78505858D01*
X161259794Y-78551772D01*
X161259785Y-78551777D01*
X161049706Y-78673067D01*
X160857263Y-78820733D01*
X160857256Y-78820739D01*
X160685739Y-78992256D01*
X160685733Y-78992263D01*
X160538067Y-79184706D01*
X160416777Y-79394785D01*
X160416773Y-79394794D01*
X160323947Y-79618895D01*
X160261161Y-79853214D01*
X160229500Y-80093711D01*
X160229500Y-80586288D01*
X160261161Y-80826785D01*
X160323947Y-81061104D01*
X160412631Y-81275205D01*
X160416776Y-81285212D01*
X160538064Y-81495289D01*
X160538066Y-81495292D01*
X160538067Y-81495293D01*
X160685733Y-81687736D01*
X160685739Y-81687743D01*
X160857256Y-81859260D01*
X160857263Y-81859266D01*
X160892453Y-81886268D01*
X161049711Y-82006936D01*
X161259788Y-82128224D01*
X161483900Y-82221054D01*
X161718211Y-82283838D01*
X161882753Y-82305500D01*
X161958711Y-82315500D01*
X161958712Y-82315500D01*
X162201289Y-82315500D01*
X162249388Y-82309167D01*
X162441789Y-82283838D01*
X162676100Y-82221054D01*
X162900212Y-82128224D01*
X163110289Y-82006936D01*
X163254516Y-81896266D01*
X163319683Y-81871074D01*
X163388127Y-81885112D01*
X163405476Y-81896261D01*
X163549711Y-82006936D01*
X163759788Y-82128224D01*
X163983900Y-82221054D01*
X164218211Y-82283838D01*
X164382753Y-82305500D01*
X164458711Y-82315500D01*
X164458712Y-82315500D01*
X164701289Y-82315500D01*
X164749388Y-82309167D01*
X164941789Y-82283838D01*
X165176100Y-82221054D01*
X165400212Y-82128224D01*
X165610289Y-82006936D01*
X165754516Y-81896266D01*
X165819683Y-81871074D01*
X165888127Y-81885112D01*
X165905476Y-81896261D01*
X166049711Y-82006936D01*
X166259788Y-82128224D01*
X166483900Y-82221054D01*
X166718211Y-82283838D01*
X166882753Y-82305500D01*
X166958711Y-82315500D01*
X166958712Y-82315500D01*
X167201289Y-82315500D01*
X167249388Y-82309167D01*
X167441789Y-82283838D01*
X167676100Y-82221054D01*
X167900212Y-82128224D01*
X168110289Y-82006936D01*
X168254516Y-81896266D01*
X168319683Y-81871074D01*
X168388127Y-81885112D01*
X168405476Y-81896261D01*
X168549711Y-82006936D01*
X168759788Y-82128224D01*
X168983900Y-82221054D01*
X169218211Y-82283838D01*
X169382753Y-82305500D01*
X169458711Y-82315500D01*
X169458712Y-82315500D01*
X169701289Y-82315500D01*
X169749388Y-82309167D01*
X169941789Y-82283838D01*
X170176100Y-82221054D01*
X170400212Y-82128224D01*
X170610289Y-82006936D01*
X170802738Y-81859265D01*
X170848983Y-81813020D01*
X170927819Y-81734185D01*
X170989142Y-81700700D01*
X171058834Y-81705684D01*
X171114767Y-81747556D01*
X171139184Y-81813020D01*
X171139500Y-81821866D01*
X171139500Y-85837111D01*
X171119815Y-85904150D01*
X171103181Y-85924792D01*
X170274792Y-86753181D01*
X170213469Y-86786666D01*
X170187111Y-86789500D01*
X147621903Y-86789500D01*
X147388631Y-86826446D01*
X147164003Y-86899433D01*
X146953566Y-87006657D01*
X146906591Y-87040787D01*
X146762490Y-87145483D01*
X146762488Y-87145485D01*
X146762487Y-87145485D01*
X146595485Y-87312487D01*
X146595485Y-87312488D01*
X146595483Y-87312490D01*
X146535862Y-87394550D01*
X146456657Y-87503566D01*
X146349433Y-87714003D01*
X146276446Y-87938631D01*
X146239500Y-88171902D01*
X146239500Y-88408097D01*
X146276446Y-88641368D01*
X146349433Y-88865996D01*
X146424423Y-89013170D01*
X146456657Y-89076433D01*
X146595483Y-89267510D01*
X146762490Y-89434517D01*
X146953567Y-89573343D01*
X146968177Y-89580787D01*
X147164003Y-89680566D01*
X147164005Y-89680566D01*
X147164008Y-89680568D01*
X147273330Y-89716089D01*
X147388631Y-89753553D01*
X147621903Y-89790500D01*
X147621908Y-89790500D01*
X164383438Y-89790500D01*
X164450477Y-89810185D01*
X164496232Y-89862989D01*
X164507091Y-89905234D01*
X164524616Y-90139101D01*
X164584664Y-90402188D01*
X164584666Y-90402195D01*
X164664237Y-90604938D01*
X164683257Y-90653398D01*
X164818185Y-90887102D01*
X164828933Y-90900579D01*
X164986442Y-91098089D01*
X165173183Y-91271358D01*
X165184259Y-91281635D01*
X165407226Y-91433651D01*
X165650359Y-91550738D01*
X165908228Y-91630280D01*
X165908229Y-91630280D01*
X165908232Y-91630281D01*
X166175063Y-91670499D01*
X166175068Y-91670499D01*
X166175071Y-91670500D01*
X166175072Y-91670500D01*
X166444928Y-91670500D01*
X166444929Y-91670500D01*
X166444936Y-91670499D01*
X166711767Y-91630281D01*
X166711768Y-91630280D01*
X166711772Y-91630280D01*
X166969641Y-91550738D01*
X167212775Y-91433651D01*
X167435741Y-91281635D01*
X167633561Y-91098085D01*
X167801815Y-90887102D01*
X167936743Y-90653398D01*
X168035334Y-90402195D01*
X168095383Y-90139103D01*
X168108081Y-89969660D01*
X168112909Y-89905234D01*
X168137548Y-89839853D01*
X168193623Y-89798172D01*
X168236562Y-89790500D01*
X170978097Y-89790500D01*
X171211368Y-89753553D01*
X171240286Y-89744157D01*
X171435992Y-89680568D01*
X171646434Y-89573343D01*
X171837510Y-89434517D01*
X173784517Y-87487510D01*
X173923343Y-87296434D01*
X174030568Y-87085992D01*
X174103553Y-86861369D01*
X174137645Y-86646121D01*
X174140500Y-86628097D01*
X174140500Y-72731902D01*
X174103553Y-72498631D01*
X174030566Y-72274003D01*
X173923342Y-72063566D01*
X173784517Y-71872490D01*
X173617510Y-71705483D01*
X170549675Y-68637648D01*
X174309500Y-68637648D01*
X174309500Y-68842351D01*
X174341522Y-69044534D01*
X174404781Y-69239223D01*
X174497715Y-69421613D01*
X174618028Y-69587213D01*
X174762786Y-69731971D01*
X174917749Y-69844556D01*
X174928390Y-69852287D01*
X175044607Y-69911503D01*
X175110776Y-69945218D01*
X175110778Y-69945218D01*
X175110781Y-69945220D01*
X175215137Y-69979127D01*
X175305465Y-70008477D01*
X175406557Y-70024488D01*
X175507648Y-70040500D01*
X175507649Y-70040500D01*
X175712351Y-70040500D01*
X175712352Y-70040500D01*
X175914534Y-70008477D01*
X176109219Y-69945220D01*
X176291610Y-69852287D01*
X176384590Y-69784732D01*
X176457213Y-69731971D01*
X176457215Y-69731968D01*
X176457219Y-69731966D01*
X176601966Y-69587219D01*
X176601968Y-69587215D01*
X176601971Y-69587213D01*
X176699761Y-69452614D01*
X176722287Y-69421610D01*
X176815220Y-69239219D01*
X176878477Y-69044534D01*
X176910500Y-68842352D01*
X176910500Y-68637648D01*
X176878477Y-68435466D01*
X176815220Y-68240781D01*
X176815218Y-68240778D01*
X176815218Y-68240776D01*
X176763172Y-68138631D01*
X176722287Y-68058390D01*
X176714556Y-68047749D01*
X176601971Y-67892786D01*
X176457213Y-67748028D01*
X176291613Y-67627715D01*
X176291612Y-67627714D01*
X176291610Y-67627713D01*
X176234653Y-67598691D01*
X176109223Y-67534781D01*
X175914534Y-67471522D01*
X175739995Y-67443878D01*
X175712352Y-67439500D01*
X175507648Y-67439500D01*
X175483329Y-67443351D01*
X175305465Y-67471522D01*
X175110776Y-67534781D01*
X174928386Y-67627715D01*
X174762786Y-67748028D01*
X174618028Y-67892786D01*
X174497715Y-68058386D01*
X174404781Y-68240776D01*
X174341522Y-68435465D01*
X174309500Y-68637648D01*
X170549675Y-68637648D01*
X169277510Y-67365483D01*
X169086434Y-67226657D01*
X169047182Y-67206657D01*
X168875996Y-67119433D01*
X168651368Y-67046446D01*
X168418097Y-67009500D01*
X168418092Y-67009500D01*
X128724125Y-67009500D01*
X128704727Y-67007973D01*
X128684736Y-67004806D01*
X128588096Y-66989500D01*
X128588092Y-66989500D01*
X128351908Y-66989500D01*
X128351903Y-66989500D01*
X128118631Y-67026446D01*
X127894003Y-67099433D01*
X127683565Y-67206657D01*
X127492488Y-67345484D01*
X127325484Y-67512488D01*
X127186657Y-67703565D01*
X127079433Y-67914003D01*
X127006446Y-68138631D01*
X126969500Y-68371902D01*
X126969500Y-68608097D01*
X127006446Y-68841368D01*
X127079433Y-69065996D01*
X127166673Y-69237213D01*
X127186657Y-69276434D01*
X127314661Y-69452615D01*
X127338141Y-69518420D01*
X127322316Y-69586474D01*
X127272210Y-69635169D01*
X127214343Y-69649500D01*
X125825838Y-69649500D01*
X125600339Y-69685215D01*
X125383196Y-69755770D01*
X125179771Y-69859421D01*
X125074387Y-69935987D01*
X124995062Y-69993621D01*
X124995060Y-69993623D01*
X124995059Y-69993623D01*
X123693620Y-71295062D01*
X123630233Y-71382309D01*
X123630232Y-71382310D01*
X123559421Y-71479771D01*
X123455770Y-71683196D01*
X123385215Y-71900339D01*
X123349500Y-72125837D01*
X123349500Y-74774162D01*
X123385215Y-74999660D01*
X123455770Y-75216803D01*
X123559421Y-75420228D01*
X123693621Y-75604937D01*
X123855063Y-75766379D01*
X124039772Y-75900579D01*
X124135884Y-75949550D01*
X124243196Y-76004229D01*
X124243198Y-76004229D01*
X124243201Y-76004231D01*
X124359592Y-76042049D01*
X124460339Y-76074784D01*
X124685838Y-76110500D01*
X124685843Y-76110500D01*
X124914162Y-76110500D01*
X125139660Y-76074784D01*
X125356799Y-76004231D01*
X125560228Y-75900579D01*
X125744937Y-75766379D01*
X125906379Y-75604937D01*
X126040579Y-75420228D01*
X126144231Y-75216799D01*
X126214784Y-74999660D01*
X126250500Y-74774162D01*
X126250500Y-72892179D01*
X126270185Y-72825140D01*
X126286819Y-72804498D01*
X126504498Y-72586819D01*
X126565821Y-72553334D01*
X126592179Y-72550500D01*
X129298821Y-72550500D01*
X129365860Y-72570185D01*
X129411615Y-72622989D01*
X129421559Y-72692147D01*
X129392534Y-72755703D01*
X129386502Y-72762181D01*
X123623622Y-78525060D01*
X123623619Y-78525063D01*
X123579816Y-78585353D01*
X123524486Y-78628018D01*
X123454872Y-78633996D01*
X123393078Y-78601389D01*
X123358721Y-78540550D01*
X123355499Y-78512472D01*
X123355499Y-77261964D01*
X123344886Y-77142582D01*
X123288909Y-76946951D01*
X123194698Y-76766593D01*
X123142684Y-76702803D01*
X123066109Y-76608890D01*
X122908409Y-76480304D01*
X122908410Y-76480304D01*
X122908407Y-76480302D01*
X122728049Y-76386091D01*
X122728048Y-76386090D01*
X122728045Y-76386089D01*
X122610829Y-76352550D01*
X122532418Y-76330114D01*
X122532415Y-76330113D01*
X122532413Y-76330113D01*
X122466102Y-76324217D01*
X122413037Y-76319500D01*
X122413032Y-76319500D01*
X120766971Y-76319500D01*
X120766965Y-76319500D01*
X120766964Y-76319501D01*
X120755316Y-76320536D01*
X120647584Y-76330113D01*
X120451954Y-76386089D01*
X120361772Y-76433196D01*
X120271593Y-76480302D01*
X120271591Y-76480303D01*
X120271590Y-76480304D01*
X120113890Y-76608890D01*
X119985304Y-76766590D01*
X119891089Y-76946954D01*
X119835114Y-77142583D01*
X119835113Y-77142586D01*
X119824500Y-77261966D01*
X119824500Y-78908028D01*
X119824501Y-78908034D01*
X119835113Y-79027415D01*
X119891089Y-79223045D01*
X119891090Y-79223048D01*
X119891091Y-79223049D01*
X119980798Y-79394785D01*
X119985305Y-79403412D01*
X120090121Y-79531959D01*
X120117230Y-79596355D01*
X120105221Y-79665185D01*
X120101406Y-79672319D01*
X119994879Y-79856829D01*
X119898207Y-80103144D01*
X119898202Y-80103161D01*
X119839322Y-80361130D01*
X119819549Y-80624995D01*
X112610500Y-80624995D01*
X112610500Y-68287648D01*
X115189500Y-68287648D01*
X115189500Y-68492351D01*
X115221522Y-68694534D01*
X115284781Y-68889223D01*
X115348691Y-69014653D01*
X115374850Y-69065992D01*
X115377715Y-69071613D01*
X115498028Y-69237213D01*
X115642786Y-69381971D01*
X115740020Y-69452614D01*
X115808390Y-69502287D01*
X115924607Y-69561503D01*
X115990776Y-69595218D01*
X115990778Y-69595218D01*
X115990781Y-69595220D01*
X116095137Y-69629127D01*
X116185465Y-69658477D01*
X116286557Y-69674488D01*
X116387648Y-69690500D01*
X116387649Y-69690500D01*
X116592351Y-69690500D01*
X116592352Y-69690500D01*
X116794534Y-69658477D01*
X116989219Y-69595220D01*
X117171610Y-69502287D01*
X117282653Y-69421610D01*
X117337213Y-69381971D01*
X117337215Y-69381968D01*
X117337219Y-69381966D01*
X117481966Y-69237219D01*
X117481968Y-69237215D01*
X117481971Y-69237213D01*
X117534732Y-69164590D01*
X117602287Y-69071610D01*
X117695220Y-68889219D01*
X117758477Y-68694534D01*
X117790500Y-68492352D01*
X117790500Y-68287648D01*
X117758477Y-68085466D01*
X117749679Y-68058390D01*
X117695871Y-67892786D01*
X117695220Y-67890781D01*
X117695218Y-67890778D01*
X117695218Y-67890776D01*
X117661503Y-67824607D01*
X117602287Y-67708390D01*
X117543674Y-67627715D01*
X117481971Y-67542786D01*
X117337213Y-67398028D01*
X117171613Y-67277715D01*
X117171612Y-67277714D01*
X117171610Y-67277713D01*
X117114653Y-67248691D01*
X116989223Y-67184781D01*
X116794534Y-67121522D01*
X116619995Y-67093878D01*
X116592352Y-67089500D01*
X116387648Y-67089500D01*
X116363329Y-67093351D01*
X116185465Y-67121522D01*
X115990776Y-67184781D01*
X115808386Y-67277715D01*
X115642786Y-67398028D01*
X115498028Y-67542786D01*
X115377715Y-67708386D01*
X115284781Y-67890776D01*
X115221522Y-68085465D01*
X115189500Y-68287648D01*
X112610500Y-68287648D01*
X112610500Y-64224500D01*
X112630185Y-64157461D01*
X112682989Y-64111706D01*
X112734500Y-64100500D01*
X180285500Y-64100500D01*
X180352539Y-64120185D01*
G37*
%TD.AperFunction*%
%TD*%
%TA.AperFunction,NonConductor*%
G36*
X168976794Y-71329088D02*
G01*
X169027846Y-71359873D01*
X171103181Y-73435208D01*
X171136666Y-73496531D01*
X171139500Y-73522889D01*
X171139500Y-78858134D01*
X171119815Y-78925173D01*
X171067011Y-78970928D01*
X170997853Y-78980872D01*
X170934297Y-78951847D01*
X170927819Y-78945815D01*
X170802743Y-78820739D01*
X170802736Y-78820733D01*
X170610293Y-78673067D01*
X170610292Y-78673066D01*
X170610289Y-78673064D01*
X170400212Y-78551776D01*
X170400205Y-78551773D01*
X170176104Y-78458947D01*
X169983841Y-78407430D01*
X169941789Y-78396162D01*
X169941788Y-78396161D01*
X169941785Y-78396161D01*
X169701289Y-78364500D01*
X169701288Y-78364500D01*
X169458712Y-78364500D01*
X169458711Y-78364500D01*
X169218214Y-78396161D01*
X168983895Y-78458947D01*
X168759794Y-78551773D01*
X168759785Y-78551777D01*
X168549706Y-78673067D01*
X168405486Y-78783731D01*
X168340317Y-78808925D01*
X168271872Y-78794887D01*
X168254514Y-78783731D01*
X168110293Y-78673067D01*
X168110292Y-78673066D01*
X168110289Y-78673064D01*
X167900212Y-78551776D01*
X167900205Y-78551773D01*
X167676104Y-78458947D01*
X167483841Y-78407430D01*
X167441789Y-78396162D01*
X167441788Y-78396161D01*
X167441785Y-78396161D01*
X167201289Y-78364500D01*
X167201288Y-78364500D01*
X166958712Y-78364500D01*
X166958711Y-78364500D01*
X166718214Y-78396161D01*
X166483895Y-78458947D01*
X166259794Y-78551773D01*
X166259785Y-78551777D01*
X166049706Y-78673067D01*
X165905486Y-78783731D01*
X165840317Y-78808925D01*
X165771872Y-78794887D01*
X165754514Y-78783731D01*
X165610293Y-78673067D01*
X165610292Y-78673066D01*
X165610289Y-78673064D01*
X165400212Y-78551776D01*
X165400205Y-78551773D01*
X165176104Y-78458947D01*
X164983841Y-78407430D01*
X164941789Y-78396162D01*
X164941788Y-78396161D01*
X164941785Y-78396161D01*
X164701289Y-78364500D01*
X164701288Y-78364500D01*
X164458712Y-78364500D01*
X164458711Y-78364500D01*
X164218214Y-78396161D01*
X163983895Y-78458947D01*
X163759794Y-78551773D01*
X163759785Y-78551777D01*
X163549706Y-78673067D01*
X163405486Y-78783731D01*
X163340317Y-78808925D01*
X163271872Y-78794887D01*
X163254514Y-78783731D01*
X163110293Y-78673067D01*
X163110292Y-78673066D01*
X163110289Y-78673064D01*
X162900212Y-78551776D01*
X162900205Y-78551772D01*
X162811421Y-78514997D01*
X162757018Y-78471156D01*
X162734953Y-78404862D01*
X162752232Y-78337162D01*
X162802577Y-78289953D01*
X162860228Y-78260579D01*
X163044937Y-78126379D01*
X163206379Y-77964937D01*
X163340579Y-77780228D01*
X163444231Y-77576799D01*
X163514784Y-77359660D01*
X163550500Y-77134162D01*
X163550500Y-75575837D01*
X163514784Y-75350339D01*
X163444229Y-75133196D01*
X163340578Y-74929771D01*
X163206379Y-74745063D01*
X163044937Y-74583621D01*
X162276253Y-73814937D01*
X161223498Y-72762181D01*
X161190013Y-72700858D01*
X161194997Y-72631166D01*
X161236869Y-72575233D01*
X161302333Y-72550816D01*
X161311179Y-72550500D01*
X166925186Y-72550500D01*
X166963503Y-72556568D01*
X167050341Y-72584784D01*
X167095441Y-72591927D01*
X167275839Y-72620499D01*
X167275843Y-72620499D01*
X167504161Y-72620499D01*
X167591614Y-72606647D01*
X167729659Y-72584784D01*
X167946799Y-72514231D01*
X168150228Y-72410579D01*
X168334937Y-72276380D01*
X168496380Y-72114937D01*
X168630579Y-71930228D01*
X168734231Y-71726799D01*
X168804784Y-71509659D01*
X168817692Y-71428152D01*
X168847620Y-71365022D01*
X168906932Y-71328090D01*
X168976794Y-71329088D01*
G37*
%TD.AperFunction*%
M02*
