M48
; DRILL file {KiCad 8.0.3} date 2024-07-13T22:24:59+0900
; FORMAT={-:-/ absolute / inch / decimal}
; #@! TF.CreationDate,2024-07-13T22:24:59+09:00
; #@! TF.GenerationSoftware,Kicad,Pcbnew,8.0.3
; #@! TF.FileFunction,Plated,1,2,PTH
FMAT,2
INCH
; #@! TA.AperFunction,Plated,PTH,ViaDrill
T1C0.0118
; #@! TA.AperFunction,Plated,PTH,ComponentDrill
T2C0.0315
; #@! TA.AperFunction,Plated,PTH,ComponentDrill
T3C0.0374
; #@! TA.AperFunction,Plated,PTH,ComponentDrill
T4C0.0394
; #@! TA.AperFunction,Plated,PTH,ComponentDrill
T5C0.0402
%
G90
G05
T1
X4.6189Y-3.5713
X4.9118Y-3.5299
X4.9134Y-2.9394
X4.9642Y-4.0114
X5.0579Y-2.6965
X5.0885Y-3.4601
X5.1246Y-4.46
X5.5205Y-3.7181
X5.5346Y-3.5134
X5.6213Y-2.9752
X5.8165Y-3.476
X5.9083Y-4.0681
X6.1575Y-2.9697
X6.3819Y-3.0323
X6.4075Y-4.1508
X6.5902Y-2.802
T2
X5.6598Y-3.6004
X5.6598Y-3.7004
X5.6598Y-3.8004
X5.6598Y-3.9004
X5.9598Y-3.6004
X5.9598Y-3.7004
X5.9598Y-3.8004
X5.9598Y-3.9004
X6.1693Y-3.7681
X6.1693Y-3.8665
X6.3091Y-3.7677
X6.3091Y-3.8661
X6.5476Y-3.5382
X6.5476Y-3.9382
T3
X5.6211Y-3.1626
X5.7195Y-3.1626
X5.7626Y-4.398
X5.8179Y-3.1626
X5.861Y-4.398
X5.9163Y-3.1626
X5.9594Y-4.398
X6.0148Y-3.1626
X6.2827Y-3.163
X6.3563Y-4.3874
X6.3811Y-3.163
X6.4547Y-4.3874
X6.4795Y-3.163
X6.5531Y-4.3874
X6.578Y-3.163
X6.6764Y-3.163
T4
X6.7563Y-3.6768
X6.7563Y-3.7752
T5
X4.787Y-3.0742
X4.787Y-3.1742
X4.787Y-3.2742
X4.787Y-3.3742
X4.787Y-3.4742
X4.787Y-3.5742
X4.787Y-3.6742
X4.787Y-3.7742
X4.787Y-3.8742
X4.787Y-3.9742
X4.787Y-4.0742
X4.787Y-4.1742
X4.787Y-4.2742
X4.787Y-4.3742
X4.787Y-4.4742
X5.387Y-3.0742
X5.387Y-3.1742
X5.387Y-3.2742
X5.387Y-3.3742
X5.387Y-3.4742
X5.387Y-3.5742
X5.387Y-3.6742
X5.387Y-3.7742
X5.387Y-3.8742
X5.387Y-3.9742
X5.387Y-4.0742
X5.387Y-4.1742
X5.387Y-4.2742
X5.387Y-4.3742
X5.387Y-4.4742
M30
